<ttFont>
    <TTGlyph name=".notdef" xMin="222" yMin="0" xMax="1481" yMax="1533">
      <contour>
        <pt x="222" y="1454" on="1"/>
        <pt x="222" y="1492" on="0"/>
        <pt x="257" y="1533" on="0"/>
        <pt x="288" y="1533" on="1"/>
        <pt x="1405" y="1533" on="1"/>
        <pt x="1443" y="1533" on="0"/>
        <pt x="1481" y="1492" on="0"/>
        <pt x="1481" y="1457" on="1"/>
        <pt x="1481" y="76" on="1"/>
        <pt x="1481" y="41" on="0"/>
        <pt x="1443" y="0" on="0"/>
        <pt x="1405" y="0" on="1"/>
        <pt x="291" y="0" on="1"/>
        <pt x="258" y="0" on="0"/>
        <pt x="222" y="41" on="0"/>
        <pt x="222" y="78" on="1"/>
      </contour>
      <contour>
        <pt x="500" y="366" on="1"/>
        <pt x="539" y="326" on="0"/>
        <pt x="579" y="368" on="1"/>
        <pt x="855" y="645" on="1"/>
        <pt x="1136" y="366" on="1"/>
        <pt x="1154" y="347" on="0"/>
        <pt x="1192" y="344" on="0"/>
        <pt x="1209" y="361" on="1"/>
        <pt x="1261" y="413" on="1"/>
        <pt x="1279" y="431" on="0"/>
        <pt x="1277" y="468" on="0"/>
        <pt x="1261" y="483" on="1"/>
        <pt x="977" y="767" on="1"/>
        <pt x="1252" y="1043" on="1"/>
        <pt x="1269" y="1060" on="0"/>
        <pt x="1275" y="1094" on="0"/>
        <pt x="1261" y="1108" on="1"/>
        <pt x="1194" y="1177" on="1"/>
        <pt x="1177" y="1195" on="0"/>
        <pt x="1141" y="1189" on="0"/>
        <pt x="1130" y="1177" on="1"/>
        <pt x="849" y="895" on="1"/>
        <pt x="562" y="1183" on="1"/>
        <pt x="551" y="1194" on="0"/>
        <pt x="517" y="1200" on="0"/>
        <pt x="501" y="1184" on="1"/>
        <pt x="440" y="1126" on="1"/>
        <pt x="423" y="1109" on="0"/>
        <pt x="427" y="1074" on="0"/>
        <pt x="440" y="1062" on="1"/>
        <pt x="727" y="773" on="1"/>
        <pt x="442" y="488" on="1"/>
        <pt x="428" y="475" on="0"/>
        <pt x="428" y="438" on="0"/>
        <pt x="445" y="421" on="1"/>
      </contour>
    </TTGlyph>
    <TTGlyph name="A" xMin="6" yMin="-21" xMax="1247" yMax="1549">
      <contour>
        <pt x="51" y="303" on="1"/>
        <pt x="183" y="292" on="1"/>
        <pt x="357" y="1167" on="1"/>
        <pt x="287" y="1177" on="0"/>
        <pt x="166" y="1201" on="0"/>
        <pt x="127" y="1216" on="1"/>
        <pt x="128" y="1255" on="0"/>
        <pt x="145" y="1347" on="0"/>
        <pt x="177" y="1439" on="0"/>
        <pt x="224" y="1521" on="0"/>
        <pt x="255" y="1549" on="1"/>
        <pt x="456" y="1516" on="0"/>
        <pt x="836" y="1423" on="0"/>
        <pt x="1025" y="1366" on="1"/>
        <pt x="1068" y="1153" on="0"/>
        <pt x="1133" y="821" on="0"/>
        <pt x="1180" y="565" on="0"/>
        <pt x="1213" y="379" on="0"/>
        <pt x="1233" y="245" on="0"/>
        <pt x="1243" y="156" on="0"/>
        <pt x="1247" y="95" on="0"/>
        <pt x="1246" y="53" on="0"/>
        <pt x="1245" y="34" on="1"/>
        <pt x="1200" y="6" on="0"/>
        <pt x="1095" y="-19" on="0"/>
        <pt x="1041" y="-20" on="1"/>
        <pt x="1002" y="-20" on="0"/>
        <pt x="928" y="-10" on="0"/>
        <pt x="863" y="11" on="0"/>
        <pt x="810" y="42" on="0"/>
        <pt x="792" y="61" on="1"/>
        <pt x="873" y="333" on="1"/>
        <pt x="854" y="420" on="1"/>
        <pt x="800" y="420" on="1"/>
        <pt x="774" y="421" on="0"/>
        <pt x="712" y="425" on="0"/>
        <pt x="645" y="430" on="0"/>
        <pt x="577" y="435" on="0"/>
        <pt x="545" y="438" on="1"/>
        <pt x="538" y="382" on="0"/>
        <pt x="523" y="270" on="0"/>
        <pt x="498" y="167" on="0"/>
        <pt x="460" y="80" on="0"/>
        <pt x="402" y="15" on="0"/>
        <pt x="321" y="-21" on="0"/>
        <pt x="266" y="-20" on="1"/>
        <pt x="224" y="-19" on="0"/>
        <pt x="143" y="3" on="0"/>
        <pt x="74" y="44" on="0"/>
        <pt x="20" y="103" on="0"/>
        <pt x="6" y="140" on="1"/>
      </contour>
      <contour>
        <pt x="802" y="655" on="1"/>
        <pt x="698" y="1130" on="1"/>
        <pt x="612" y="1138" on="1"/>
        <pt x="610" y="1105" on="0"/>
        <pt x="603" y="997" on="0"/>
        <pt x="592" y="863" on="0"/>
        <pt x="578" y="711" on="0"/>
        <pt x="569" y="633" on="1"/>
      </contour>
    </TTGlyph>
    <TTGlyph name="AE" xMin="6" yMin="-21" xMax="1678" yMax="1549">
      <contour>
        <pt x="51" y="303" on="1"/>
        <pt x="183" y="292" on="1"/>
        <pt x="355" y="1158" on="1"/>
        <pt x="284" y="1168" on="0"/>
        <pt x="164" y="1192" on="0"/>
        <pt x="127" y="1206" on="1"/>
        <pt x="128" y="1245" on="0"/>
        <pt x="145" y="1340" on="0"/>
        <pt x="177" y="1436" on="0"/>
        <pt x="224" y="1521" on="0"/>
        <pt x="255" y="1549" on="1"/>
        <pt x="719" y="1420" on="1"/>
        <pt x="741" y="1452" on="0"/>
        <pt x="795" y="1509" on="0"/>
        <pt x="824" y="1529" on="1"/>
        <pt x="1168" y="1455" on="1"/>
        <pt x="1537" y="1549" on="1"/>
        <pt x="1562" y="1535" on="0"/>
        <pt x="1598" y="1489" on="0"/>
        <pt x="1621" y="1432" on="0"/>
        <pt x="1632" y="1365" on="0"/>
        <pt x="1632" y="1331" on="1"/>
        <pt x="1632" y="1251" on="0"/>
        <pt x="1575" y="1113" on="0"/>
        <pt x="1525" y="1075" on="1"/>
        <pt x="1436" y="1086" on="0"/>
        <pt x="1215" y="1136" on="0"/>
        <pt x="1080" y="1174" on="1"/>
        <pt x="1097" y="851" on="1"/>
        <pt x="1176" y="860" on="0"/>
        <pt x="1295" y="878" on="0"/>
        <pt x="1397" y="897" on="0"/>
        <pt x="1494" y="918" on="0"/>
        <pt x="1550" y="930" on="1"/>
        <pt x="1572" y="897" on="0"/>
        <pt x="1590" y="819" on="0"/>
        <pt x="1590" y="778" on="1"/>
        <pt x="1590" y="746" on="0"/>
        <pt x="1581" y="684" on="0"/>
        <pt x="1566" y="632" on="0"/>
        <pt x="1548" y="593" on="0"/>
        <pt x="1539" y="584" on="1"/>
        <pt x="1509" y="581" on="0"/>
        <pt x="1479" y="581" on="1"/>
        <pt x="1382" y="581" on="0"/>
        <pt x="1186" y="619" on="0"/>
        <pt x="1105" y="664" on="1"/>
        <pt x="1091" y="319" on="1"/>
        <pt x="1378" y="299" on="1"/>
        <pt x="1460" y="489" on="1"/>
        <pt x="1640" y="474" on="1"/>
        <pt x="1656" y="432" on="0"/>
        <pt x="1678" y="305" on="0"/>
        <pt x="1678" y="238" on="1"/>
        <pt x="1678" y="180" on="0"/>
        <pt x="1646" y="85" on="0"/>
        <pt x="1582" y="17" on="0"/>
        <pt x="1488" y="-20" on="0"/>
        <pt x="1427" y="-20" on="1"/>
        <pt x="1390" y="-20" on="0"/>
        <pt x="1294" y="-13" on="0"/>
        <pt x="1185" y="-1" on="0"/>
        <pt x="1071" y="15" on="0"/>
        <pt x="964" y="35" on="0"/>
        <pt x="870" y="56" on="0"/>
        <pt x="836" y="68" on="1"/>
        <pt x="807" y="97" on="0"/>
        <pt x="773" y="159" on="0"/>
        <pt x="762" y="191" on="1"/>
        <pt x="811" y="420" on="1"/>
        <pt x="800" y="420" on="1"/>
        <pt x="774" y="421" on="0"/>
        <pt x="712" y="425" on="0"/>
        <pt x="645" y="430" on="0"/>
        <pt x="577" y="435" on="0"/>
        <pt x="545" y="438" on="1"/>
        <pt x="538" y="382" on="0"/>
        <pt x="523" y="270" on="0"/>
        <pt x="498" y="167" on="0"/>
        <pt x="460" y="80" on="0"/>
        <pt x="402" y="15" on="0"/>
        <pt x="321" y="-21" on="0"/>
        <pt x="266" y="-20" on="1"/>
        <pt x="224" y="-19" on="0"/>
        <pt x="143" y="3" on="0"/>
        <pt x="74" y="44" on="0"/>
        <pt x="20" y="103" on="0"/>
        <pt x="6" y="140" on="1"/>
      </contour>
      <contour>
        <pt x="569" y="633" on="1"/>
        <pt x="624" y="639" on="0"/>
        <pt x="751" y="651" on="0"/>
        <pt x="812" y="656" on="1"/>
        <pt x="710" y="1122" on="1"/>
        <pt x="611" y="1130" on="1"/>
        <pt x="609" y="1095" on="0"/>
        <pt x="602" y="988" on="0"/>
        <pt x="591" y="856" on="0"/>
        <pt x="577" y="708" on="0"/>
      </contour>
    </TTGlyph>
    <TTGlyph name="AEacute" xMin="6" yMin="-21" xMax="1678" yMax="2020">
      <component glyphName="AE" x="0" y="0" flags="0x204"/>
      <component glyphName="acute.cap" x="652" y="0" flags="0x4"/>
    </TTGlyph>
    <TTGlyph name="Aacute" xMin="6" yMin="-21" xMax="1247" yMax="2020">
      <component glyphName="A" x="0" y="0" flags="0x204"/>
      <component glyphName="acute.cap" x="375" y="0" flags="0x4"/>
    </TTGlyph>
    <TTGlyph name="Abreve" xMin="6" yMin="-21" xMax="1247" yMax="2019">
      <component glyphName="A" x="0" y="0" flags="0x204"/>
      <component glyphName="breve.cap" x="268" y="0" flags="0x4"/>
    </TTGlyph>
    <TTGlyph name="Acircumflex" xMin="6" yMin="-21" xMax="1247" yMax="2007">
      <component glyphName="A" x="0" y="0" flags="0x204"/>
      <component glyphName="circumflex.cap" x="230" y="0" flags="0x4"/>
    </TTGlyph>
    <TTGlyph name="Adieresis" xMin="6" yMin="-21" xMax="1247" yMax="2020">
      <component glyphName="A" x="0" y="0" flags="0x204"/>
      <component glyphName="dieresis.cap" x="154" y="0" flags="0x4"/>
    </TTGlyph>
    <TTGlyph name="Agrave" xMin="6" yMin="-21" xMax="1247" yMax="2020">
      <component glyphName="A" x="0" y="0" flags="0x204"/>
      <component glyphName="grave.cap" x="269" y="0" flags="0x4"/>
    </TTGlyph>
    <TTGlyph name="Amacron" xMin="6" yMin="-21" xMax="1247" yMax="1928">
      <component glyphName="A" x="0" y="0" flags="0x204"/>
      <component glyphName="macron.cap" x="312" y="0" flags="0x4"/>
    </TTGlyph>
    <TTGlyph name="Aogonek" xMin="6" yMin="-438" xMax="1247" yMax="1549">
      <contour>
        <pt x="51" y="303" on="1"/>
        <pt x="183" y="292" on="1"/>
        <pt x="357" y="1167" on="1"/>
        <pt x="287" y="1177" on="0"/>
        <pt x="166" y="1201" on="0"/>
        <pt x="127" y="1216" on="1"/>
        <pt x="128" y="1255" on="0"/>
        <pt x="145" y="1347" on="0"/>
        <pt x="177" y="1439" on="0"/>
        <pt x="224" y="1521" on="0"/>
        <pt x="255" y="1549" on="1"/>
        <pt x="456" y="1516" on="0"/>
        <pt x="836" y="1423" on="0"/>
        <pt x="1025" y="1366" on="1"/>
        <pt x="1068" y="1153" on="0"/>
        <pt x="1133" y="821" on="0"/>
        <pt x="1180" y="565" on="0"/>
        <pt x="1213" y="379" on="0"/>
        <pt x="1233" y="245" on="0"/>
        <pt x="1243" y="156" on="0"/>
        <pt x="1247" y="95" on="0"/>
        <pt x="1246" y="53" on="0"/>
        <pt x="1245" y="34" on="1"/>
        <pt x="1218" y="14" on="0"/>
        <pt x="1142" y="-34" on="0"/>
        <pt x="1066" y="-87" on="0"/>
        <pt x="1002" y="-143" on="0"/>
        <pt x="987" y="-170" on="1"/>
        <pt x="1001" y="-183" on="1"/>
        <pt x="1197" y="-116" on="1"/>
        <pt x="1244" y="-243" on="1"/>
        <pt x="1193" y="-342" on="0"/>
        <pt x="1070" y="-438" on="0"/>
        <pt x="982" y="-438" on="1"/>
        <pt x="946" y="-438" on="0"/>
        <pt x="859" y="-398" on="0"/>
        <pt x="785" y="-336" on="0"/>
        <pt x="735" y="-261" on="0"/>
        <pt x="735" y="-225" on="1"/>
        <pt x="735" y="-195" on="0"/>
        <pt x="770" y="-136" on="0"/>
        <pt x="826" y="-80" on="0"/>
        <pt x="895" y="-30" on="0"/>
        <pt x="930" y="-8" on="1"/>
        <pt x="886" y="2" on="0"/>
        <pt x="815" y="37" on="0"/>
        <pt x="792" y="61" on="1"/>
        <pt x="873" y="333" on="1"/>
        <pt x="854" y="420" on="1"/>
        <pt x="800" y="420" on="1"/>
        <pt x="774" y="421" on="0"/>
        <pt x="712" y="425" on="0"/>
        <pt x="645" y="430" on="0"/>
        <pt x="577" y="435" on="0"/>
        <pt x="545" y="438" on="1"/>
        <pt x="538" y="382" on="0"/>
        <pt x="523" y="270" on="0"/>
        <pt x="498" y="167" on="0"/>
        <pt x="460" y="80" on="0"/>
        <pt x="402" y="15" on="0"/>
        <pt x="321" y="-21" on="0"/>
        <pt x="266" y="-20" on="1"/>
        <pt x="224" y="-19" on="0"/>
        <pt x="143" y="3" on="0"/>
        <pt x="74" y="44" on="0"/>
        <pt x="20" y="103" on="0"/>
        <pt x="6" y="140" on="1"/>
      </contour>
      <contour>
        <pt x="802" y="655" on="1"/>
        <pt x="698" y="1130" on="1"/>
        <pt x="612" y="1138" on="1"/>
        <pt x="610" y="1105" on="0"/>
        <pt x="603" y="997" on="0"/>
        <pt x="592" y="863" on="0"/>
        <pt x="578" y="711" on="0"/>
        <pt x="569" y="633" on="1"/>
      </contour>
    </TTGlyph>
    <TTGlyph name="Aring" xMin="6" yMin="-21" xMax="1247" yMax="2020">
      <component glyphName="A" x="0" y="0" flags="0x204"/>
      <component glyphName="ring.cap" x="356" y="0" flags="0x4"/>
    </TTGlyph>
    <TTGlyph name="Atilde" xMin="6" yMin="-21" xMax="1247" yMax="2020">
      <component glyphName="A" x="0" y="0" flags="0x204"/>
      <component glyphName="tilde.cap" x="218" y="0" flags="0x4"/>
    </TTGlyph>
    <TTGlyph name="B" xMin="87" yMin="-23" xMax="1289" yMax="1548">
      <contour>
        <pt x="152" y="123" on="1"/>
        <pt x="152" y="139" on="0"/>
        <pt x="159" y="163" on="1"/>
        <pt x="166" y="191" on="0"/>
        <pt x="179" y="236" on="0"/>
        <pt x="193" y="283" on="0"/>
        <pt x="208" y="335" on="0"/>
        <pt x="219" y="370" on="1"/>
        <pt x="209" y="390" on="0"/>
        <pt x="187" y="489" on="0"/>
        <pt x="165" y="625" on="0"/>
        <pt x="143" y="788" on="0"/>
        <pt x="123" y="957" on="0"/>
        <pt x="106" y="1121" on="0"/>
        <pt x="94" y="1259" on="0"/>
        <pt x="87" y="1360" on="0"/>
        <pt x="87" y="1381" on="1"/>
        <pt x="87" y="1391" on="0"/>
        <pt x="88" y="1393" on="1"/>
        <pt x="110" y="1423" on="0"/>
        <pt x="172" y="1473" on="0"/>
        <pt x="244" y="1509" on="0"/>
        <pt x="324" y="1529" on="0"/>
        <pt x="365" y="1529" on="1"/>
        <pt x="408" y="1529" on="0"/>
        <pt x="492" y="1506" on="0"/>
        <pt x="530" y="1480" on="1"/>
        <pt x="435" y="983" on="1"/>
        <pt x="464" y="969" on="1"/>
        <pt x="691" y="1531" on="1"/>
        <pt x="707" y="1535" on="0"/>
        <pt x="777" y="1548" on="0"/>
        <pt x="821" y="1548" on="1"/>
        <pt x="849" y="1548" on="0"/>
        <pt x="934" y="1532" on="0"/>
        <pt x="1032" y="1497" on="0"/>
        <pt x="1134" y="1442" on="0"/>
        <pt x="1179" y="1404" on="1"/>
        <pt x="1177" y="1333" on="0"/>
        <pt x="1162" y="1168" on="0"/>
        <pt x="1137" y="994" on="0"/>
        <pt x="1105" y="818" on="0"/>
        <pt x="1087" y="737" on="1"/>
        <pt x="1074" y="679" on="1"/>
        <pt x="1107" y="674" on="0"/>
        <pt x="1171" y="661" on="0"/>
        <pt x="1225" y="644" on="0"/>
        <pt x="1266" y="623" on="0"/>
        <pt x="1276" y="611" on="1"/>
        <pt x="1289" y="556" on="0"/>
        <pt x="1289" y="497" on="1"/>
        <pt x="1289" y="414" on="0"/>
        <pt x="1237" y="254" on="0"/>
        <pt x="1144" y="117" on="0"/>
        <pt x="1014" y="11" on="0"/>
        <pt x="936" y="-17" on="1"/>
        <pt x="882" y="-23" on="0"/>
        <pt x="827" y="-23" on="1"/>
        <pt x="770" y="-23" on="0"/>
        <pt x="627" y="-14" on="0"/>
        <pt x="477" y="4" on="0"/>
        <pt x="333" y="29" on="0"/>
        <pt x="221" y="62" on="0"/>
        <pt x="152" y="101" on="0"/>
      </contour>
      <contour>
        <pt x="548" y="746" on="1"/>
        <pt x="572" y="745" on="0"/>
        <pt x="627" y="743" on="0"/>
        <pt x="684" y="741" on="0"/>
        <pt x="740" y="738" on="0"/>
        <pt x="765" y="737" on="1"/>
        <pt x="769" y="790" on="0"/>
        <pt x="777" y="908" on="0"/>
        <pt x="783" y="1019" on="0"/>
        <pt x="787" y="1114" on="0"/>
        <pt x="787" y="1143" on="1"/>
        <pt x="740" y="1151" on="1"/>
        <pt x="723" y="1116" on="0"/>
        <pt x="674" y="1015" on="0"/>
        <pt x="621" y="902" on="0"/>
        <pt x="568" y="791" on="0"/>
      </contour>
      <contour>
        <pt x="465" y="344" on="1"/>
        <pt x="509" y="319" on="0"/>
        <pt x="609" y="277" on="0"/>
        <pt x="714" y="245" on="0"/>
        <pt x="818" y="225" on="0"/>
        <pt x="866" y="222" on="1"/>
        <pt x="873" y="258" on="0"/>
        <pt x="885" y="313" on="0"/>
        <pt x="893" y="360" on="0"/>
        <pt x="898" y="403" on="0"/>
        <pt x="898" y="427" on="1"/>
        <pt x="898" y="441" on="0"/>
        <pt x="896" y="472" on="0"/>
        <pt x="894" y="490" on="1"/>
        <pt x="494" y="573" on="1"/>
        <pt x="484" y="516" on="0"/>
        <pt x="470" y="402" on="0"/>
      </contour>
    </TTGlyph>
    <TTGlyph name="C" xMin="83" yMin="-20" xMax="973" yMax="1549">
      <contour>
        <pt x="233" y="95" on="1"/>
        <pt x="198" y="122" on="0"/>
        <pt x="170" y="167" on="0"/>
        <pt x="166" y="192" on="1"/>
        <pt x="164" y="231" on="0"/>
        <pt x="159" y="327" on="0"/>
        <pt x="153" y="435" on="0"/>
        <pt x="146" y="553" on="0"/>
        <pt x="142" y="613" on="1"/>
        <pt x="137" y="694" on="0"/>
        <pt x="125" y="856" on="0"/>
        <pt x="112" y="1003" on="0"/>
        <pt x="97" y="1127" on="0"/>
        <pt x="89" y="1171" on="1"/>
        <pt x="87" y="1184" on="0"/>
        <pt x="84" y="1219" on="0"/>
        <pt x="83" y="1253" on="0"/>
        <pt x="83" y="1280" on="0"/>
        <pt x="83" y="1286" on="1"/>
        <pt x="92" y="1321" on="0"/>
        <pt x="151" y="1400" on="0"/>
        <pt x="231" y="1473" on="0"/>
        <pt x="324" y="1532" on="0"/>
        <pt x="369" y="1549" on="1"/>
        <pt x="392" y="1544" on="0"/>
        <pt x="461" y="1524" on="0"/>
        <pt x="535" y="1499" on="0"/>
        <pt x="605" y="1471" on="0"/>
        <pt x="628" y="1459" on="1"/>
        <pt x="944" y="1481" on="1"/>
        <pt x="957" y="1417" on="0"/>
        <pt x="957" y="1302" on="0"/>
        <pt x="937" y="1202" on="0"/>
        <pt x="904" y="1119" on="0"/>
        <pt x="866" y="1057" on="0"/>
        <pt x="829" y="1017" on="0"/>
        <pt x="815" y="1010" on="1"/>
        <pt x="746" y="1039" on="0"/>
        <pt x="609" y="1125" on="0"/>
        <pt x="534" y="1192" on="1"/>
        <pt x="510" y="1170" on="1"/>
        <pt x="515" y="1121" on="0"/>
        <pt x="515" y="985" on="0"/>
        <pt x="510" y="829" on="0"/>
        <pt x="501" y="663" on="0"/>
        <pt x="489" y="506" on="0"/>
        <pt x="476" y="369" on="0"/>
        <pt x="470" y="320" on="1"/>
        <pt x="500" y="324" on="0"/>
        <pt x="586" y="353" on="0"/>
        <pt x="695" y="394" on="0"/>
        <pt x="824" y="445" on="0"/>
        <pt x="898" y="472" on="1"/>
        <pt x="973" y="305" on="1"/>
        <pt x="947" y="261" on="0"/>
        <pt x="849" y="156" on="0"/>
        <pt x="715" y="61" on="0"/>
        <pt x="553" y="-10" on="0"/>
        <pt x="465" y="-20" on="1"/>
        <pt x="438" y="-20" on="0"/>
        <pt x="376" y="3" on="0"/>
        <pt x="313" y="37" on="0"/>
        <pt x="255" y="78" on="0"/>
      </contour>
    </TTGlyph>
    <TTGlyph name="Cacute" xMin="83" yMin="-20" xMax="973" yMax="2020">
      <component glyphName="C" x="0" y="0" flags="0x204"/>
      <component glyphName="acute.cap" x="258" y="0" flags="0x4"/>
    </TTGlyph>
    <TTGlyph name="Ccaron" xMin="83" yMin="-20" xMax="973" yMax="2020">
      <component glyphName="C" x="0" y="0" flags="0x204"/>
      <component glyphName="caron.cap" x="93" y="0" flags="0x4"/>
    </TTGlyph>
    <TTGlyph name="Ccedilla" xMin="83" yMin="-408" xMax="973" yMax="1549">
      <contour>
        <pt x="233" y="95" on="1"/>
        <pt x="198" y="122" on="0"/>
        <pt x="170" y="167" on="0"/>
        <pt x="166" y="192" on="1"/>
        <pt x="164" y="231" on="0"/>
        <pt x="159" y="327" on="0"/>
        <pt x="153" y="435" on="0"/>
        <pt x="146" y="553" on="0"/>
        <pt x="142" y="613" on="1"/>
        <pt x="137" y="694" on="0"/>
        <pt x="125" y="856" on="0"/>
        <pt x="112" y="1003" on="0"/>
        <pt x="97" y="1127" on="0"/>
        <pt x="89" y="1171" on="1"/>
        <pt x="87" y="1184" on="0"/>
        <pt x="84" y="1219" on="0"/>
        <pt x="83" y="1253" on="0"/>
        <pt x="83" y="1280" on="0"/>
        <pt x="83" y="1286" on="1"/>
        <pt x="92" y="1321" on="0"/>
        <pt x="151" y="1400" on="0"/>
        <pt x="231" y="1473" on="0"/>
        <pt x="324" y="1532" on="0"/>
        <pt x="369" y="1549" on="1"/>
        <pt x="392" y="1544" on="0"/>
        <pt x="461" y="1524" on="0"/>
        <pt x="535" y="1499" on="0"/>
        <pt x="605" y="1471" on="0"/>
        <pt x="628" y="1459" on="1"/>
        <pt x="944" y="1481" on="1"/>
        <pt x="957" y="1417" on="0"/>
        <pt x="957" y="1302" on="0"/>
        <pt x="937" y="1202" on="0"/>
        <pt x="904" y="1119" on="0"/>
        <pt x="866" y="1057" on="0"/>
        <pt x="829" y="1017" on="0"/>
        <pt x="815" y="1010" on="1"/>
        <pt x="746" y="1039" on="0"/>
        <pt x="609" y="1125" on="0"/>
        <pt x="534" y="1192" on="1"/>
        <pt x="510" y="1170" on="1"/>
        <pt x="515" y="1121" on="0"/>
        <pt x="515" y="985" on="0"/>
        <pt x="510" y="829" on="0"/>
        <pt x="501" y="663" on="0"/>
        <pt x="489" y="506" on="0"/>
        <pt x="476" y="369" on="0"/>
        <pt x="470" y="320" on="1"/>
        <pt x="500" y="324" on="0"/>
        <pt x="586" y="353" on="0"/>
        <pt x="695" y="394" on="0"/>
        <pt x="824" y="445" on="0"/>
        <pt x="898" y="472" on="1"/>
        <pt x="973" y="305" on="1"/>
        <pt x="955" y="274" on="0"/>
        <pt x="894" y="202" on="0"/>
        <pt x="813" y="130" on="0"/>
        <pt x="715" y="62" on="0"/>
        <pt x="659" y="36" on="1"/>
        <pt x="775" y="-145" on="1"/>
        <pt x="764" y="-189" on="0"/>
        <pt x="714" y="-269" on="0"/>
        <pt x="644" y="-337" on="0"/>
        <pt x="558" y="-390" on="0"/>
        <pt x="512" y="-406" on="1"/>
        <pt x="505" y="-407" on="0"/>
        <pt x="490" y="-408" on="0"/>
        <pt x="482" y="-408" on="1"/>
        <pt x="443" y="-408" on="0"/>
        <pt x="366" y="-384" on="0"/>
        <pt x="300" y="-349" on="0"/>
        <pt x="251" y="-311" on="0"/>
        <pt x="239" y="-296" on="1"/>
        <pt x="237" y="-276" on="0"/>
        <pt x="240" y="-231" on="0"/>
        <pt x="247" y="-187" on="0"/>
        <pt x="256" y="-146" on="0"/>
        <pt x="261" y="-130" on="1"/>
        <pt x="286" y="-136" on="0"/>
        <pt x="354" y="-150" on="0"/>
        <pt x="424" y="-161" on="0"/>
        <pt x="490" y="-169" on="0"/>
        <pt x="514" y="-169" on="1"/>
        <pt x="446" y="-18" on="1"/>
        <pt x="420" y="-14" on="0"/>
        <pt x="362" y="10" on="0"/>
        <pt x="305" y="43" on="0"/>
        <pt x="253" y="79" on="0"/>
      </contour>
    </TTGlyph>
    <TTGlyph name="Ccircumflex" xMin="83" yMin="-20" xMax="973" yMax="2007">
      <component glyphName="C" x="0" y="0" flags="0x204"/>
      <component glyphName="circumflex.cap" x="31" y="0" flags="0x4"/>
    </TTGlyph>
    <TTGlyph name="Cdotaccent" xMin="83" yMin="-20" xMax="973" yMax="2000">
      <component glyphName="C" x="0" y="0" flags="0x204"/>
      <component glyphName="dotaccent.cap" x="319" y="0" flags="0x4"/>
    </TTGlyph>
    <TTGlyph name="D" xMin="30" yMin="-21" xMax="1254" yMax="1549">
      <contour>
        <pt x="288" y="-20" on="1"/>
        <pt x="256" y="-5" on="0"/>
        <pt x="188" y="67" on="0"/>
        <pt x="129" y="158" on="0"/>
        <pt x="88" y="257" on="0"/>
        <pt x="85" y="299" on="1"/>
        <pt x="174" y="423" on="1"/>
        <pt x="194" y="431" on="0"/>
        <pt x="245" y="437" on="0"/>
        <pt x="271" y="437" on="1"/>
        <pt x="303" y="437" on="1"/>
        <pt x="281" y="563" on="0"/>
        <pt x="252" y="783" on="0"/>
        <pt x="233" y="975" on="0"/>
        <pt x="219" y="1139" on="0"/>
        <pt x="213" y="1210" on="1"/>
        <pt x="30" y="1226" on="1"/>
        <pt x="33" y="1271" on="0"/>
        <pt x="47" y="1363" on="0"/>
        <pt x="77" y="1449" on="0"/>
        <pt x="126" y="1522" on="0"/>
        <pt x="165" y="1549" on="1"/>
        <pt x="877" y="1489" on="1"/>
        <pt x="920" y="1469" on="0"/>
        <pt x="1017" y="1412" on="0"/>
        <pt x="1115" y="1344" on="0"/>
        <pt x="1206" y="1266" on="0"/>
        <pt x="1242" y="1226" on="1"/>
        <pt x="1245" y="1203" on="0"/>
        <pt x="1249" y="1164" on="0"/>
        <pt x="1252" y="1115" on="0"/>
        <pt x="1254" y="1047" on="0"/>
        <pt x="1254" y="996" on="1"/>
        <pt x="1254" y="957" on="0"/>
        <pt x="1246" y="826" on="0"/>
        <pt x="1233" y="670" on="0"/>
        <pt x="1216" y="501" on="0"/>
        <pt x="1196" y="347" on="0"/>
        <pt x="1176" y="223" on="0"/>
        <pt x="1166" y="190" on="1"/>
        <pt x="1160" y="171" on="0"/>
        <pt x="1113" y="127" on="0"/>
        <pt x="1043" y="83" on="0"/>
        <pt x="958" y="40" on="0"/>
        <pt x="870" y="6" on="0"/>
        <pt x="787" y="-18" on="0"/>
        <pt x="755" y="-21" on="1"/>
        <pt x="716" y="0" on="0"/>
        <pt x="646" y="56" on="0"/>
        <pt x="588" y="116" on="0"/>
        <pt x="545" y="175" on="0"/>
        <pt x="534" y="200" on="1"/>
        <pt x="514" y="167" on="0"/>
        <pt x="465" y="91" on="0"/>
        <pt x="405" y="27" on="0"/>
        <pt x="331" y="-17" on="0"/>
      </contour>
      <contour>
        <pt x="577" y="394" on="1"/>
        <pt x="848" y="311" on="1"/>
        <pt x="851" y="373" on="0"/>
        <pt x="855" y="521" on="0"/>
        <pt x="855" y="586" on="1"/>
        <pt x="855" y="659" on="0"/>
        <pt x="853" y="812" on="0"/>
        <pt x="849" y="955" on="0"/>
        <pt x="842" y="1081" on="0"/>
        <pt x="838" y="1129" on="1"/>
        <pt x="596" y="1180" on="1"/>
        <pt x="560" y="397" on="1"/>
      </contour>
    </TTGlyph>
    <TTGlyph name="Dcaron" xMin="30" yMin="-21" xMax="1254" yMax="2020">
      <component glyphName="D" x="0" y="0" flags="0x204"/>
      <component glyphName="caron.cap" x="214" y="0" flags="0x4"/>
    </TTGlyph>
    <TTGlyph name="Dcroat" xMin="30" yMin="-21" xMax="1254" yMax="1549">
      <contour>
        <pt x="288" y="-20" on="1"/>
        <pt x="256" y="-5" on="0"/>
        <pt x="188" y="67" on="0"/>
        <pt x="129" y="158" on="0"/>
        <pt x="88" y="257" on="0"/>
        <pt x="85" y="299" on="1"/>
        <pt x="174" y="423" on="1"/>
        <pt x="194" y="431" on="0"/>
        <pt x="245" y="437" on="0"/>
        <pt x="271" y="437" on="1"/>
        <pt x="303" y="437" on="1"/>
        <pt x="294" y="492" on="0"/>
        <pt x="278" y="595" on="0"/>
        <pt x="271" y="644" on="1"/>
        <pt x="228" y="644" on="0"/>
        <pt x="137" y="647" on="0"/>
        <pt x="89" y="649" on="1"/>
        <pt x="71" y="698" on="0"/>
        <pt x="64" y="783" on="0"/>
        <pt x="75" y="834" on="1"/>
        <pt x="244" y="866" on="1"/>
        <pt x="233" y="966" on="0"/>
        <pt x="220" y="1137" on="0"/>
        <pt x="213" y="1210" on="1"/>
        <pt x="30" y="1226" on="1"/>
        <pt x="33" y="1271" on="0"/>
        <pt x="47" y="1363" on="0"/>
        <pt x="77" y="1449" on="0"/>
        <pt x="126" y="1522" on="0"/>
        <pt x="165" y="1549" on="1"/>
        <pt x="877" y="1489" on="1"/>
        <pt x="920" y="1469" on="0"/>
        <pt x="1017" y="1412" on="0"/>
        <pt x="1115" y="1344" on="0"/>
        <pt x="1206" y="1266" on="0"/>
        <pt x="1242" y="1226" on="1"/>
        <pt x="1245" y="1203" on="0"/>
        <pt x="1249" y="1164" on="0"/>
        <pt x="1252" y="1115" on="0"/>
        <pt x="1254" y="1047" on="0"/>
        <pt x="1254" y="996" on="1"/>
        <pt x="1254" y="957" on="0"/>
        <pt x="1246" y="826" on="0"/>
        <pt x="1233" y="670" on="0"/>
        <pt x="1216" y="501" on="0"/>
        <pt x="1196" y="347" on="0"/>
        <pt x="1176" y="223" on="0"/>
        <pt x="1166" y="190" on="1"/>
        <pt x="1160" y="171" on="0"/>
        <pt x="1113" y="127" on="0"/>
        <pt x="1043" y="83" on="0"/>
        <pt x="958" y="40" on="0"/>
        <pt x="870" y="6" on="0"/>
        <pt x="787" y="-18" on="0"/>
        <pt x="755" y="-21" on="1"/>
        <pt x="716" y="0" on="0"/>
        <pt x="646" y="56" on="0"/>
        <pt x="588" y="116" on="0"/>
        <pt x="545" y="175" on="0"/>
        <pt x="534" y="200" on="1"/>
        <pt x="514" y="167" on="0"/>
        <pt x="465" y="91" on="0"/>
        <pt x="405" y="27" on="0"/>
        <pt x="331" y="-17" on="0"/>
      </contour>
      <contour>
        <pt x="577" y="394" on="1"/>
        <pt x="848" y="311" on="1"/>
        <pt x="851" y="373" on="0"/>
        <pt x="855" y="521" on="0"/>
        <pt x="855" y="586" on="1"/>
        <pt x="855" y="659" on="0"/>
        <pt x="853" y="812" on="0"/>
        <pt x="849" y="955" on="0"/>
        <pt x="842" y="1081" on="0"/>
        <pt x="838" y="1129" on="1"/>
        <pt x="596" y="1180" on="1"/>
        <pt x="584" y="908" on="1"/>
        <pt x="733" y="922" on="1"/>
        <pt x="748" y="893" on="0"/>
        <pt x="760" y="820" on="0"/>
        <pt x="755" y="747" on="0"/>
        <pt x="734" y="679" on="0"/>
        <pt x="717" y="655" on="1"/>
        <pt x="697" y="653" on="0"/>
        <pt x="624" y="649" on="0"/>
        <pt x="572" y="647" on="1"/>
        <pt x="560" y="397" on="1"/>
      </contour>
    </TTGlyph>
    <TTGlyph name="Delta" xMin="17" yMin="0" xMax="1201" yMax="1549">
      <contour>
        <pt x="129" y="0" on="1"/>
        <pt x="94" y="29" on="0"/>
        <pt x="34" y="109" on="0"/>
        <pt x="17" y="154" on="1"/>
        <pt x="228" y="903" on="1"/>
        <pt x="352" y="1462" on="1"/>
        <pt x="365" y="1478" on="0"/>
        <pt x="434" y="1508" on="0"/>
        <pt x="521" y="1532" on="0"/>
        <pt x="612" y="1548" on="0"/>
        <pt x="648" y="1549" on="1"/>
        <pt x="663" y="1549" on="0"/>
        <pt x="704" y="1547" on="0"/>
        <pt x="746" y="1543" on="0"/>
        <pt x="785" y="1535" on="0"/>
        <pt x="797" y="1529" on="1"/>
        <pt x="988" y="903" on="1"/>
        <pt x="1201" y="320" on="1"/>
        <pt x="1177" y="233" on="0"/>
        <pt x="1103" y="72" on="0"/>
        <pt x="1044" y="0" on="1"/>
      </contour>
      <contour>
        <pt x="845" y="289" on="1"/>
        <pt x="616" y="903" on="1"/>
        <pt x="562" y="1124" on="1"/>
        <pt x="536" y="1124" on="1"/>
        <pt x="510" y="925" on="1"/>
        <pt x="368" y="309" on="1"/>
      </contour>
    </TTGlyph>
    <TTGlyph name="E" xMin="-5" yMin="-20" xMax="1044" yMax="1549">
      <contour>
        <pt x="173" y="68" on="1"/>
        <pt x="135" y="113" on="0"/>
        <pt x="88" y="210" on="0"/>
        <pt x="80" y="264" on="1"/>
        <pt x="238" y="681" on="1"/>
        <pt x="-5" y="1265" on="1"/>
        <pt x="-5" y="1298" on="0"/>
        <pt x="23" y="1373" on="0"/>
        <pt x="68" y="1444" on="0"/>
        <pt x="127" y="1506" on="0"/>
        <pt x="158" y="1528" on="1"/>
        <pt x="491" y="1455" on="1"/>
        <pt x="903" y="1549" on="1"/>
        <pt x="928" y="1535" on="0"/>
        <pt x="964" y="1489" on="0"/>
        <pt x="987" y="1432" on="0"/>
        <pt x="998" y="1365" on="0"/>
        <pt x="998" y="1331" on="1"/>
        <pt x="998" y="1291" on="0"/>
        <pt x="984" y="1211" on="0"/>
        <pt x="957" y="1140" on="0"/>
        <pt x="918" y="1081" on="0"/>
        <pt x="893" y="1062" on="1"/>
        <pt x="849" y="1066" on="0"/>
        <pt x="752" y="1085" on="0"/>
        <pt x="638" y="1112" on="0"/>
        <pt x="505" y="1149" on="0"/>
        <pt x="424" y="1171" on="1"/>
        <pt x="463" y="851" on="1"/>
        <pt x="542" y="860" on="0"/>
        <pt x="661" y="878" on="0"/>
        <pt x="763" y="897" on="0"/>
        <pt x="860" y="918" on="0"/>
        <pt x="916" y="930" on="1"/>
        <pt x="938" y="897" on="0"/>
        <pt x="956" y="819" on="0"/>
        <pt x="956" y="778" on="1"/>
        <pt x="956" y="746" on="0"/>
        <pt x="947" y="684" on="0"/>
        <pt x="932" y="632" on="0"/>
        <pt x="914" y="593" on="0"/>
        <pt x="905" y="584" on="1"/>
        <pt x="875" y="581" on="0"/>
        <pt x="845" y="581" on="1"/>
        <pt x="748" y="581" on="0"/>
        <pt x="552" y="619" on="0"/>
        <pt x="471" y="664" on="1"/>
        <pt x="457" y="309" on="1"/>
        <pt x="744" y="299" on="1"/>
        <pt x="826" y="489" on="1"/>
        <pt x="1006" y="474" on="1"/>
        <pt x="1014" y="453" on="0"/>
        <pt x="1028" y="385" on="0"/>
        <pt x="1038" y="307" on="0"/>
        <pt x="1044" y="226" on="0"/>
        <pt x="1044" y="193" on="1"/>
        <pt x="1005" y="114" on="0"/>
        <pt x="878" y="1" on="0"/>
        <pt x="793" y="-20" on="1"/>
        <pt x="726" y="-18" on="0"/>
        <pt x="556" y="-1" on="0"/>
        <pt x="384" y="24" on="0"/>
        <pt x="227" y="54" on="0"/>
      </contour>
    </TTGlyph>
    <TTGlyph name="Eacute" xMin="-5" yMin="-20" xMax="1044" yMax="2020">
      <component glyphName="E" x="0" y="0" flags="0x204"/>
      <component glyphName="acute.cap" x="227" y="0" flags="0x4"/>
    </TTGlyph>
    <TTGlyph name="Ebreve" xMin="-5" yMin="-20" xMax="1044" yMax="2019">
      <component glyphName="E" x="0" y="0" flags="0x204"/>
      <component glyphName="breve.cap" x="120" y="0" flags="0x4"/>
    </TTGlyph>
    <TTGlyph name="Ecaron" xMin="-5" yMin="-20" xMax="1044" yMax="2020">
      <component glyphName="E" x="0" y="0" flags="0x204"/>
      <component glyphName="caron.cap" x="62" y="0" flags="0x4"/>
    </TTGlyph>
    <TTGlyph name="Ecircumflex" xMin="-5" yMin="-20" xMax="1044" yMax="2007">
      <component glyphName="E" x="0" y="0" flags="0x204"/>
      <component glyphName="circumflex.cap" x="82" y="0" flags="0x4"/>
    </TTGlyph>
    <TTGlyph name="Edieresis" xMin="-5" yMin="-20" xMax="1044" yMax="2020">
      <component glyphName="E" x="0" y="0" flags="0x204"/>
      <component glyphName="dieresis.cap" x="6" y="0" flags="0x4"/>
    </TTGlyph>
    <TTGlyph name="Edotaccent" xMin="-5" yMin="-20" xMax="1044" yMax="2000">
      <component glyphName="E" x="0" y="0" flags="0x204"/>
      <component glyphName="dotaccent.cap" x="288" y="0" flags="0x4"/>
    </TTGlyph>
    <TTGlyph name="Egrave" xMin="-5" yMin="-20" xMax="1044" yMax="2020">
      <component glyphName="E" x="0" y="0" flags="0x204"/>
      <component glyphName="grave.cap" x="121" y="0" flags="0x4"/>
    </TTGlyph>
    <TTGlyph name="Emacron" xMin="-5" yMin="-20" xMax="1044" yMax="1928">
      <component glyphName="E" x="0" y="0" flags="0x204"/>
      <component glyphName="macron.cap" x="164" y="0" flags="0x4"/>
    </TTGlyph>
    <TTGlyph name="Eng" xMin="28" yMin="-436" xMax="1292" yMax="1549">
      <contour>
        <pt x="98" y="305" on="1"/>
        <pt x="209" y="296" on="1"/>
        <pt x="201" y="1175" on="1"/>
        <pt x="158" y="1178" on="0"/>
        <pt x="66" y="1202" on="0"/>
        <pt x="28" y="1226" on="1"/>
        <pt x="28" y="1271" on="0"/>
        <pt x="40" y="1363" on="0"/>
        <pt x="74" y="1448" on="0"/>
        <pt x="136" y="1522" on="0"/>
        <pt x="187" y="1549" on="1"/>
        <pt x="223" y="1544" on="0"/>
        <pt x="332" y="1522" on="0"/>
        <pt x="457" y="1483" on="0"/>
        <pt x="586" y="1425" on="0"/>
        <pt x="642" y="1385" on="1"/>
        <pt x="1026" y="301" on="1"/>
        <pt x="1030" y="305" on="1"/>
        <pt x="1022" y="350" on="0"/>
        <pt x="1001" y="481" on="0"/>
        <pt x="978" y="639" on="0"/>
        <pt x="953" y="813" on="0"/>
        <pt x="929" y="988" on="0"/>
        <pt x="907" y="1154" on="0"/>
        <pt x="891" y="1295" on="0"/>
        <pt x="882" y="1402" on="0"/>
        <pt x="882" y="1430" on="1"/>
        <pt x="891" y="1450" on="0"/>
        <pt x="940" y="1486" on="0"/>
        <pt x="1007" y="1513" on="0"/>
        <pt x="1086" y="1529" on="0"/>
        <pt x="1126" y="1529" on="1"/>
        <pt x="1146" y="1529" on="0"/>
        <pt x="1191" y="1523" on="0"/>
        <pt x="1236" y="1513" on="0"/>
        <pt x="1277" y="1496" on="0"/>
        <pt x="1292" y="1486" on="1"/>
        <pt x="1212" y="348" on="1"/>
        <pt x="1264" y="60" on="1"/>
        <pt x="1291" y="-60" on="1"/>
        <pt x="1275" y="-122" on="0"/>
        <pt x="1213" y="-238" on="0"/>
        <pt x="1124" y="-335" on="0"/>
        <pt x="1012" y="-411" on="0"/>
        <pt x="946" y="-433" on="1"/>
        <pt x="925" y="-436" on="0"/>
        <pt x="903" y="-436" on="1"/>
        <pt x="847" y="-436" on="0"/>
        <pt x="721" y="-402" on="0"/>
        <pt x="609" y="-353" on="0"/>
        <pt x="523" y="-298" on="0"/>
        <pt x="507" y="-276" on="1"/>
        <pt x="506" y="-266" on="0"/>
        <pt x="505" y="-248" on="0"/>
        <pt x="505" y="-239" on="1"/>
        <pt x="505" y="-195" on="0"/>
        <pt x="521" y="-122" on="0"/>
        <pt x="532" y="-84" on="1"/>
        <pt x="569" y="-92" on="0"/>
        <pt x="673" y="-109" on="0"/>
        <pt x="783" y="-123" on="0"/>
        <pt x="886" y="-132" on="0"/>
        <pt x="921" y="-132" on="1"/>
        <pt x="906" y="-5" on="1"/>
        <pt x="793" y="245" on="1"/>
        <pt x="356" y="1170" on="1"/>
        <pt x="351" y="1168" on="1"/>
        <pt x="358" y="1143" on="0"/>
        <pt x="391" y="1024" on="0"/>
        <pt x="432" y="862" on="0"/>
        <pt x="477" y="674" on="0"/>
        <pt x="518" y="486" on="0"/>
        <pt x="549" y="313" on="0"/>
        <pt x="556" y="248" on="1"/>
        <pt x="557" y="237" on="0"/>
        <pt x="558" y="214" on="0"/>
        <pt x="558" y="203" on="1"/>
        <pt x="558" y="156" on="0"/>
        <pt x="535" y="75" on="0"/>
        <pt x="484" y="15" on="0"/>
        <pt x="403" y="-20" on="0"/>
        <pt x="346" y="-20" on="1"/>
        <pt x="301" y="-20" on="0"/>
        <pt x="216" y="3" on="0"/>
        <pt x="143" y="45" on="0"/>
        <pt x="85" y="105" on="0"/>
        <pt x="67" y="142" on="1"/>
      </contour>
    </TTGlyph>
    <TTGlyph name="Eogonek" xMin="-5" yMin="-438" xMax="1044" yMax="1549">
      <contour>
        <pt x="173" y="68" on="1"/>
        <pt x="135" y="113" on="0"/>
        <pt x="88" y="210" on="0"/>
        <pt x="80" y="264" on="1"/>
        <pt x="238" y="681" on="1"/>
        <pt x="-5" y="1265" on="1"/>
        <pt x="-5" y="1298" on="0"/>
        <pt x="23" y="1373" on="0"/>
        <pt x="68" y="1444" on="0"/>
        <pt x="127" y="1506" on="0"/>
        <pt x="158" y="1528" on="1"/>
        <pt x="491" y="1455" on="1"/>
        <pt x="903" y="1549" on="1"/>
        <pt x="928" y="1535" on="0"/>
        <pt x="964" y="1489" on="0"/>
        <pt x="987" y="1432" on="0"/>
        <pt x="998" y="1365" on="0"/>
        <pt x="998" y="1331" on="1"/>
        <pt x="998" y="1291" on="0"/>
        <pt x="984" y="1211" on="0"/>
        <pt x="957" y="1140" on="0"/>
        <pt x="918" y="1081" on="0"/>
        <pt x="893" y="1062" on="1"/>
        <pt x="849" y="1066" on="0"/>
        <pt x="752" y="1085" on="0"/>
        <pt x="638" y="1112" on="0"/>
        <pt x="505" y="1149" on="0"/>
        <pt x="424" y="1171" on="1"/>
        <pt x="463" y="851" on="1"/>
        <pt x="542" y="860" on="0"/>
        <pt x="661" y="878" on="0"/>
        <pt x="763" y="897" on="0"/>
        <pt x="860" y="918" on="0"/>
        <pt x="916" y="930" on="1"/>
        <pt x="938" y="897" on="0"/>
        <pt x="956" y="819" on="0"/>
        <pt x="956" y="778" on="1"/>
        <pt x="956" y="746" on="0"/>
        <pt x="947" y="684" on="0"/>
        <pt x="932" y="632" on="0"/>
        <pt x="914" y="593" on="0"/>
        <pt x="905" y="584" on="1"/>
        <pt x="875" y="581" on="0"/>
        <pt x="845" y="581" on="1"/>
        <pt x="748" y="581" on="0"/>
        <pt x="552" y="619" on="0"/>
        <pt x="471" y="664" on="1"/>
        <pt x="457" y="309" on="1"/>
        <pt x="744" y="299" on="1"/>
        <pt x="826" y="489" on="1"/>
        <pt x="1006" y="474" on="1"/>
        <pt x="1014" y="453" on="0"/>
        <pt x="1028" y="385" on="0"/>
        <pt x="1038" y="307" on="0"/>
        <pt x="1044" y="226" on="0"/>
        <pt x="1044" y="193" on="1"/>
        <pt x="1012" y="130" on="0"/>
        <pt x="919" y="32" on="0"/>
        <pt x="858" y="3" on="1"/>
        <pt x="829" y="-16" on="0"/>
        <pt x="763" y="-60" on="0"/>
        <pt x="701" y="-107" on="0"/>
        <pt x="653" y="-151" on="0"/>
        <pt x="643" y="-170" on="1"/>
        <pt x="657" y="-183" on="1"/>
        <pt x="853" y="-116" on="1"/>
        <pt x="900" y="-243" on="1"/>
        <pt x="849" y="-342" on="0"/>
        <pt x="726" y="-438" on="0"/>
        <pt x="638" y="-438" on="1"/>
        <pt x="602" y="-438" on="0"/>
        <pt x="515" y="-398" on="0"/>
        <pt x="441" y="-336" on="0"/>
        <pt x="391" y="-261" on="0"/>
        <pt x="391" y="-225" on="1"/>
        <pt x="391" y="-194" on="0"/>
        <pt x="428" y="-133" on="0"/>
        <pt x="486" y="-77" on="0"/>
        <pt x="558" y="-26" on="0"/>
        <pt x="593" y="-4" on="1"/>
        <pt x="535" y="2" on="0"/>
        <pt x="417" y="19" on="0"/>
        <pt x="306" y="38" on="0"/>
        <pt x="209" y="58" on="0"/>
      </contour>
    </TTGlyph>
    <TTGlyph name="Eth" xMin="30" yMin="-21" xMax="1254" yMax="1549">
      <contour>
        <pt x="288" y="-20" on="1"/>
        <pt x="256" y="-5" on="0"/>
        <pt x="188" y="67" on="0"/>
        <pt x="129" y="158" on="0"/>
        <pt x="88" y="257" on="0"/>
        <pt x="85" y="299" on="1"/>
        <pt x="174" y="423" on="1"/>
        <pt x="194" y="431" on="0"/>
        <pt x="245" y="437" on="0"/>
        <pt x="271" y="437" on="1"/>
        <pt x="303" y="437" on="1"/>
        <pt x="294" y="492" on="0"/>
        <pt x="278" y="595" on="0"/>
        <pt x="271" y="644" on="1"/>
        <pt x="228" y="644" on="0"/>
        <pt x="137" y="647" on="0"/>
        <pt x="89" y="649" on="1"/>
        <pt x="71" y="698" on="0"/>
        <pt x="64" y="783" on="0"/>
        <pt x="75" y="834" on="1"/>
        <pt x="244" y="866" on="1"/>
        <pt x="233" y="966" on="0"/>
        <pt x="220" y="1137" on="0"/>
        <pt x="213" y="1210" on="1"/>
        <pt x="30" y="1226" on="1"/>
        <pt x="33" y="1271" on="0"/>
        <pt x="47" y="1363" on="0"/>
        <pt x="77" y="1449" on="0"/>
        <pt x="126" y="1522" on="0"/>
        <pt x="165" y="1549" on="1"/>
        <pt x="877" y="1489" on="1"/>
        <pt x="920" y="1469" on="0"/>
        <pt x="1017" y="1412" on="0"/>
        <pt x="1115" y="1344" on="0"/>
        <pt x="1206" y="1266" on="0"/>
        <pt x="1242" y="1226" on="1"/>
        <pt x="1245" y="1203" on="0"/>
        <pt x="1249" y="1164" on="0"/>
        <pt x="1252" y="1115" on="0"/>
        <pt x="1254" y="1047" on="0"/>
        <pt x="1254" y="996" on="1"/>
        <pt x="1254" y="957" on="0"/>
        <pt x="1246" y="826" on="0"/>
        <pt x="1233" y="670" on="0"/>
        <pt x="1216" y="501" on="0"/>
        <pt x="1196" y="347" on="0"/>
        <pt x="1176" y="223" on="0"/>
        <pt x="1166" y="190" on="1"/>
        <pt x="1160" y="171" on="0"/>
        <pt x="1113" y="127" on="0"/>
        <pt x="1043" y="83" on="0"/>
        <pt x="958" y="40" on="0"/>
        <pt x="870" y="6" on="0"/>
        <pt x="787" y="-18" on="0"/>
        <pt x="755" y="-21" on="1"/>
        <pt x="716" y="0" on="0"/>
        <pt x="646" y="56" on="0"/>
        <pt x="588" y="116" on="0"/>
        <pt x="545" y="175" on="0"/>
        <pt x="534" y="200" on="1"/>
        <pt x="514" y="167" on="0"/>
        <pt x="465" y="91" on="0"/>
        <pt x="405" y="27" on="0"/>
        <pt x="331" y="-17" on="0"/>
      </contour>
      <contour>
        <pt x="577" y="394" on="1"/>
        <pt x="848" y="311" on="1"/>
        <pt x="851" y="373" on="0"/>
        <pt x="855" y="521" on="0"/>
        <pt x="855" y="586" on="1"/>
        <pt x="855" y="659" on="0"/>
        <pt x="853" y="812" on="0"/>
        <pt x="849" y="955" on="0"/>
        <pt x="842" y="1081" on="0"/>
        <pt x="838" y="1129" on="1"/>
        <pt x="596" y="1180" on="1"/>
        <pt x="584" y="908" on="1"/>
        <pt x="733" y="922" on="1"/>
        <pt x="748" y="893" on="0"/>
        <pt x="760" y="820" on="0"/>
        <pt x="755" y="747" on="0"/>
        <pt x="734" y="679" on="0"/>
        <pt x="717" y="655" on="1"/>
        <pt x="697" y="653" on="0"/>
        <pt x="624" y="649" on="0"/>
        <pt x="572" y="647" on="1"/>
        <pt x="560" y="397" on="1"/>
      </contour>
    </TTGlyph>
    <TTGlyph name="Euro" xMin="35" yMin="-20" xMax="1147" yMax="1549">
      <contour>
        <pt x="256" y="192" on="1"/>
        <pt x="251" y="250" on="0"/>
        <pt x="244" y="405" on="0"/>
        <pt x="239" y="493" on="1"/>
        <pt x="58" y="493" on="1"/>
        <pt x="55" y="523" on="0"/>
        <pt x="57" y="567" on="0"/>
        <pt x="67" y="605" on="0"/>
        <pt x="85" y="639" on="0"/>
        <pt x="97" y="660" on="1"/>
        <pt x="228" y="667" on="1"/>
        <pt x="226" y="704" on="0"/>
        <pt x="219" y="777" on="0"/>
        <pt x="216" y="812" on="1"/>
        <pt x="38" y="812" on="1"/>
        <pt x="35" y="842" on="0"/>
        <pt x="37" y="883" on="0"/>
        <pt x="47" y="917" on="0"/>
        <pt x="65" y="948" on="0"/>
        <pt x="77" y="969" on="1"/>
        <pt x="198" y="975" on="1"/>
        <pt x="190" y="1035" on="0"/>
        <pt x="176" y="1134" on="0"/>
        <pt x="169" y="1171" on="1"/>
        <pt x="167" y="1184" on="0"/>
        <pt x="164" y="1219" on="0"/>
        <pt x="163" y="1253" on="0"/>
        <pt x="163" y="1280" on="0"/>
        <pt x="163" y="1286" on="1"/>
        <pt x="172" y="1321" on="0"/>
        <pt x="234" y="1400" on="0"/>
        <pt x="318" y="1473" on="0"/>
        <pt x="414" y="1532" on="0"/>
        <pt x="459" y="1549" on="1"/>
        <pt x="482" y="1544" on="0"/>
        <pt x="570" y="1531" on="0"/>
        <pt x="670" y="1516" on="0"/>
        <pt x="769" y="1500" on="0"/>
        <pt x="804" y="1493" on="1"/>
        <pt x="1127" y="1493" on="1"/>
        <pt x="1147" y="1398" on="0"/>
        <pt x="1128" y="1259" on="0"/>
        <pt x="1081" y="1164" on="0"/>
        <pt x="1021" y="1110" on="0"/>
        <pt x="1000" y="1100" on="1"/>
        <pt x="979" y="1105" on="0"/>
        <pt x="917" y="1122" on="0"/>
        <pt x="843" y="1145" on="0"/>
        <pt x="763" y="1175" on="0"/>
        <pt x="686" y="1210" on="0"/>
        <pt x="618" y="1250" on="0"/>
        <pt x="593" y="1272" on="1"/>
        <pt x="569" y="1250" on="1"/>
        <pt x="573" y="1205" on="0"/>
        <pt x="568" y="1073" on="0"/>
        <pt x="561" y="995" on="1"/>
        <pt x="915" y="1014" on="1"/>
        <pt x="927" y="963" on="0"/>
        <pt x="907" y="870" on="0"/>
        <pt x="878" y="814" on="1"/>
        <pt x="543" y="813" on="1"/>
        <pt x="539" y="781" on="0"/>
        <pt x="532" y="716" on="0"/>
        <pt x="527" y="684" on="1"/>
        <pt x="885" y="705" on="1"/>
        <pt x="897" y="654" on="0"/>
        <pt x="877" y="551" on="0"/>
        <pt x="848" y="495" on="1"/>
        <pt x="502" y="494" on="1"/>
        <pt x="480" y="320" on="1"/>
        <pt x="544" y="333" on="0"/>
        <pt x="688" y="361" on="0"/>
        <pt x="835" y="392" on="0"/>
        <pt x="979" y="425" on="0"/>
        <pt x="1044" y="443" on="1"/>
        <pt x="1109" y="294" on="1"/>
        <pt x="1092" y="265" on="0"/>
        <pt x="1029" y="199" on="0"/>
        <pt x="946" y="134" on="0"/>
        <pt x="844" y="72" on="0"/>
        <pt x="733" y="22" on="0"/>
        <pt x="614" y="-14" on="0"/>
        <pt x="555" y="-20" on="1"/>
        <pt x="528" y="-20" on="0"/>
        <pt x="466" y="3" on="0"/>
        <pt x="403" y="37" on="0"/>
        <pt x="345" y="78" on="0"/>
        <pt x="323" y="95" on="1"/>
        <pt x="288" y="122" on="0"/>
        <pt x="258" y="167" on="0"/>
      </contour>
    </TTGlyph>
    <TTGlyph name="F" xMin="21" yMin="-20" xMax="1024" yMax="1549">
      <contour>
        <pt x="97" y="311" on="1"/>
        <pt x="330" y="311" on="1"/>
        <pt x="22" y="1253" on="1"/>
        <pt x="21" y="1258" on="0"/>
        <pt x="21" y="1269" on="0"/>
        <pt x="21" y="1275" on="1"/>
        <pt x="21" y="1306" on="0"/>
        <pt x="36" y="1379" on="0"/>
        <pt x="64" y="1451" on="0"/>
        <pt x="103" y="1517" on="0"/>
        <pt x="127" y="1541" on="1"/>
        <pt x="576" y="1447" on="1"/>
        <pt x="930" y="1549" on="1"/>
        <pt x="954" y="1537" on="0"/>
        <pt x="989" y="1492" on="0"/>
        <pt x="1013" y="1434" on="0"/>
        <pt x="1024" y="1366" on="0"/>
        <pt x="1024" y="1330" on="1"/>
        <pt x="1024" y="1292" on="0"/>
        <pt x="1011" y="1215" on="0"/>
        <pt x="985" y="1148" on="0"/>
        <pt x="946" y="1092" on="0"/>
        <pt x="921" y="1075" on="1"/>
        <pt x="806" y="1092" on="0"/>
        <pt x="568" y="1148" on="0"/>
        <pt x="452" y="1181" on="1"/>
        <pt x="532" y="828" on="1"/>
        <pt x="600" y="838" on="0"/>
        <pt x="705" y="856" on="0"/>
        <pt x="798" y="874" on="0"/>
        <pt x="889" y="893" on="0"/>
        <pt x="942" y="904" on="1"/>
        <pt x="964" y="871" on="0"/>
        <pt x="983" y="787" on="0"/>
        <pt x="983" y="746" on="1"/>
        <pt x="983" y="714" on="0"/>
        <pt x="974" y="652" on="0"/>
        <pt x="959" y="600" on="0"/>
        <pt x="941" y="561" on="0"/>
        <pt x="932" y="552" on="1"/>
        <pt x="914" y="549" on="0"/>
        <pt x="877" y="547" on="0"/>
        <pt x="858" y="547" on="1"/>
        <pt x="779" y="547" on="0"/>
        <pt x="622" y="591" on="0"/>
        <pt x="550" y="632" on="1"/>
        <pt x="545" y="627" on="1"/>
        <pt x="563" y="575" on="0"/>
        <pt x="597" y="470" on="0"/>
        <pt x="620" y="362" on="0"/>
        <pt x="629" y="252" on="0"/>
        <pt x="624" y="194" on="1"/>
        <pt x="620" y="146" on="0"/>
        <pt x="553" y="67" on="0"/>
        <pt x="458" y="11" on="0"/>
        <pt x="350" y="-20" on="0"/>
        <pt x="305" y="-20" on="1"/>
        <pt x="258" y="-20" on="0"/>
        <pt x="172" y="19" on="0"/>
        <pt x="100" y="78" on="0"/>
        <pt x="47" y="145" on="0"/>
        <pt x="32" y="174" on="1"/>
      </contour>
    </TTGlyph>
    <TTGlyph name="G" xMin="83" yMin="-20" xMax="1148" yMax="1549">
      <contour>
        <pt x="233" y="95" on="1"/>
        <pt x="198" y="122" on="0"/>
        <pt x="170" y="167" on="0"/>
        <pt x="166" y="192" on="1"/>
        <pt x="164" y="231" on="0"/>
        <pt x="159" y="327" on="0"/>
        <pt x="153" y="435" on="0"/>
        <pt x="146" y="553" on="0"/>
        <pt x="142" y="613" on="1"/>
        <pt x="137" y="694" on="0"/>
        <pt x="124" y="854" on="0"/>
        <pt x="111" y="1000" on="0"/>
        <pt x="98" y="1125" on="0"/>
        <pt x="93" y="1171" on="1"/>
        <pt x="91" y="1184" on="0"/>
        <pt x="88" y="1219" on="0"/>
        <pt x="85" y="1253" on="0"/>
        <pt x="83" y="1280" on="0"/>
        <pt x="83" y="1286" on="1"/>
        <pt x="92" y="1321" on="0"/>
        <pt x="151" y="1400" on="0"/>
        <pt x="231" y="1473" on="0"/>
        <pt x="324" y="1532" on="0"/>
        <pt x="369" y="1549" on="1"/>
        <pt x="392" y="1546" on="0"/>
        <pt x="481" y="1523" on="0"/>
        <pt x="578" y="1493" on="0"/>
        <pt x="668" y="1462" on="0"/>
        <pt x="691" y="1450" on="1"/>
        <pt x="1034" y="1481" on="1"/>
        <pt x="1047" y="1417" on="0"/>
        <pt x="1047" y="1302" on="0"/>
        <pt x="1027" y="1202" on="0"/>
        <pt x="994" y="1119" on="0"/>
        <pt x="956" y="1057" on="0"/>
        <pt x="919" y="1017" on="0"/>
        <pt x="905" y="1010" on="1"/>
        <pt x="871" y="1017" on="0"/>
        <pt x="775" y="1051" on="0"/>
        <pt x="671" y="1099" on="0"/>
        <pt x="571" y="1159" on="0"/>
        <pt x="534" y="1192" on="1"/>
        <pt x="510" y="1170" on="1"/>
        <pt x="515" y="1121" on="0"/>
        <pt x="515" y="985" on="0"/>
        <pt x="510" y="829" on="0"/>
        <pt x="501" y="663" on="0"/>
        <pt x="489" y="506" on="0"/>
        <pt x="476" y="369" on="0"/>
        <pt x="470" y="320" on="1"/>
        <pt x="469" y="282" on="1"/>
        <pt x="472" y="282" on="1"/>
        <pt x="484" y="281" on="0"/>
        <pt x="527" y="304" on="0"/>
        <pt x="580" y="342" on="0"/>
        <pt x="638" y="389" on="0"/>
        <pt x="695" y="437" on="0"/>
        <pt x="746" y="481" on="0"/>
        <pt x="764" y="497" on="1"/>
        <pt x="744" y="556" on="0"/>
        <pt x="720" y="660" on="0"/>
        <pt x="707" y="743" on="0"/>
        <pt x="703" y="801" on="0"/>
        <pt x="703" y="815" on="1"/>
        <pt x="712" y="819" on="0"/>
        <pt x="745" y="829" on="0"/>
        <pt x="789" y="837" on="0"/>
        <pt x="842" y="842" on="0"/>
        <pt x="871" y="842" on="1"/>
        <pt x="964" y="842" on="0"/>
        <pt x="1096" y="783" on="0"/>
        <pt x="1148" y="720" on="1"/>
        <pt x="1050" y="499" on="1"/>
        <pt x="1114" y="23" on="1"/>
        <pt x="1103" y="15" on="0"/>
        <pt x="1069" y="0" on="0"/>
        <pt x="1029" y="-12" on="0"/>
        <pt x="986" y="-20" on="0"/>
        <pt x="965" y="-20" on="1"/>
        <pt x="902" y="-19" on="0"/>
        <pt x="783" y="10" on="0"/>
        <pt x="745" y="48" on="1"/>
        <pt x="747" y="81" on="0"/>
        <pt x="755" y="145" on="0"/>
        <pt x="765" y="215" on="0"/>
        <pt x="776" y="291" on="0"/>
        <pt x="781" y="336" on="1"/>
        <pt x="757" y="347" on="1"/>
        <pt x="744" y="316" on="0"/>
        <pt x="705" y="238" on="0"/>
        <pt x="657" y="156" on="0"/>
        <pt x="602" y="78" on="0"/>
        <pt x="541" y="17" on="0"/>
        <pt x="478" y="-20" on="0"/>
        <pt x="446" y="-20" on="1"/>
        <pt x="423" y="-20" on="0"/>
        <pt x="379" y="-3" on="0"/>
        <pt x="359" y="11" on="1"/>
        <pt x="324" y="29" on="0"/>
        <pt x="258" y="75" on="0"/>
      </contour>
    </TTGlyph>
    <TTGlyph name="Gbreve" xMin="83" yMin="-20" xMax="1148" yMax="2019">
      <component glyphName="G" x="0" y="0" flags="0x204"/>
      <component glyphName="breve.cap" x="231" y="0" flags="0x4"/>
    </TTGlyph>
    <TTGlyph name="Gcaron" xMin="83" yMin="-20" xMax="1148" yMax="2020">
      <component glyphName="G" x="0" y="0" flags="0x204"/>
      <component glyphName="caron.cap" x="173" y="0" flags="0x4"/>
    </TTGlyph>
    <TTGlyph name="Gcircumflex" xMin="83" yMin="-20" xMax="1148" yMax="2007">
      <component glyphName="G" x="0" y="0" flags="0x204"/>
      <component glyphName="circumflex.cap" x="193" y="0" flags="0x4"/>
    </TTGlyph>
    <TTGlyph name="Gcommaaccent" xMin="83" yMin="-537" xMax="1148" yMax="1549">
      <component glyphName="G" x="0" y="0" flags="0x204"/>
      <component glyphName="commaaccent" x="390" y="0" flags="0x4"/>
    </TTGlyph>
    <TTGlyph name="Gdotaccent" xMin="83" yMin="-20" xMax="1148" yMax="2000">
      <component glyphName="G" x="0" y="0" flags="0x204"/>
      <component glyphName="dotaccent.cap" x="399" y="0" flags="0x4"/>
    </TTGlyph>
    <TTGlyph name="Gtilde" xMin="83" yMin="-20" xMax="1148" yMax="2020">
      <component glyphName="G" x="0" y="0" flags="0x204"/>
      <component glyphName="tilde.cap" x="202" y="0" flags="0x4"/>
    </TTGlyph>
    <TTGlyph name="H" xMin="82" yMin="-20" xMax="1309" yMax="1530">
      <contour>
        <pt x="133" y="62" on="1"/>
        <pt x="137" y="135" on="0"/>
        <pt x="154" y="299" on="0"/>
        <pt x="180" y="458" on="0"/>
        <pt x="212" y="602" on="0"/>
        <pt x="230" y="656" on="1"/>
        <pt x="204" y="735" on="0"/>
        <pt x="161" y="928" on="0"/>
        <pt x="125" y="1128" on="0"/>
        <pt x="95" y="1320" on="0"/>
        <pt x="82" y="1399" on="1"/>
        <pt x="96" y="1420" on="0"/>
        <pt x="157" y="1466" on="0"/>
        <pt x="241" y="1504" on="0"/>
        <pt x="344" y="1529" on="0"/>
        <pt x="400" y="1529" on="1"/>
        <pt x="448" y="1529" on="0"/>
        <pt x="530" y="1511" on="0"/>
        <pt x="566" y="1489" on="1"/>
        <pt x="507" y="800" on="1"/>
        <pt x="542" y="806" on="0"/>
        <pt x="630" y="818" on="0"/>
        <pt x="721" y="830" on="0"/>
        <pt x="806" y="841" on="0"/>
        <pt x="838" y="844" on="1"/>
        <pt x="821" y="914" on="0"/>
        <pt x="789" y="1062" on="0"/>
        <pt x="761" y="1206" on="0"/>
        <pt x="738" y="1341" on="0"/>
        <pt x="730" y="1400" on="1"/>
        <pt x="745" y="1421" on="0"/>
        <pt x="805" y="1467" on="0"/>
        <pt x="889" y="1505" on="0"/>
        <pt x="991" y="1530" on="0"/>
        <pt x="1047" y="1530" on="1"/>
        <pt x="1095" y="1530" on="0"/>
        <pt x="1181" y="1512" on="0"/>
        <pt x="1216" y="1490" on="1"/>
        <pt x="1138" y="316" on="1"/>
        <pt x="1274" y="319" on="1"/>
        <pt x="1309" y="177" on="1"/>
        <pt x="1297" y="147" on="0"/>
        <pt x="1248" y="78" on="0"/>
        <pt x="1179" y="19" on="0"/>
        <pt x="1092" y="-20" on="0"/>
        <pt x="1043" y="-20" on="1"/>
        <pt x="990" y="-20" on="0"/>
        <pt x="902" y="14" on="0"/>
        <pt x="838" y="78" on="0"/>
        <pt x="802" y="170" on="0"/>
        <pt x="801" y="228" on="1"/>
        <pt x="799" y="316" on="0"/>
        <pt x="825" y="487" on="0"/>
        <pt x="839" y="581" on="1"/>
        <pt x="802" y="583" on="0"/>
        <pt x="708" y="589" on="0"/>
        <pt x="612" y="596" on="0"/>
        <pt x="523" y="603" on="0"/>
        <pt x="491" y="608" on="1"/>
        <pt x="491" y="607" on="1"/>
        <pt x="504" y="546" on="0"/>
        <pt x="525" y="400" on="0"/>
        <pt x="541" y="245" on="0"/>
        <pt x="554" y="90" on="0"/>
        <pt x="558" y="19" on="1"/>
        <pt x="526" y="-2" on="0"/>
        <pt x="445" y="-20" on="0"/>
        <pt x="391" y="-20" on="1"/>
        <pt x="301" y="-20" on="0"/>
        <pt x="173" y="24" on="0"/>
      </contour>
    </TTGlyph>
    <TTGlyph name="Hbar" xMin="6" yMin="-20" xMax="1357" yMax="1530">
      <contour>
        <pt x="133" y="62" on="1"/>
        <pt x="137" y="135" on="0"/>
        <pt x="154" y="299" on="0"/>
        <pt x="180" y="458" on="0"/>
        <pt x="212" y="602" on="0"/>
        <pt x="230" y="656" on="1"/>
        <pt x="206" y="728" on="0"/>
        <pt x="167" y="899" on="0"/>
        <pt x="150" y="990" on="1"/>
        <pt x="116" y="991" on="0"/>
        <pt x="56" y="991" on="0"/>
        <pt x="31" y="993" on="1"/>
        <pt x="22" y="1017" on="0"/>
        <pt x="10" y="1054" on="0"/>
        <pt x="6" y="1087" on="0"/>
        <pt x="10" y="1124" on="0"/>
        <pt x="17" y="1148" on="1"/>
        <pt x="119" y="1166" on="1"/>
        <pt x="82" y="1399" on="1"/>
        <pt x="96" y="1420" on="0"/>
        <pt x="157" y="1466" on="0"/>
        <pt x="241" y="1504" on="0"/>
        <pt x="344" y="1529" on="0"/>
        <pt x="400" y="1529" on="1"/>
        <pt x="448" y="1529" on="0"/>
        <pt x="530" y="1511" on="0"/>
        <pt x="566" y="1489" on="1"/>
        <pt x="543" y="1217" on="1"/>
        <pt x="756" y="1234" on="1"/>
        <pt x="748" y="1279" on="0"/>
        <pt x="735" y="1362" on="0"/>
        <pt x="730" y="1400" on="1"/>
        <pt x="745" y="1421" on="0"/>
        <pt x="805" y="1467" on="0"/>
        <pt x="889" y="1505" on="0"/>
        <pt x="991" y="1530" on="0"/>
        <pt x="1047" y="1530" on="1"/>
        <pt x="1095" y="1530" on="0"/>
        <pt x="1181" y="1512" on="0"/>
        <pt x="1216" y="1490" on="1"/>
        <pt x="1201" y="1270" on="1"/>
        <pt x="1328" y="1280" on="1"/>
        <pt x="1346" y="1251" on="0"/>
        <pt x="1357" y="1184" on="0"/>
        <pt x="1350" y="1114" on="0"/>
        <pt x="1326" y="1042" on="0"/>
        <pt x="1309" y="1009" on="1"/>
        <pt x="1298" y="1008" on="0"/>
        <pt x="1233" y="1006" on="0"/>
        <pt x="1184" y="1004" on="1"/>
        <pt x="1138" y="316" on="1"/>
        <pt x="1274" y="319" on="1"/>
        <pt x="1309" y="177" on="1"/>
        <pt x="1297" y="147" on="0"/>
        <pt x="1248" y="78" on="0"/>
        <pt x="1179" y="19" on="0"/>
        <pt x="1092" y="-20" on="0"/>
        <pt x="1043" y="-20" on="1"/>
        <pt x="990" y="-20" on="0"/>
        <pt x="902" y="14" on="0"/>
        <pt x="838" y="78" on="0"/>
        <pt x="802" y="170" on="0"/>
        <pt x="801" y="228" on="1"/>
        <pt x="799" y="316" on="0"/>
        <pt x="825" y="487" on="0"/>
        <pt x="839" y="581" on="1"/>
        <pt x="802" y="583" on="0"/>
        <pt x="708" y="589" on="0"/>
        <pt x="612" y="596" on="0"/>
        <pt x="523" y="603" on="0"/>
        <pt x="491" y="608" on="1"/>
        <pt x="491" y="607" on="1"/>
        <pt x="504" y="546" on="0"/>
        <pt x="525" y="400" on="0"/>
        <pt x="541" y="245" on="0"/>
        <pt x="554" y="90" on="0"/>
        <pt x="558" y="19" on="1"/>
        <pt x="526" y="-2" on="0"/>
        <pt x="445" y="-20" on="0"/>
        <pt x="391" y="-20" on="1"/>
        <pt x="301" y="-20" on="0"/>
        <pt x="173" y="24" on="0"/>
      </contour>
      <contour>
        <pt x="507" y="800" on="1"/>
        <pt x="542" y="806" on="0"/>
        <pt x="630" y="818" on="0"/>
        <pt x="721" y="830" on="0"/>
        <pt x="806" y="841" on="0"/>
        <pt x="838" y="844" on="1"/>
        <pt x="829" y="881" on="0"/>
        <pt x="811" y="957" on="0"/>
        <pt x="803" y="995" on="1"/>
        <pt x="734" y="993" on="0"/>
        <pt x="594" y="991" on="0"/>
        <pt x="523" y="990" on="1"/>
      </contour>
    </TTGlyph>
    <TTGlyph name="Hcircumflex" xMin="82" yMin="-20" xMax="1309" yMax="2007">
      <component glyphName="H" x="0" y="0" flags="0x204"/>
      <component glyphName="circumflex.cap" x="229" y="0" flags="0x4"/>
    </TTGlyph>
    <TTGlyph name="I" xMin="82" yMin="-20" xMax="566" yMax="1529">
      <contour>
        <pt x="133" y="62" on="1"/>
        <pt x="137" y="135" on="0"/>
        <pt x="154" y="299" on="0"/>
        <pt x="180" y="458" on="0"/>
        <pt x="212" y="602" on="0"/>
        <pt x="230" y="656" on="1"/>
        <pt x="204" y="735" on="0"/>
        <pt x="161" y="928" on="0"/>
        <pt x="125" y="1128" on="0"/>
        <pt x="95" y="1320" on="0"/>
        <pt x="82" y="1399" on="1"/>
        <pt x="96" y="1420" on="0"/>
        <pt x="157" y="1466" on="0"/>
        <pt x="241" y="1504" on="0"/>
        <pt x="344" y="1529" on="0"/>
        <pt x="400" y="1529" on="1"/>
        <pt x="448" y="1529" on="0"/>
        <pt x="530" y="1511" on="0"/>
        <pt x="566" y="1489" on="1"/>
        <pt x="488" y="583" on="1"/>
        <pt x="501" y="522" on="0"/>
        <pt x="523" y="383" on="0"/>
        <pt x="541" y="238" on="0"/>
        <pt x="554" y="90" on="0"/>
        <pt x="558" y="19" on="1"/>
        <pt x="526" y="-2" on="0"/>
        <pt x="445" y="-20" on="0"/>
        <pt x="391" y="-20" on="1"/>
        <pt x="301" y="-20" on="0"/>
        <pt x="173" y="24" on="0"/>
      </contour>
    </TTGlyph>
    <TTGlyph name="IJ" xMin="82" yMin="-160" xMax="1639" yMax="1549">
      <component glyphName="I" x="0" y="0" flags="0x4"/>
      <component glyphName="J" x="666" y="0" flags="0x4"/>
    </TTGlyph>
    <TTGlyph name="IJ_acutecomb" xMin="82" yMin="-160" xMax="1639" yMax="2020">
      <component glyphName="I" x="0" y="0" flags="0x4"/>
      <component glyphName="acute.cap" x="860" y="0" flags="0x4"/>
      <component glyphName="J" x="666" y="0" flags="0x4"/>
      <component glyphName="acute.cap" x="32" y="0" flags="0x4"/>
    </TTGlyph>
    <TTGlyph name="Iacute" xMin="82" yMin="-20" xMax="655" yMax="2020">
      <component glyphName="I" x="0" y="0" flags="0x204"/>
      <component glyphName="acute.cap" x="32" y="0" flags="0x4"/>
    </TTGlyph>
    <TTGlyph name="Ibreve" xMin="-44" yMin="-20" xMax="708" yMax="2019">
      <component glyphName="I" x="0" y="0" flags="0x204"/>
      <component glyphName="breve.cap" x="-75" y="0" flags="0x4"/>
    </TTGlyph>
    <TTGlyph name="Icircumflex" xMin="-15" yMin="-20" xMax="695" yMax="2007">
      <component glyphName="I" x="0" y="0" flags="0x204"/>
      <component glyphName="circumflex.cap" x="-113" y="0" flags="0x4"/>
    </TTGlyph>
    <TTGlyph name="Idieresis" xMin="-99" yMin="-20" xMax="789" yMax="2020">
      <component glyphName="I" x="0" y="0" flags="0x204"/>
      <component glyphName="dieresis.cap" x="-189" y="0" flags="0x4"/>
    </TTGlyph>
    <TTGlyph name="Idotaccent" xMin="82" yMin="-20" xMax="566" yMax="2000">
      <component glyphName="I" x="0" y="0" flags="0x204"/>
      <component glyphName="dotaccent.cap" x="93" y="0" flags="0x4"/>
    </TTGlyph>
    <TTGlyph name="Igrave" xMin="-23" yMin="-20" xMax="566" yMax="2020">
      <component glyphName="I" x="0" y="0" flags="0x204"/>
      <component glyphName="grave.cap" x="-74" y="0" flags="0x4"/>
    </TTGlyph>
    <TTGlyph name="Imacron" xMin="-16" yMin="-20" xMax="703" yMax="1928">
      <component glyphName="I" x="0" y="0" flags="0x204"/>
      <component glyphName="macron.cap" x="-31" y="0" flags="0x4"/>
    </TTGlyph>
    <TTGlyph name="Iogonek" xMin="76" yMin="-438" xMax="585" yMax="1529">
      <contour>
        <pt x="133" y="62" on="1"/>
        <pt x="137" y="135" on="0"/>
        <pt x="154" y="299" on="0"/>
        <pt x="180" y="458" on="0"/>
        <pt x="212" y="602" on="0"/>
        <pt x="230" y="656" on="1"/>
        <pt x="204" y="735" on="0"/>
        <pt x="161" y="928" on="0"/>
        <pt x="125" y="1128" on="0"/>
        <pt x="95" y="1320" on="0"/>
        <pt x="82" y="1399" on="1"/>
        <pt x="96" y="1420" on="0"/>
        <pt x="157" y="1466" on="0"/>
        <pt x="241" y="1504" on="0"/>
        <pt x="344" y="1529" on="0"/>
        <pt x="400" y="1529" on="1"/>
        <pt x="448" y="1529" on="0"/>
        <pt x="530" y="1511" on="0"/>
        <pt x="566" y="1489" on="1"/>
        <pt x="488" y="583" on="1"/>
        <pt x="501" y="522" on="0"/>
        <pt x="523" y="383" on="0"/>
        <pt x="541" y="238" on="0"/>
        <pt x="554" y="90" on="0"/>
        <pt x="558" y="19" on="1"/>
        <pt x="536" y="5" on="0"/>
        <pt x="469" y="-37" on="0"/>
        <pt x="402" y="-87" on="0"/>
        <pt x="343" y="-143" on="0"/>
        <pt x="328" y="-170" on="1"/>
        <pt x="342" y="-183" on="1"/>
        <pt x="538" y="-116" on="1"/>
        <pt x="585" y="-243" on="1"/>
        <pt x="534" y="-342" on="0"/>
        <pt x="411" y="-438" on="0"/>
        <pt x="323" y="-438" on="1"/>
        <pt x="287" y="-438" on="0"/>
        <pt x="200" y="-398" on="0"/>
        <pt x="126" y="-336" on="0"/>
        <pt x="76" y="-261" on="0"/>
        <pt x="76" y="-225" on="1"/>
        <pt x="76" y="-194" on="0"/>
        <pt x="111" y="-135" on="0"/>
        <pt x="168" y="-79" on="0"/>
        <pt x="238" y="-29" on="0"/>
        <pt x="273" y="-7" on="1"/>
        <pt x="184" y="12" on="0"/>
      </contour>
    </TTGlyph>
    <TTGlyph name="Itilde" xMin="-93" yMin="-20" xMax="749" yMax="2020">
      <component glyphName="I" x="0" y="0" flags="0x204"/>
      <component glyphName="tilde.cap" x="-104" y="0" flags="0x4"/>
    </TTGlyph>
    <TTGlyph name="J" xMin="7" yMin="-160" xMax="973" yMax="1549">
      <contour>
        <pt x="94" y="-3" on="1"/>
        <pt x="94" y="19" on="0"/>
        <pt x="108" y="97" on="0"/>
        <pt x="133" y="181" on="0"/>
        <pt x="169" y="257" on="0"/>
        <pt x="190" y="276" on="1"/>
        <pt x="227" y="253" on="0"/>
        <pt x="322" y="191" on="0"/>
        <pt x="413" y="131" on="0"/>
        <pt x="488" y="85" on="0"/>
        <pt x="506" y="79" on="1"/>
        <pt x="441" y="726" on="1"/>
        <pt x="444" y="1159" on="1"/>
        <pt x="312" y="1176" on="1"/>
        <pt x="312" y="960" on="1"/>
        <pt x="146" y="924" on="1"/>
        <pt x="124" y="947" on="0"/>
        <pt x="75" y="1027" on="0"/>
        <pt x="34" y="1125" on="0"/>
        <pt x="7" y="1233" on="0"/>
        <pt x="7" y="1284" on="1"/>
        <pt x="7" y="1344" on="0"/>
        <pt x="42" y="1436" on="0"/>
        <pt x="102" y="1497" on="0"/>
        <pt x="182" y="1529" on="0"/>
        <pt x="227" y="1529" on="1"/>
        <pt x="269" y="1529" on="0"/>
        <pt x="379" y="1504" on="0"/>
        <pt x="492" y="1465" on="0"/>
        <pt x="594" y="1417" on="0"/>
        <pt x="628" y="1395" on="1"/>
        <pt x="642" y="1416" on="0"/>
        <pt x="686" y="1469" on="0"/>
        <pt x="743" y="1515" on="0"/>
        <pt x="810" y="1547" on="0"/>
        <pt x="848" y="1549" on="1"/>
        <pt x="876" y="1528" on="0"/>
        <pt x="922" y="1463" on="0"/>
        <pt x="955" y="1383" on="0"/>
        <pt x="973" y="1296" on="0"/>
        <pt x="973" y="1253" on="1"/>
        <pt x="973" y="1225" on="0"/>
        <pt x="965" y="1173" on="0"/>
        <pt x="957" y="1150" on="1"/>
        <pt x="943" y="1142" on="0"/>
        <pt x="896" y="1133" on="0"/>
        <pt x="871" y="1133" on="1"/>
        <pt x="845" y="1133" on="0"/>
        <pt x="796" y="1142" on="0"/>
        <pt x="782" y="1153" on="1"/>
        <pt x="777" y="1153" on="1"/>
        <pt x="715" y="818" on="1"/>
        <pt x="876" y="216" on="1"/>
        <pt x="860" y="154" on="0"/>
        <pt x="798" y="38" on="0"/>
        <pt x="709" y="-59" on="0"/>
        <pt x="597" y="-135" on="0"/>
        <pt x="531" y="-157" on="1"/>
        <pt x="510" y="-160" on="0"/>
        <pt x="488" y="-160" on="1"/>
        <pt x="432" y="-160" on="0"/>
        <pt x="308" y="-138" on="0"/>
        <pt x="197" y="-104" on="0"/>
        <pt x="112" y="-62" on="0"/>
        <pt x="96" y="-40" on="1"/>
        <pt x="95" y="-30" on="0"/>
        <pt x="94" y="-12" on="0"/>
      </contour>
    </TTGlyph>
    <TTGlyph name="Jcircumflex" xMin="7" yMin="-160" xMax="973" yMax="2007">
      <component glyphName="J" x="0" y="0" flags="0x204"/>
      <component glyphName="circumflex.cap" x="50" y="0" flags="0x4"/>
    </TTGlyph>
    <TTGlyph name="K" xMin="82" yMin="-20" xMax="1324" yMax="1549">
      <contour>
        <pt x="123" y="62" on="1"/>
        <pt x="127" y="135" on="0"/>
        <pt x="147" y="299" on="0"/>
        <pt x="176" y="458" on="0"/>
        <pt x="212" y="602" on="0"/>
        <pt x="230" y="656" on="1"/>
        <pt x="204" y="735" on="0"/>
        <pt x="161" y="928" on="0"/>
        <pt x="125" y="1128" on="0"/>
        <pt x="95" y="1320" on="0"/>
        <pt x="82" y="1399" on="1"/>
        <pt x="96" y="1420" on="0"/>
        <pt x="157" y="1466" on="0"/>
        <pt x="241" y="1504" on="0"/>
        <pt x="344" y="1529" on="0"/>
        <pt x="400" y="1529" on="1"/>
        <pt x="448" y="1529" on="0"/>
        <pt x="530" y="1511" on="0"/>
        <pt x="566" y="1489" on="1"/>
        <pt x="494" y="655" on="1"/>
        <pt x="600" y="667" on="1"/>
        <pt x="629" y="722" on="0"/>
        <pt x="696" y="864" on="0"/>
        <pt x="756" y="1007" on="0"/>
        <pt x="803" y="1138" on="0"/>
        <pt x="813" y="1183" on="1"/>
        <pt x="672" y="1233" on="1"/>
        <pt x="678" y="1286" on="0"/>
        <pt x="705" y="1386" on="0"/>
        <pt x="748" y="1470" on="0"/>
        <pt x="806" y="1532" on="0"/>
        <pt x="842" y="1549" on="1"/>
        <pt x="874" y="1549" on="0"/>
        <pt x="973" y="1531" on="0"/>
        <pt x="1083" y="1489" on="0"/>
        <pt x="1189" y="1421" on="0"/>
        <pt x="1228" y="1372" on="1"/>
        <pt x="1219" y="1296" on="0"/>
        <pt x="1148" y="1113" on="0"/>
        <pt x="1048" y="924" on="0"/>
        <pt x="931" y="741" on="0"/>
        <pt x="877" y="665" on="1"/>
        <pt x="893" y="635" on="0"/>
        <pt x="938" y="553" on="0"/>
        <pt x="989" y="469" on="0"/>
        <pt x="1044" y="392" on="0"/>
        <pt x="1071" y="366" on="1"/>
        <pt x="1105" y="378" on="0"/>
        <pt x="1173" y="424" on="0"/>
        <pt x="1206" y="452" on="1"/>
        <pt x="1324" y="350" on="1"/>
        <pt x="1324" y="311" on="0"/>
        <pt x="1307" y="231" on="0"/>
        <pt x="1280" y="157" on="0"/>
        <pt x="1246" y="93" on="0"/>
        <pt x="1230" y="69" on="1"/>
        <pt x="1199" y="24" on="0"/>
        <pt x="1108" y="-19" on="0"/>
        <pt x="1051" y="-19" on="1"/>
        <pt x="993" y="-19" on="0"/>
        <pt x="929" y="2" on="1"/>
        <pt x="899" y="11" on="0"/>
        <pt x="850" y="50" on="0"/>
        <pt x="810" y="103" on="0"/>
        <pt x="778" y="166" on="0"/>
        <pt x="765" y="201" on="1"/>
        <pt x="754" y="231" on="0"/>
        <pt x="735" y="300" on="0"/>
        <pt x="719" y="369" on="0"/>
        <pt x="707" y="435" on="0"/>
        <pt x="703" y="462" on="1"/>
        <pt x="653" y="465" on="0"/>
        <pt x="552" y="473" on="0"/>
        <pt x="508" y="478" on="1"/>
        <pt x="528" y="370" on="0"/>
        <pt x="561" y="132" on="0"/>
        <pt x="568" y="19" on="1"/>
        <pt x="536" y="-2" on="0"/>
        <pt x="445" y="-20" on="0"/>
        <pt x="391" y="-20" on="1"/>
        <pt x="301" y="-20" on="0"/>
        <pt x="163" y="24" on="0"/>
      </contour>
    </TTGlyph>
    <TTGlyph name="Kcommaaccent" xMin="82" yMin="-517" xMax="1324" yMax="1549">
      <component glyphName="K" x="0" y="0" flags="0x204"/>
      <component glyphName="commaaccent" x="470" y="20" flags="0x4"/>
    </TTGlyph>
    <TTGlyph name="L" xMin="55" yMin="-20" xMax="1111" yMax="1529">
      <contour>
        <pt x="258" y="-20" on="1"/>
        <pt x="226" y="-5" on="0"/>
        <pt x="158" y="67" on="0"/>
        <pt x="99" y="158" on="0"/>
        <pt x="58" y="257" on="0"/>
        <pt x="55" y="299" on="1"/>
        <pt x="144" y="423" on="1"/>
        <pt x="164" y="431" on="0"/>
        <pt x="215" y="437" on="0"/>
        <pt x="241" y="437" on="1"/>
        <pt x="273" y="437" on="1"/>
        <pt x="243" y="610" on="0"/>
        <pt x="210" y="897" on="0"/>
        <pt x="189" y="1134" on="0"/>
        <pt x="173" y="1324" on="0"/>
        <pt x="160" y="1399" on="1"/>
        <pt x="174" y="1420" on="0"/>
        <pt x="235" y="1466" on="0"/>
        <pt x="319" y="1504" on="0"/>
        <pt x="422" y="1529" on="0"/>
        <pt x="478" y="1529" on="1"/>
        <pt x="526" y="1529" on="0"/>
        <pt x="603" y="1511" on="0"/>
        <pt x="639" y="1489" on="1"/>
        <pt x="534" y="409" on="1"/>
        <pt x="547" y="408" on="1"/>
        <pt x="800" y="360" on="1"/>
        <pt x="895" y="649" on="1"/>
        <pt x="1079" y="625" on="1"/>
        <pt x="1085" y="608" on="0"/>
        <pt x="1097" y="554" on="0"/>
        <pt x="1106" y="486" on="0"/>
        <pt x="1111" y="409" on="0"/>
        <pt x="1111" y="369" on="1"/>
        <pt x="1111" y="298" on="0"/>
        <pt x="1090" y="159" on="0"/>
        <pt x="1034" y="49" on="0"/>
        <pt x="938" y="-20" on="0"/>
        <pt x="862" y="-20" on="1"/>
        <pt x="816" y="-20" on="0"/>
        <pt x="720" y="11" on="0"/>
        <pt x="627" y="60" on="0"/>
        <pt x="541" y="121" on="0"/>
        <pt x="504" y="150" on="1"/>
        <pt x="484" y="117" on="0"/>
        <pt x="435" y="57" on="0"/>
        <pt x="375" y="11" on="0"/>
        <pt x="301" y="-17" on="0"/>
      </contour>
    </TTGlyph>
    <TTGlyph name="Lacute" xMin="55" yMin="-20" xMax="1111" yMax="2020">
      <component glyphName="L" x="0" y="0" flags="0x204"/>
      <component glyphName="acute.cap" x="127" y="0" flags="0x4"/>
    </TTGlyph>
    <TTGlyph name="Lcaron" xMin="41" yMin="-20" xMax="1111" yMax="2020">
      <contour>
        <pt x="41" y="1804" on="1"/>
        <pt x="42" y="1822" on="0"/>
        <pt x="64" y="1867" on="0"/>
        <pt x="99" y="1912" on="0"/>
        <pt x="144" y="1954" on="0"/>
        <pt x="194" y="1986" on="0"/>
        <pt x="244" y="2004" on="0"/>
        <pt x="267" y="2002" on="1"/>
        <pt x="435" y="1804" on="1"/>
        <pt x="461" y="1842" on="0"/>
        <pt x="506" y="1900" on="0"/>
        <pt x="552" y="1950" on="0"/>
        <pt x="605" y="1995" on="0"/>
        <pt x="640" y="2020" on="1"/>
        <pt x="659" y="2012" on="0"/>
        <pt x="701" y="1982" on="0"/>
        <pt x="740" y="1945" on="0"/>
        <pt x="772" y="1906" on="0"/>
        <pt x="781" y="1888" on="1"/>
        <pt x="522" y="1622" on="1"/>
        <pt x="504" y="1619" on="0"/>
        <pt x="434" y="1612" on="0"/>
        <pt x="357" y="1609" on="0"/>
        <pt x="285" y="1610" on="0"/>
        <pt x="266" y="1614" on="1"/>
      </contour>
      <contour>
        <pt x="258" y="-20" on="1"/>
        <pt x="226" y="-5" on="0"/>
        <pt x="158" y="67" on="0"/>
        <pt x="99" y="158" on="0"/>
        <pt x="58" y="257" on="0"/>
        <pt x="55" y="299" on="1"/>
        <pt x="144" y="423" on="1"/>
        <pt x="164" y="431" on="0"/>
        <pt x="215" y="437" on="0"/>
        <pt x="241" y="437" on="1"/>
        <pt x="273" y="437" on="1"/>
        <pt x="243" y="610" on="0"/>
        <pt x="210" y="897" on="0"/>
        <pt x="189" y="1134" on="0"/>
        <pt x="173" y="1324" on="0"/>
        <pt x="160" y="1399" on="1"/>
        <pt x="174" y="1420" on="0"/>
        <pt x="235" y="1466" on="0"/>
        <pt x="319" y="1504" on="0"/>
        <pt x="422" y="1529" on="0"/>
        <pt x="478" y="1529" on="1"/>
        <pt x="526" y="1529" on="0"/>
        <pt x="603" y="1511" on="0"/>
        <pt x="639" y="1489" on="1"/>
        <pt x="534" y="409" on="1"/>
        <pt x="547" y="408" on="1"/>
        <pt x="800" y="360" on="1"/>
        <pt x="895" y="649" on="1"/>
        <pt x="1079" y="625" on="1"/>
        <pt x="1085" y="608" on="0"/>
        <pt x="1097" y="554" on="0"/>
        <pt x="1106" y="486" on="0"/>
        <pt x="1111" y="409" on="0"/>
        <pt x="1111" y="369" on="1"/>
        <pt x="1111" y="298" on="0"/>
        <pt x="1090" y="159" on="0"/>
        <pt x="1034" y="49" on="0"/>
        <pt x="938" y="-20" on="0"/>
        <pt x="862" y="-20" on="1"/>
        <pt x="816" y="-20" on="0"/>
        <pt x="720" y="11" on="0"/>
        <pt x="627" y="60" on="0"/>
        <pt x="541" y="121" on="0"/>
        <pt x="504" y="150" on="1"/>
        <pt x="484" y="117" on="0"/>
        <pt x="435" y="57" on="0"/>
        <pt x="375" y="11" on="0"/>
        <pt x="301" y="-17" on="0"/>
      </contour>
    </TTGlyph>
    <TTGlyph name="Lcommaaccent" xMin="55" yMin="-537" xMax="1111" yMax="1529">
      <component glyphName="L" x="0" y="0" flags="0x204"/>
      <component glyphName="commaaccent" x="345" y="0" flags="0x4"/>
    </TTGlyph>
    <TTGlyph name="Ldot" xMin="55" yMin="-20" xMax="1209" yMax="1529">
      <component glyphName="L" x="0" y="0" flags="0x204"/>
      <component glyphName="dotaccent" x="743" y="-479" flags="0x4"/>
    </TTGlyph>
    <TTGlyph name="Lslash" xMin="55" yMin="-20" xMax="1111" yMax="1529">
      <contour>
        <pt x="258" y="-20" on="1"/>
        <pt x="226" y="-5" on="0"/>
        <pt x="158" y="67" on="0"/>
        <pt x="99" y="158" on="0"/>
        <pt x="58" y="257" on="0"/>
        <pt x="55" y="299" on="1"/>
        <pt x="144" y="423" on="1"/>
        <pt x="164" y="431" on="0"/>
        <pt x="215" y="437" on="0"/>
        <pt x="241" y="437" on="1"/>
        <pt x="273" y="437" on="1"/>
        <pt x="266" y="477" on="0"/>
        <pt x="253" y="553" on="0"/>
        <pt x="248" y="590" on="1"/>
        <pt x="135" y="542" on="1"/>
        <pt x="119" y="551" on="0"/>
        <pt x="93" y="589" on="0"/>
        <pt x="75" y="637" on="0"/>
        <pt x="63" y="690" on="0"/>
        <pt x="61" y="713" on="1"/>
        <pt x="222" y="794" on="1"/>
        <pt x="210" y="894" on="0"/>
        <pt x="195" y="1068" on="0"/>
        <pt x="182" y="1218" on="0"/>
        <pt x="169" y="1345" on="0"/>
        <pt x="160" y="1399" on="1"/>
        <pt x="174" y="1420" on="0"/>
        <pt x="235" y="1466" on="0"/>
        <pt x="319" y="1504" on="0"/>
        <pt x="422" y="1529" on="0"/>
        <pt x="478" y="1529" on="1"/>
        <pt x="526" y="1529" on="0"/>
        <pt x="603" y="1511" on="0"/>
        <pt x="639" y="1489" on="1"/>
        <pt x="589" y="980" on="1"/>
        <pt x="851" y="1112" on="1"/>
        <pt x="869" y="1101" on="0"/>
        <pt x="890" y="1047" on="0"/>
        <pt x="899" y="978" on="0"/>
        <pt x="897" y="900" on="0"/>
        <pt x="891" y="866" on="1"/>
        <pt x="565" y="726" on="1"/>
        <pt x="534" y="409" on="1"/>
        <pt x="547" y="408" on="1"/>
        <pt x="800" y="360" on="1"/>
        <pt x="895" y="649" on="1"/>
        <pt x="1079" y="625" on="1"/>
        <pt x="1085" y="608" on="0"/>
        <pt x="1097" y="554" on="0"/>
        <pt x="1106" y="486" on="0"/>
        <pt x="1111" y="409" on="0"/>
        <pt x="1111" y="369" on="1"/>
        <pt x="1111" y="298" on="0"/>
        <pt x="1090" y="159" on="0"/>
        <pt x="1034" y="49" on="0"/>
        <pt x="938" y="-20" on="0"/>
        <pt x="862" y="-20" on="1"/>
        <pt x="816" y="-20" on="0"/>
        <pt x="720" y="11" on="0"/>
        <pt x="627" y="60" on="0"/>
        <pt x="541" y="121" on="0"/>
        <pt x="504" y="150" on="1"/>
        <pt x="484" y="117" on="0"/>
        <pt x="435" y="57" on="0"/>
        <pt x="375" y="11" on="0"/>
        <pt x="301" y="-17" on="0"/>
      </contour>
    </TTGlyph>
    <TTGlyph name="M" xMin="37" yMin="-20" xMax="1829" yMax="1549">
      <contour>
        <pt x="82" y="305" on="1"/>
        <pt x="192" y="296" on="1"/>
        <pt x="193" y="305" on="1"/>
        <pt x="262" y="1175" on="1"/>
        <pt x="93" y="1226" on="1"/>
        <pt x="96" y="1271" on="0"/>
        <pt x="116" y="1363" on="0"/>
        <pt x="158" y="1449" on="0"/>
        <pt x="227" y="1522" on="0"/>
        <pt x="280" y="1549" on="1"/>
        <pt x="303" y="1546" on="0"/>
        <pt x="380" y="1528" on="0"/>
        <pt x="474" y="1501" on="0"/>
        <pt x="578" y="1465" on="0"/>
        <pt x="679" y="1422" on="0"/>
        <pt x="771" y="1372" on="0"/>
        <pt x="806" y="1346" on="1"/>
        <pt x="978" y="556" on="1"/>
        <pt x="986" y="557" on="1"/>
        <pt x="1012" y="777" on="1"/>
        <pt x="1021" y="832" on="0"/>
        <pt x="1043" y="953" on="0"/>
        <pt x="1064" y="1067" on="0"/>
        <pt x="1083" y="1166" on="0"/>
        <pt x="1090" y="1200" on="1"/>
        <pt x="1061" y="1212" on="0"/>
        <pt x="1011" y="1236" on="0"/>
        <pt x="992" y="1247" on="1"/>
        <pt x="996" y="1292" on="0"/>
        <pt x="1026" y="1383" on="0"/>
        <pt x="1080" y="1464" on="0"/>
        <pt x="1156" y="1529" on="0"/>
        <pt x="1207" y="1549" on="1"/>
        <pt x="1234" y="1545" on="0"/>
        <pt x="1315" y="1518" on="0"/>
        <pt x="1411" y="1478" on="0"/>
        <pt x="1512" y="1428" on="0"/>
        <pt x="1605" y="1375" on="0"/>
        <pt x="1680" y="1322" on="0"/>
        <pt x="1702" y="1299" on="1"/>
        <pt x="1700" y="1249" on="0"/>
        <pt x="1694" y="1111" on="0"/>
        <pt x="1685" y="947" on="0"/>
        <pt x="1671" y="764" on="0"/>
        <pt x="1652" y="577" on="0"/>
        <pt x="1627" y="391" on="0"/>
        <pt x="1611" y="307" on="1"/>
        <pt x="1797" y="334" on="1"/>
        <pt x="1829" y="168" on="1"/>
        <pt x="1821" y="156" on="0"/>
        <pt x="1788" y="94" on="0"/>
        <pt x="1729" y="30" on="0"/>
        <pt x="1639" y="-20" on="0"/>
        <pt x="1575" y="-20" on="1"/>
        <pt x="1531" y="-20" on="0"/>
        <pt x="1450" y="4" on="0"/>
        <pt x="1385" y="53" on="0"/>
        <pt x="1342" y="126" on="0"/>
        <pt x="1336" y="174" on="1"/>
        <pt x="1333" y="198" on="0"/>
        <pt x="1327" y="268" on="0"/>
        <pt x="1322" y="352" on="0"/>
        <pt x="1317" y="446" on="0"/>
        <pt x="1315" y="494" on="1"/>
        <pt x="1310" y="582" on="0"/>
        <pt x="1305" y="773" on="0"/>
        <pt x="1304" y="954" on="0"/>
        <pt x="1305" y="1114" on="0"/>
        <pt x="1307" y="1171" on="1"/>
        <pt x="1288" y="1174" on="1"/>
        <pt x="1094" y="323" on="1"/>
        <pt x="1110" y="288" on="0"/>
        <pt x="1132" y="219" on="0"/>
        <pt x="1149" y="147" on="0"/>
        <pt x="1161" y="73" on="0"/>
        <pt x="1168" y="35" on="1"/>
        <pt x="1129" y="6" on="0"/>
        <pt x="1026" y="-19" on="0"/>
        <pt x="970" y="-19" on="1"/>
        <pt x="932" y="-19" on="0"/>
        <pt x="858" y="-8" on="0"/>
        <pt x="789" y="13" on="0"/>
        <pt x="729" y="43" on="0"/>
        <pt x="707" y="62" on="1"/>
        <pt x="707" y="77" on="0"/>
        <pt x="710" y="137" on="0"/>
        <pt x="719" y="204" on="0"/>
        <pt x="735" y="267" on="0"/>
        <pt x="748" y="286" on="1"/>
        <pt x="459" y="1175" on="1"/>
        <pt x="440" y="1168" on="1"/>
        <pt x="445" y="1143" on="0"/>
        <pt x="464" y="1024" on="0"/>
        <pt x="487" y="862" on="0"/>
        <pt x="510" y="674" on="0"/>
        <pt x="530" y="486" on="0"/>
        <pt x="544" y="313" on="0"/>
        <pt x="545" y="248" on="1"/>
        <pt x="546" y="194" on="0"/>
        <pt x="523" y="96" on="0"/>
        <pt x="469" y="23" on="0"/>
        <pt x="380" y="-20" on="0"/>
        <pt x="314" y="-20" on="1"/>
        <pt x="312" y="-20" on="1"/>
        <pt x="295" y="-20" on="1"/>
        <pt x="253" y="-19" on="0"/>
        <pt x="173" y="4" on="0"/>
        <pt x="104" y="46" on="0"/>
        <pt x="51" y="105" on="0"/>
        <pt x="37" y="142" on="1"/>
      </contour>
    </TTGlyph>
    <TTGlyph name="N" xMin="28" yMin="-21" xMax="1316" yMax="1549">
      <contour>
        <pt x="98" y="305" on="1"/>
        <pt x="209" y="296" on="1"/>
        <pt x="201" y="1175" on="1"/>
        <pt x="158" y="1178" on="0"/>
        <pt x="66" y="1202" on="0"/>
        <pt x="28" y="1226" on="1"/>
        <pt x="28" y="1271" on="0"/>
        <pt x="40" y="1363" on="0"/>
        <pt x="74" y="1448" on="0"/>
        <pt x="136" y="1522" on="0"/>
        <pt x="187" y="1549" on="1"/>
        <pt x="223" y="1544" on="0"/>
        <pt x="332" y="1522" on="0"/>
        <pt x="457" y="1483" on="0"/>
        <pt x="586" y="1425" on="0"/>
        <pt x="642" y="1385" on="1"/>
        <pt x="1030" y="391" on="1"/>
        <pt x="1034" y="395" on="1"/>
        <pt x="1026" y="440" on="0"/>
        <pt x="1005" y="564" on="0"/>
        <pt x="981" y="708" on="0"/>
        <pt x="955" y="867" on="0"/>
        <pt x="930" y="1024" on="0"/>
        <pt x="908" y="1174" on="0"/>
        <pt x="892" y="1303" on="0"/>
        <pt x="882" y="1402" on="0"/>
        <pt x="882" y="1430" on="1"/>
        <pt x="891" y="1450" on="0"/>
        <pt x="940" y="1486" on="0"/>
        <pt x="1007" y="1513" on="0"/>
        <pt x="1086" y="1529" on="0"/>
        <pt x="1126" y="1529" on="1"/>
        <pt x="1146" y="1529" on="0"/>
        <pt x="1192" y="1523" on="0"/>
        <pt x="1237" y="1513" on="0"/>
        <pt x="1279" y="1496" on="0"/>
        <pt x="1294" y="1486" on="1"/>
        <pt x="1208" y="348" on="1"/>
        <pt x="1228" y="324" on="0"/>
        <pt x="1262" y="277" on="0"/>
        <pt x="1289" y="226" on="0"/>
        <pt x="1310" y="167" on="0"/>
        <pt x="1316" y="131" on="1"/>
        <pt x="1299" y="91" on="0"/>
        <pt x="1245" y="33" on="0"/>
        <pt x="1176" y="-4" on="0"/>
        <pt x="1094" y="-21" on="0"/>
        <pt x="1049" y="-21" on="1"/>
        <pt x="1015" y="-21" on="0"/>
        <pt x="936" y="-12" on="0"/>
        <pt x="860" y="5" on="0"/>
        <pt x="792" y="31" on="0"/>
        <pt x="770" y="49" on="1"/>
        <pt x="767" y="65" on="0"/>
        <pt x="767" y="93" on="1"/>
        <pt x="767" y="111" on="0"/>
        <pt x="770" y="152" on="0"/>
        <pt x="776" y="193" on="0"/>
        <pt x="786" y="231" on="0"/>
        <pt x="793" y="245" on="1"/>
        <pt x="356" y="1170" on="1"/>
        <pt x="351" y="1168" on="1"/>
        <pt x="358" y="1143" on="0"/>
        <pt x="391" y="1024" on="0"/>
        <pt x="432" y="862" on="0"/>
        <pt x="477" y="674" on="0"/>
        <pt x="518" y="486" on="0"/>
        <pt x="549" y="313" on="0"/>
        <pt x="556" y="248" on="1"/>
        <pt x="557" y="237" on="0"/>
        <pt x="558" y="214" on="0"/>
        <pt x="558" y="203" on="1"/>
        <pt x="558" y="156" on="0"/>
        <pt x="535" y="75" on="0"/>
        <pt x="484" y="15" on="0"/>
        <pt x="403" y="-20" on="0"/>
        <pt x="346" y="-20" on="1"/>
        <pt x="301" y="-20" on="0"/>
        <pt x="216" y="3" on="0"/>
        <pt x="143" y="45" on="0"/>
        <pt x="85" y="105" on="0"/>
        <pt x="67" y="142" on="1"/>
      </contour>
    </TTGlyph>
    <TTGlyph name="Nacute" xMin="28" yMin="-21" xMax="1316" yMax="2020">
      <component glyphName="N" x="0" y="0" flags="0x204"/>
      <component glyphName="acute.cap" x="425" y="0" flags="0x4"/>
    </TTGlyph>
    <TTGlyph name="Ncaron" xMin="28" yMin="-21" xMax="1316" yMax="2020">
      <component glyphName="N" x="0" y="0" flags="0x204"/>
      <component glyphName="caron.cap" x="260" y="0" flags="0x4"/>
    </TTGlyph>
    <TTGlyph name="Ncommaaccent" xMin="28" yMin="-537" xMax="1316" yMax="1549">
      <component glyphName="N" x="0" y="0" flags="0x204"/>
      <component glyphName="commaaccent" x="429" y="0" flags="0x4"/>
    </TTGlyph>
    <TTGlyph name="Ntilde" xMin="28" yMin="-21" xMax="1316" yMax="2020">
      <component glyphName="N" x="0" y="0" flags="0x204"/>
      <component glyphName="tilde.cap" x="335" y="0" flags="0x4"/>
    </TTGlyph>
    <TTGlyph name="O" xMin="102" yMin="-21" xMax="1189" yMax="1549">
      <contour>
        <pt x="185" y="147" on="1"/>
        <pt x="176" y="207" on="0"/>
        <pt x="156" y="364" on="0"/>
        <pt x="138" y="537" on="0"/>
        <pt x="121" y="718" on="0"/>
        <pt x="109" y="886" on="0"/>
        <pt x="102" y="1030" on="0"/>
        <pt x="102" y="1081" on="1"/>
        <pt x="102" y="1108" on="0"/>
        <pt x="103" y="1181" on="0"/>
        <pt x="109" y="1255" on="0"/>
        <pt x="124" y="1319" on="0"/>
        <pt x="138" y="1337" on="1"/>
        <pt x="157" y="1361" on="0"/>
        <pt x="234" y="1412" on="0"/>
        <pt x="332" y="1459" on="0"/>
        <pt x="439" y="1500" on="0"/>
        <pt x="535" y="1531" on="0"/>
        <pt x="611" y="1549" on="0"/>
        <pt x="628" y="1549" on="1"/>
        <pt x="652" y="1549" on="0"/>
        <pt x="739" y="1531" on="0"/>
        <pt x="844" y="1500" on="0"/>
        <pt x="959" y="1457" on="0"/>
        <pt x="1064" y="1406" on="0"/>
        <pt x="1149" y="1350" on="0"/>
        <pt x="1173" y="1321" on="1"/>
        <pt x="1176" y="1291" on="0"/>
        <pt x="1182" y="1236" on="0"/>
        <pt x="1187" y="1176" on="0"/>
        <pt x="1189" y="1106" on="0"/>
        <pt x="1189" y="1060" on="1"/>
        <pt x="1189" y="1005" on="0"/>
        <pt x="1181" y="853" on="0"/>
        <pt x="1168" y="682" on="0"/>
        <pt x="1150" y="505" on="0"/>
        <pt x="1131" y="348" on="0"/>
        <pt x="1110" y="224" on="0"/>
        <pt x="1101" y="190" on="1"/>
        <pt x="1095" y="168" on="0"/>
        <pt x="1058" y="131" on="0"/>
        <pt x="1008" y="98" on="0"/>
        <pt x="952" y="70" on="0"/>
        <pt x="929" y="58" on="1"/>
        <pt x="860" y="23" on="0"/>
        <pt x="753" y="-16" on="0"/>
        <pt x="699" y="-21" on="1"/>
        <pt x="662" y="-19" on="0"/>
        <pt x="569" y="-3" on="0"/>
        <pt x="470" y="21" on="0"/>
        <pt x="370" y="52" on="0"/>
        <pt x="280" y="88" on="0"/>
        <pt x="207" y="127" on="0"/>
      </contour>
      <contour>
        <pt x="500" y="331" on="1"/>
        <pt x="521" y="319" on="0"/>
        <pt x="576" y="291" on="0"/>
        <pt x="637" y="265" on="0"/>
        <pt x="699" y="244" on="0"/>
        <pt x="725" y="238" on="1"/>
        <pt x="786" y="280" on="1"/>
        <pt x="792" y="336" on="0"/>
        <pt x="797" y="495" on="0"/>
        <pt x="797" y="586" on="1"/>
        <pt x="797" y="659" on="0"/>
        <pt x="794" y="808" on="0"/>
        <pt x="789" y="947" on="0"/>
        <pt x="781" y="1070" on="0"/>
        <pt x="777" y="1118" on="1"/>
        <pt x="566" y="1209" on="1"/>
        <pt x="497" y="1174" on="1"/>
        <pt x="494" y="1141" on="0"/>
        <pt x="490" y="1053" on="0"/>
        <pt x="487" y="952" on="0"/>
        <pt x="486" y="842" on="0"/>
        <pt x="486" y="786" on="1"/>
        <pt x="486" y="721" on="0"/>
        <pt x="488" y="594" on="0"/>
        <pt x="491" y="477" on="0"/>
        <pt x="496" y="373" on="0"/>
      </contour>
    </TTGlyph>
    <TTGlyph name="OE" xMin="96" yMin="-21" xMax="1731" yMax="1549">
      <contour>
        <pt x="173" y="147" on="1"/>
        <pt x="164" y="207" on="0"/>
        <pt x="145" y="364" on="0"/>
        <pt x="128" y="537" on="0"/>
        <pt x="113" y="718" on="0"/>
        <pt x="102" y="886" on="0"/>
        <pt x="96" y="1030" on="0"/>
        <pt x="96" y="1081" on="1"/>
        <pt x="96" y="1108" on="0"/>
        <pt x="97" y="1181" on="0"/>
        <pt x="103" y="1255" on="0"/>
        <pt x="118" y="1319" on="0"/>
        <pt x="132" y="1337" on="1"/>
        <pt x="151" y="1361" on="0"/>
        <pt x="230" y="1412" on="0"/>
        <pt x="329" y="1459" on="0"/>
        <pt x="438" y="1500" on="0"/>
        <pt x="537" y="1531" on="0"/>
        <pt x="614" y="1549" on="0"/>
        <pt x="631" y="1549" on="1"/>
        <pt x="657" y="1549" on="0"/>
        <pt x="750" y="1529" on="0"/>
        <pt x="862" y="1494" on="0"/>
        <pt x="981" y="1446" on="0"/>
        <pt x="1034" y="1419" on="1"/>
        <pt x="1222" y="1455" on="1"/>
        <pt x="1591" y="1549" on="1"/>
        <pt x="1616" y="1535" on="0"/>
        <pt x="1652" y="1489" on="0"/>
        <pt x="1675" y="1432" on="0"/>
        <pt x="1686" y="1365" on="0"/>
        <pt x="1686" y="1331" on="1"/>
        <pt x="1686" y="1251" on="0"/>
        <pt x="1629" y="1113" on="0"/>
        <pt x="1579" y="1075" on="1"/>
        <pt x="1498" y="1084" on="0"/>
        <pt x="1302" y="1127" on="0"/>
        <pt x="1184" y="1160" on="1"/>
        <pt x="1185" y="1138" on="0"/>
        <pt x="1186" y="1089" on="0"/>
        <pt x="1186" y="1060" on="1"/>
        <pt x="1186" y="1019" on="0"/>
        <pt x="1182" y="916" on="0"/>
        <pt x="1178" y="856" on="1"/>
        <pt x="1245" y="864" on="0"/>
        <pt x="1356" y="881" on="0"/>
        <pt x="1456" y="899" on="0"/>
        <pt x="1552" y="919" on="0"/>
        <pt x="1604" y="930" on="1"/>
        <pt x="1626" y="897" on="0"/>
        <pt x="1644" y="819" on="0"/>
        <pt x="1644" y="778" on="1"/>
        <pt x="1644" y="746" on="0"/>
        <pt x="1635" y="684" on="0"/>
        <pt x="1620" y="632" on="0"/>
        <pt x="1602" y="593" on="0"/>
        <pt x="1593" y="584" on="1"/>
        <pt x="1563" y="581" on="0"/>
        <pt x="1533" y="581" on="1"/>
        <pt x="1488" y="581" on="0"/>
        <pt x="1390" y="589" on="0"/>
        <pt x="1293" y="605" on="0"/>
        <pt x="1201" y="632" on="0"/>
        <pt x="1162" y="652" on="1"/>
        <pt x="1154" y="561" on="0"/>
        <pt x="1134" y="389" on="0"/>
        <pt x="1123" y="320" on="1"/>
        <pt x="1431" y="300" on="1"/>
        <pt x="1513" y="490" on="1"/>
        <pt x="1693" y="475" on="1"/>
        <pt x="1709" y="433" on="0"/>
        <pt x="1731" y="306" on="0"/>
        <pt x="1731" y="239" on="1"/>
        <pt x="1731" y="181" on="0"/>
        <pt x="1699" y="86" on="0"/>
        <pt x="1635" y="18" on="0"/>
        <pt x="1541" y="-19" on="0"/>
        <pt x="1480" y="-19" on="1"/>
        <pt x="1345" y="-19" on="0"/>
        <pt x="1085" y="26" on="0"/>
        <pt x="957" y="70" on="1"/>
        <pt x="934" y="58" on="1"/>
        <pt x="864" y="23" on="0"/>
        <pt x="757" y="-16" on="0"/>
        <pt x="703" y="-21" on="1"/>
        <pt x="666" y="-19" on="0"/>
        <pt x="571" y="-3" on="0"/>
        <pt x="468" y="21" on="0"/>
        <pt x="363" y="52" on="0"/>
        <pt x="270" y="88" on="0"/>
        <pt x="195" y="127" on="0"/>
      </contour>
      <contour>
        <pt x="501" y="331" on="1"/>
        <pt x="522" y="319" on="0"/>
        <pt x="578" y="291" on="0"/>
        <pt x="640" y="265" on="0"/>
        <pt x="702" y="244" on="0"/>
        <pt x="729" y="238" on="1"/>
        <pt x="791" y="228" on="1"/>
        <pt x="794" y="256" on="0"/>
        <pt x="798" y="341" on="0"/>
        <pt x="801" y="439" on="0"/>
        <pt x="803" y="541" on="0"/>
        <pt x="803" y="586" on="1"/>
        <pt x="803" y="659" on="0"/>
        <pt x="800" y="808" on="0"/>
        <pt x="795" y="947" on="0"/>
        <pt x="787" y="1070" on="0"/>
        <pt x="783" y="1118" on="1"/>
        <pt x="569" y="1209" on="1"/>
        <pt x="498" y="1174" on="1"/>
        <pt x="495" y="1141" on="0"/>
        <pt x="490" y="1053" on="0"/>
        <pt x="487" y="952" on="0"/>
        <pt x="486" y="842" on="0"/>
        <pt x="486" y="786" on="1"/>
        <pt x="486" y="721" on="0"/>
        <pt x="488" y="594" on="0"/>
        <pt x="491" y="477" on="0"/>
        <pt x="497" y="373" on="0"/>
      </contour>
    </TTGlyph>
    <TTGlyph name="Oacute" xMin="102" yMin="-21" xMax="1189" yMax="2020">
      <component glyphName="O" x="0" y="0" flags="0x4"/>
      <component glyphName="acute.cap" x="350" y="0" flags="0x4"/>
    </TTGlyph>
    <TTGlyph name="Obreve" xMin="102" yMin="-21" xMax="1189" yMax="2019">
      <component glyphName="O" x="0" y="0" flags="0x4"/>
      <component glyphName="breve.cap" x="243" y="0" flags="0x4"/>
    </TTGlyph>
    <TTGlyph name="Ocircumflex" xMin="102" yMin="-21" xMax="1189" yMax="2007">
      <component glyphName="O" x="0" y="0" flags="0x4"/>
      <component glyphName="circumflex.cap" x="205" y="0" flags="0x4"/>
    </TTGlyph>
    <TTGlyph name="Odieresis" xMin="102" yMin="-21" xMax="1189" yMax="2020">
      <component glyphName="O" x="0" y="0" flags="0x4"/>
      <component glyphName="dieresis.cap" x="129" y="0" flags="0x4"/>
    </TTGlyph>
    <TTGlyph name="Ograve" xMin="102" yMin="-21" xMax="1189" yMax="2020">
      <component glyphName="O" x="0" y="0" flags="0x4"/>
      <component glyphName="grave.cap" x="244" y="0" flags="0x4"/>
    </TTGlyph>
    <TTGlyph name="Ohungarumlaut" xMin="102" yMin="-21" xMax="1209" yMax="2020">
      <component glyphName="O" x="0" y="0" flags="0x4"/>
      <component glyphName="hungarumlaut.cap" x="277" y="0" flags="0x4"/>
    </TTGlyph>
    <TTGlyph name="Omacron" xMin="102" yMin="-21" xMax="1189" yMax="1928">
      <component glyphName="O" x="0" y="0" flags="0x4"/>
      <component glyphName="macron.cap" x="287" y="0" flags="0x4"/>
    </TTGlyph>
    <TTGlyph name="Omega" xMin="19" yMin="-19" xMax="1500" yMax="1549">
      <contour>
        <pt x="239" y="-13" on="1"/>
        <pt x="174" y="-10" on="0"/>
        <pt x="75" y="51" on="0"/>
        <pt x="21" y="159" on="0"/>
        <pt x="19" y="312" on="0"/>
        <pt x="51" y="408" on="1"/>
        <pt x="201" y="441" on="1"/>
        <pt x="263" y="301" on="1"/>
        <pt x="483" y="275" on="1"/>
        <pt x="491" y="289" on="1"/>
        <pt x="413" y="352" on="0"/>
        <pt x="279" y="484" on="0"/>
        <pt x="221" y="557" on="1"/>
        <pt x="202" y="630" on="0"/>
        <pt x="178" y="755" on="0"/>
        <pt x="164" y="877" on="0"/>
        <pt x="159" y="1005" on="0"/>
        <pt x="159" y="1081" on="1"/>
        <pt x="159" y="1108" on="0"/>
        <pt x="160" y="1181" on="0"/>
        <pt x="166" y="1255" on="0"/>
        <pt x="181" y="1319" on="0"/>
        <pt x="195" y="1337" on="1"/>
        <pt x="214" y="1361" on="0"/>
        <pt x="293" y="1412" on="0"/>
        <pt x="392" y="1459" on="0"/>
        <pt x="501" y="1500" on="0"/>
        <pt x="600" y="1531" on="0"/>
        <pt x="677" y="1549" on="0"/>
        <pt x="694" y="1549" on="1"/>
        <pt x="719" y="1549" on="0"/>
        <pt x="814" y="1531" on="0"/>
        <pt x="933" y="1500" on="0"/>
        <pt x="1063" y="1457" on="0"/>
        <pt x="1180" y="1406" on="0"/>
        <pt x="1275" y="1350" on="0"/>
        <pt x="1299" y="1321" on="1"/>
        <pt x="1302" y="1291" on="0"/>
        <pt x="1308" y="1236" on="0"/>
        <pt x="1313" y="1176" on="0"/>
        <pt x="1315" y="1106" on="0"/>
        <pt x="1315" y="1060" on="1"/>
        <pt x="1315" y="954" on="0"/>
        <pt x="1287" y="727" on="0"/>
        <pt x="1258" y="625" on="1"/>
        <pt x="1200" y="550" on="0"/>
        <pt x="1074" y="417" on="0"/>
        <pt x="1005" y="358" on="1"/>
        <pt x="1008" y="342" on="1"/>
        <pt x="1236" y="353" on="1"/>
        <pt x="1326" y="505" on="1"/>
        <pt x="1464" y="477" on="1"/>
        <pt x="1477" y="442" on="0"/>
        <pt x="1498" y="344" on="0"/>
        <pt x="1500" y="238" on="0"/>
        <pt x="1475" y="131" on="0"/>
        <pt x="1442" y="86" on="1"/>
        <pt x="1404" y="35" on="0"/>
        <pt x="1310" y="-19" on="0"/>
        <pt x="1257" y="-19" on="1"/>
        <pt x="1210" y="-19" on="0"/>
        <pt x="1102" y="3" on="0"/>
        <pt x="994" y="38" on="0"/>
        <pt x="895" y="84" on="0"/>
        <pt x="858" y="108" on="1"/>
        <pt x="833" y="166" on="0"/>
        <pt x="801" y="317" on="0"/>
        <pt x="796" y="398" on="1"/>
        <pt x="904" y="590" on="1"/>
        <pt x="911" y="677" on="0"/>
        <pt x="917" y="815" on="0"/>
        <pt x="914" y="936" on="0"/>
        <pt x="904" y="1052" on="0"/>
        <pt x="896" y="1118" on="1"/>
        <pt x="632" y="1209" on="1"/>
        <pt x="561" y="1174" on="1"/>
        <pt x="555" y="1097" on="0"/>
        <pt x="550" y="968" on="0"/>
        <pt x="552" y="853" on="0"/>
        <pt x="558" y="745" on="0"/>
        <pt x="561" y="689" on="1"/>
        <pt x="709" y="304" on="1"/>
        <pt x="710" y="304" on="1"/>
        <pt x="713" y="268" on="0"/>
        <pt x="709" y="178" on="0"/>
        <pt x="690" y="88" on="0"/>
        <pt x="656" y="9" on="0"/>
        <pt x="631" y="-16" on="1"/>
        <pt x="594" y="-17" on="0"/>
        <pt x="498" y="-18" on="0"/>
        <pt x="393" y="-18" on="0"/>
        <pt x="286" y="-16" on="0"/>
      </contour>
    </TTGlyph>
    <TTGlyph name="Oslash" xMin="102" yMin="-257" xMax="1189" yMax="1817">
      <contour>
        <pt x="185" y="147" on="1"/>
        <pt x="176" y="207" on="0"/>
        <pt x="156" y="364" on="0"/>
        <pt x="138" y="537" on="0"/>
        <pt x="121" y="718" on="0"/>
        <pt x="109" y="886" on="0"/>
        <pt x="102" y="1030" on="0"/>
        <pt x="102" y="1081" on="1"/>
        <pt x="102" y="1108" on="0"/>
        <pt x="103" y="1181" on="0"/>
        <pt x="109" y="1255" on="0"/>
        <pt x="124" y="1319" on="0"/>
        <pt x="138" y="1337" on="1"/>
        <pt x="157" y="1361" on="0"/>
        <pt x="234" y="1412" on="0"/>
        <pt x="332" y="1459" on="0"/>
        <pt x="439" y="1500" on="0"/>
        <pt x="535" y="1531" on="0"/>
        <pt x="611" y="1549" on="0"/>
        <pt x="628" y="1549" on="1"/>
        <pt x="657" y="1549" on="0"/>
        <pt x="767" y="1524" on="0"/>
        <pt x="833" y="1502" on="1"/>
        <pt x="980" y="1817" on="1"/>
        <pt x="1017" y="1806" on="0"/>
        <pt x="1077" y="1782" on="0"/>
        <pt x="1127" y="1746" on="0"/>
        <pt x="1168" y="1693" on="0"/>
        <pt x="1187" y="1655" on="1"/>
        <pt x="1059" y="1406" on="1"/>
        <pt x="1096" y="1386" on="0"/>
        <pt x="1155" y="1343" on="0"/>
        <pt x="1173" y="1321" on="1"/>
        <pt x="1176" y="1291" on="0"/>
        <pt x="1182" y="1236" on="0"/>
        <pt x="1187" y="1176" on="0"/>
        <pt x="1189" y="1106" on="0"/>
        <pt x="1189" y="1060" on="1"/>
        <pt x="1189" y="1005" on="0"/>
        <pt x="1181" y="853" on="0"/>
        <pt x="1168" y="682" on="0"/>
        <pt x="1150" y="505" on="0"/>
        <pt x="1131" y="348" on="0"/>
        <pt x="1110" y="224" on="0"/>
        <pt x="1101" y="190" on="1"/>
        <pt x="1095" y="168" on="0"/>
        <pt x="1058" y="131" on="0"/>
        <pt x="1008" y="98" on="0"/>
        <pt x="952" y="70" on="0"/>
        <pt x="929" y="58" on="1"/>
        <pt x="860" y="23" on="0"/>
        <pt x="753" y="-16" on="0"/>
        <pt x="699" y="-21" on="1"/>
        <pt x="657" y="-18" on="0"/>
        <pt x="554" y="0" on="0"/>
        <pt x="498" y="14" on="1"/>
        <pt x="383" y="-257" on="1"/>
        <pt x="353" y="-256" on="0"/>
        <pt x="296" y="-257" on="0"/>
        <pt x="243" y="-248" on="0"/>
        <pt x="196" y="-220" on="0"/>
        <pt x="178" y="-190" on="1"/>
        <pt x="280" y="89" on="1"/>
        <pt x="218" y="117" on="0"/>
      </contour>
      <contour>
        <pt x="500" y="331" on="1"/>
        <pt x="521" y="319" on="0"/>
        <pt x="576" y="291" on="0"/>
        <pt x="637" y="265" on="0"/>
        <pt x="699" y="244" on="0"/>
        <pt x="725" y="238" on="1"/>
        <pt x="786" y="280" on="1"/>
        <pt x="792" y="336" on="0"/>
        <pt x="797" y="495" on="0"/>
        <pt x="797" y="586" on="1"/>
        <pt x="797" y="659" on="0"/>
        <pt x="794" y="808" on="0"/>
        <pt x="789" y="947" on="0"/>
        <pt x="781" y="1070" on="0"/>
        <pt x="777" y="1118" on="1"/>
        <pt x="566" y="1209" on="1"/>
        <pt x="497" y="1174" on="1"/>
        <pt x="494" y="1141" on="0"/>
        <pt x="490" y="1053" on="0"/>
        <pt x="487" y="952" on="0"/>
        <pt x="486" y="842" on="0"/>
        <pt x="486" y="786" on="1"/>
        <pt x="486" y="721" on="0"/>
        <pt x="488" y="594" on="0"/>
        <pt x="491" y="477" on="0"/>
        <pt x="496" y="373" on="0"/>
      </contour>
    </TTGlyph>
    <TTGlyph name="Otilde" xMin="102" yMin="-21" xMax="1189" yMax="2020">
      <component glyphName="O" x="0" y="0" flags="0x4"/>
      <component glyphName="tilde.cap" x="214" y="0" flags="0x4"/>
    </TTGlyph>
    <TTGlyph name="P" xMin="86" yMin="-21" xMax="1223" yMax="1548">
      <contour>
        <pt x="192" y="143" on="1"/>
        <pt x="192" y="150" on="0"/>
        <pt x="194" y="196" on="0"/>
        <pt x="196" y="260" on="0"/>
        <pt x="201" y="335" on="0"/>
        <pt x="207" y="407" on="0"/>
        <pt x="214" y="469" on="0"/>
        <pt x="219" y="488" on="1"/>
        <pt x="208" y="509" on="0"/>
        <pt x="185" y="606" on="0"/>
        <pt x="162" y="736" on="0"/>
        <pt x="139" y="890" on="0"/>
        <pt x="119" y="1046" on="0"/>
        <pt x="102" y="1192" on="0"/>
        <pt x="91" y="1309" on="0"/>
        <pt x="86" y="1386" on="0"/>
        <pt x="88" y="1393" on="1"/>
        <pt x="110" y="1423" on="0"/>
        <pt x="171" y="1472" on="0"/>
        <pt x="241" y="1508" on="0"/>
        <pt x="320" y="1528" on="0"/>
        <pt x="360" y="1529" on="1"/>
        <pt x="405" y="1530" on="0"/>
        <pt x="491" y="1506" on="0"/>
        <pt x="530" y="1480" on="1"/>
        <pt x="435" y="983" on="1"/>
        <pt x="463" y="969" on="1"/>
        <pt x="731" y="1531" on="1"/>
        <pt x="747" y="1536" on="0"/>
        <pt x="817" y="1547" on="0"/>
        <pt x="861" y="1548" on="1"/>
        <pt x="889" y="1548" on="0"/>
        <pt x="975" y="1532" on="0"/>
        <pt x="1072" y="1497" on="0"/>
        <pt x="1174" y="1442" on="0"/>
        <pt x="1219" y="1404" on="1"/>
        <pt x="1223" y="1349" on="0"/>
        <pt x="1223" y="1215" on="0"/>
        <pt x="1214" y="1068" on="0"/>
        <pt x="1197" y="915" on="0"/>
        <pt x="1171" y="766" on="0"/>
        <pt x="1137" y="628" on="0"/>
        <pt x="1116" y="570" on="1"/>
        <pt x="1100" y="551" on="0"/>
        <pt x="1037" y="490" on="0"/>
        <pt x="962" y="433" on="0"/>
        <pt x="885" y="391" on="0"/>
        <pt x="855" y="391" on="1"/>
        <pt x="829" y="391" on="0"/>
        <pt x="739" y="402" on="0"/>
        <pt x="632" y="422" on="0"/>
        <pt x="523" y="447" on="0"/>
        <pt x="480" y="461" on="1"/>
        <pt x="516" y="282" on="1"/>
        <pt x="722" y="269" on="1"/>
        <pt x="750" y="145" on="1"/>
        <pt x="736" y="116" on="0"/>
        <pt x="669" y="57" on="0"/>
        <pt x="577" y="9" on="0"/>
        <pt x="466" y="-21" on="0"/>
        <pt x="406" y="-21" on="1"/>
        <pt x="358" y="-21" on="0"/>
        <pt x="279" y="9" on="0"/>
        <pt x="223" y="56" on="0"/>
        <pt x="192" y="114" on="0"/>
      </contour>
      <contour>
        <pt x="504" y="695" on="1"/>
        <pt x="517" y="690" on="0"/>
        <pt x="568" y="665" on="0"/>
        <pt x="630" y="637" on="0"/>
        <pt x="696" y="612" on="0"/>
        <pt x="752" y="602" on="0"/>
        <pt x="791" y="615" on="0"/>
        <pt x="795" y="638" on="1"/>
        <pt x="805" y="697" on="0"/>
        <pt x="823" y="824" on="0"/>
        <pt x="833" y="953" on="0"/>
        <pt x="833" y="1082" on="0"/>
        <pt x="827" y="1143" on="1"/>
        <pt x="780" y="1151" on="1"/>
        <pt x="762" y="1123" on="0"/>
        <pt x="713" y="1047" on="0"/>
        <pt x="659" y="962" on="0"/>
        <pt x="604" y="873" on="0"/>
        <pt x="555" y="790" on="0"/>
        <pt x="515" y="719" on="0"/>
      </contour>
    </TTGlyph>
    <TTGlyph name="Q" xMin="102" yMin="-446" xMax="1192" yMax="1549">
      <contour>
        <pt x="221" y="-77" on="1"/>
        <pt x="257" y="-57" on="0"/>
        <pt x="326" y="-26" on="0"/>
        <pt x="366" y="-20" on="1"/>
        <pt x="421" y="-69" on="1"/>
        <pt x="567" y="30" on="1"/>
        <pt x="513" y="37" on="0"/>
        <pt x="398" y="59" on="0"/>
        <pt x="294" y="88" on="0"/>
        <pt x="209" y="125" on="0"/>
        <pt x="185" y="147" on="1"/>
        <pt x="176" y="207" on="0"/>
        <pt x="156" y="364" on="0"/>
        <pt x="138" y="537" on="0"/>
        <pt x="121" y="718" on="0"/>
        <pt x="109" y="886" on="0"/>
        <pt x="102" y="1030" on="0"/>
        <pt x="102" y="1081" on="1"/>
        <pt x="102" y="1108" on="0"/>
        <pt x="103" y="1181" on="0"/>
        <pt x="109" y="1255" on="0"/>
        <pt x="124" y="1319" on="0"/>
        <pt x="138" y="1337" on="1"/>
        <pt x="157" y="1361" on="0"/>
        <pt x="234" y="1412" on="0"/>
        <pt x="332" y="1459" on="0"/>
        <pt x="439" y="1500" on="0"/>
        <pt x="535" y="1531" on="0"/>
        <pt x="611" y="1549" on="0"/>
        <pt x="628" y="1549" on="1"/>
        <pt x="652" y="1549" on="0"/>
        <pt x="739" y="1531" on="0"/>
        <pt x="844" y="1500" on="0"/>
        <pt x="959" y="1457" on="0"/>
        <pt x="1064" y="1406" on="0"/>
        <pt x="1149" y="1350" on="0"/>
        <pt x="1173" y="1321" on="1"/>
        <pt x="1176" y="1291" on="0"/>
        <pt x="1182" y="1236" on="0"/>
        <pt x="1187" y="1176" on="0"/>
        <pt x="1189" y="1106" on="0"/>
        <pt x="1189" y="1060" on="1"/>
        <pt x="1189" y="1005" on="0"/>
        <pt x="1181" y="853" on="0"/>
        <pt x="1168" y="682" on="0"/>
        <pt x="1150" y="505" on="0"/>
        <pt x="1131" y="348" on="0"/>
        <pt x="1110" y="224" on="0"/>
        <pt x="1101" y="190" on="1"/>
        <pt x="1093" y="163" on="0"/>
        <pt x="1041" y="118" on="0"/>
        <pt x="1008" y="99" on="1"/>
        <pt x="980" y="80" on="0"/>
        <pt x="902" y="38" on="0"/>
        <pt x="817" y="-3" on="0"/>
        <pt x="733" y="-40" on="0"/>
        <pt x="666" y="-71" on="0"/>
        <pt x="624" y="-91" on="0"/>
        <pt x="623" y="-94" on="1"/>
        <pt x="627" y="-123" on="1"/>
        <pt x="670" y="-120" on="0"/>
        <pt x="770" y="-113" on="0"/>
        <pt x="874" y="-105" on="0"/>
        <pt x="978" y="-96" on="0"/>
        <pt x="1071" y="-88" on="0"/>
        <pt x="1150" y="-80" on="0"/>
        <pt x="1177" y="-76" on="1"/>
        <pt x="1192" y="-114" on="0"/>
        <pt x="1185" y="-216" on="0"/>
        <pt x="1152" y="-317" on="0"/>
        <pt x="1099" y="-403" on="0"/>
        <pt x="1068" y="-424" on="1"/>
        <pt x="1060" y="-440" on="0"/>
        <pt x="1040" y="-446" on="1"/>
        <pt x="1002" y="-442" on="0"/>
        <pt x="878" y="-420" on="0"/>
        <pt x="733" y="-387" on="0"/>
        <pt x="580" y="-344" on="0"/>
        <pt x="513" y="-318" on="1"/>
        <pt x="484" y="-355" on="0"/>
        <pt x="407" y="-406" on="0"/>
        <pt x="353" y="-410" on="1"/>
        <pt x="320" y="-390" on="0"/>
        <pt x="269" y="-319" on="0"/>
        <pt x="235" y="-229" on="0"/>
        <pt x="219" y="-128" on="0"/>
      </contour>
      <contour>
        <pt x="500" y="331" on="1"/>
        <pt x="521" y="319" on="0"/>
        <pt x="576" y="291" on="0"/>
        <pt x="637" y="265" on="0"/>
        <pt x="699" y="244" on="0"/>
        <pt x="725" y="238" on="1"/>
        <pt x="786" y="280" on="1"/>
        <pt x="792" y="336" on="0"/>
        <pt x="797" y="495" on="0"/>
        <pt x="797" y="586" on="1"/>
        <pt x="797" y="659" on="0"/>
        <pt x="794" y="808" on="0"/>
        <pt x="789" y="947" on="0"/>
        <pt x="781" y="1070" on="0"/>
        <pt x="777" y="1118" on="1"/>
        <pt x="566" y="1209" on="1"/>
        <pt x="497" y="1174" on="1"/>
        <pt x="494" y="1141" on="0"/>
        <pt x="490" y="1053" on="0"/>
        <pt x="487" y="952" on="0"/>
        <pt x="486" y="842" on="0"/>
        <pt x="486" y="786" on="1"/>
        <pt x="486" y="721" on="0"/>
        <pt x="488" y="594" on="0"/>
        <pt x="491" y="477" on="0"/>
        <pt x="496" y="373" on="0"/>
      </contour>
    </TTGlyph>
    <TTGlyph name="R" xMin="86" yMin="-21" xMax="1355" yMax="1548">
      <contour>
        <pt x="137" y="69" on="1"/>
        <pt x="149" y="129" on="0"/>
        <pt x="170" y="216" on="0"/>
        <pt x="189" y="283" on="0"/>
        <pt x="208" y="340" on="0"/>
        <pt x="219" y="370" on="1"/>
        <pt x="208" y="391" on="0"/>
        <pt x="185" y="499" on="0"/>
        <pt x="162" y="646" on="0"/>
        <pt x="139" y="821" on="0"/>
        <pt x="119" y="998" on="0"/>
        <pt x="102" y="1166" on="0"/>
        <pt x="91" y="1299" on="0"/>
        <pt x="86" y="1386" on="0"/>
        <pt x="88" y="1393" on="1"/>
        <pt x="122" y="1439" on="0"/>
        <pt x="228" y="1506" on="0"/>
        <pt x="349" y="1534" on="0"/>
        <pt x="475" y="1517" on="0"/>
        <pt x="530" y="1480" on="1"/>
        <pt x="435" y="983" on="1"/>
        <pt x="463" y="969" on="1"/>
        <pt x="731" y="1531" on="1"/>
        <pt x="747" y="1536" on="0"/>
        <pt x="817" y="1547" on="0"/>
        <pt x="861" y="1548" on="1"/>
        <pt x="889" y="1548" on="0"/>
        <pt x="975" y="1532" on="0"/>
        <pt x="1072" y="1497" on="0"/>
        <pt x="1174" y="1442" on="0"/>
        <pt x="1219" y="1404" on="1"/>
        <pt x="1220" y="1333" on="0"/>
        <pt x="1210" y="1167" on="0"/>
        <pt x="1186" y="989" on="0"/>
        <pt x="1149" y="808" on="0"/>
        <pt x="1123" y="723" on="1"/>
        <pt x="1091" y="676" on="0"/>
        <pt x="1015" y="595" on="0"/>
        <pt x="971" y="558" on="1"/>
        <pt x="996" y="509" on="0"/>
        <pt x="1060" y="409" on="0"/>
        <pt x="1104" y="366" on="1"/>
        <pt x="1138" y="378" on="0"/>
        <pt x="1206" y="424" on="0"/>
        <pt x="1241" y="452" on="1"/>
        <pt x="1355" y="350" on="1"/>
        <pt x="1353" y="311" on="0"/>
        <pt x="1334" y="231" on="0"/>
        <pt x="1304" y="157" on="0"/>
        <pt x="1268" y="93" on="0"/>
        <pt x="1251" y="69" on="1"/>
        <pt x="1219" y="24" on="0"/>
        <pt x="1127" y="-20" on="0"/>
        <pt x="1070" y="-20" on="1"/>
        <pt x="1041" y="-20" on="0"/>
        <pt x="980" y="-9" on="0"/>
        <pt x="948" y="2" on="1"/>
        <pt x="908" y="14" on="0"/>
        <pt x="848" y="76" on="0"/>
        <pt x="804" y="159" on="0"/>
        <pt x="774" y="255" on="0"/>
        <pt x="755" y="350" on="0"/>
        <pt x="743" y="435" on="0"/>
        <pt x="740" y="465" on="1"/>
        <pt x="472" y="501" on="1"/>
        <pt x="487" y="465" on="0"/>
        <pt x="516" y="345" on="0"/>
        <pt x="541" y="210" on="0"/>
        <pt x="559" y="76" on="0"/>
        <pt x="563" y="27" on="1"/>
        <pt x="530" y="4" on="0"/>
        <pt x="443" y="-19" on="0"/>
        <pt x="396" y="-20" on="1"/>
        <pt x="358" y="-21" on="0"/>
        <pt x="281" y="-9" on="0"/>
        <pt x="213" y="13" on="0"/>
        <pt x="156" y="47" on="0"/>
      </contour>
      <contour>
        <pt x="805" y="693" on="1"/>
        <pt x="815" y="757" on="0"/>
        <pt x="827" y="889" on="0"/>
        <pt x="832" y="1009" on="0"/>
        <pt x="831" y="1109" on="0"/>
        <pt x="827" y="1143" on="1"/>
        <pt x="780" y="1151" on="1"/>
        <pt x="762" y="1124" on="0"/>
        <pt x="713" y="1047" on="0"/>
        <pt x="657" y="957" on="0"/>
        <pt x="598" y="862" on="0"/>
        <pt x="546" y="773" on="0"/>
        <pt x="503" y="697" on="0"/>
        <pt x="490" y="672" on="1"/>
      </contour>
    </TTGlyph>
    <TTGlyph name="Racute" xMin="86" yMin="-21" xMax="1355" yMax="2020">
      <component glyphName="R" x="0" y="0" flags="0x204"/>
      <component glyphName="acute.cap" x="369" y="0" flags="0x4"/>
    </TTGlyph>
    <TTGlyph name="Rcaron" xMin="86" yMin="-21" xMax="1355" yMax="2020">
      <component glyphName="R" x="0" y="0" flags="0x204"/>
      <component glyphName="caron.cap" x="156" y="0" flags="0x4"/>
    </TTGlyph>
    <TTGlyph name="Rcommaaccent" xMin="86" yMin="-537" xMax="1355" yMax="1548">
      <component glyphName="R" x="0" y="0" flags="0x204"/>
      <component glyphName="commaaccent" x="451" y="0" flags="0x4"/>
    </TTGlyph>
    <TTGlyph name="S" xMin="69" yMin="-20" xMax="1010" yMax="1549">
      <contour>
        <pt x="169" y="37" on="1"/>
        <pt x="124" y="116" on="0"/>
        <pt x="101" y="245" on="0"/>
        <pt x="113" y="342" on="0"/>
        <pt x="142" y="407" on="0"/>
        <pt x="148" y="422" on="1"/>
        <pt x="209" y="417" on="0"/>
        <pt x="327" y="385" on="0"/>
        <pt x="440" y="337" on="0"/>
        <pt x="546" y="276" on="0"/>
        <pt x="594" y="243" on="1"/>
        <pt x="654" y="268" on="1"/>
        <pt x="663" y="313" on="0"/>
        <pt x="671" y="410" on="0"/>
        <pt x="658" y="454" on="1"/>
        <pt x="626" y="463" on="0"/>
        <pt x="530" y="502" on="0"/>
        <pt x="420" y="554" on="0"/>
        <pt x="306" y="618" on="0"/>
        <pt x="206" y="684" on="0"/>
        <pt x="130" y="750" on="0"/>
        <pt x="113" y="779" on="1"/>
        <pt x="107" y="802" on="0"/>
        <pt x="97" y="872" on="0"/>
        <pt x="90" y="957" on="0"/>
        <pt x="83" y="1048" on="0"/>
        <pt x="78" y="1137" on="0"/>
        <pt x="72" y="1215" on="0"/>
        <pt x="69" y="1244" on="1"/>
        <pt x="105" y="1302" on="0"/>
        <pt x="186" y="1394" on="0"/>
        <pt x="278" y="1467" on="0"/>
        <pt x="380" y="1525" on="0"/>
        <pt x="436" y="1549" on="1"/>
        <pt x="463" y="1541" on="0"/>
        <pt x="531" y="1510" on="0"/>
        <pt x="595" y="1477" on="0"/>
        <pt x="651" y="1447" on="0"/>
        <pt x="666" y="1440" on="1"/>
        <pt x="986" y="1455" on="1"/>
        <pt x="1010" y="1360" on="0"/>
        <pt x="991" y="1198" on="0"/>
        <pt x="940" y="1077" on="0"/>
        <pt x="877" y="1000" on="0"/>
        <pt x="856" y="990" on="1"/>
        <pt x="822" y="997" on="0"/>
        <pt x="727" y="1033" on="0"/>
        <pt x="622" y="1089" on="0"/>
        <pt x="515" y="1163" on="0"/>
        <pt x="469" y="1208" on="1"/>
        <pt x="456" y="1208" on="1"/>
        <pt x="418" y="998" on="1"/>
        <pt x="445" y="982" on="0"/>
        <pt x="535" y="924" on="0"/>
        <pt x="644" y="848" on="0"/>
        <pt x="761" y="759" on="0"/>
        <pt x="871" y="665" on="0"/>
        <pt x="964" y="570" on="0"/>
        <pt x="993" y="528" on="1"/>
        <pt x="996" y="492" on="0"/>
        <pt x="983" y="390" on="0"/>
        <pt x="961" y="286" on="0"/>
        <pt x="936" y="194" on="0"/>
        <pt x="928" y="168" on="1"/>
        <pt x="871" y="111" on="0"/>
        <pt x="746" y="13" on="0"/>
        <pt x="667" y="-20" on="1"/>
        <pt x="669" y="-20" on="0"/>
        <pt x="627" y="-16" on="0"/>
        <pt x="557" y="-8" on="0"/>
        <pt x="466" y="2" on="0"/>
        <pt x="370" y="13" on="0"/>
        <pt x="279" y="23" on="0"/>
        <pt x="209" y="32" on="0"/>
        <pt x="167" y="37" on="0"/>
      </contour>
    </TTGlyph>
    <TTGlyph name="Sacute" xMin="69" yMin="-20" xMax="1010" yMax="2020">
      <component glyphName="S" x="0" y="0" flags="0x204"/>
      <component glyphName="acute.cap" x="246" y="0" flags="0x4"/>
    </TTGlyph>
    <TTGlyph name="Scaron" xMin="69" yMin="-20" xMax="1010" yMax="2020">
      <component glyphName="S" x="0" y="0" flags="0x4"/>
      <component glyphName="caron.cap" x="123" y="0" flags="0x4"/>
    </TTGlyph>
    <TTGlyph name="Scircumflex" xMin="69" yMin="-20" xMax="1010" yMax="2007">
      <component glyphName="S" x="0" y="0" flags="0x204"/>
      <component glyphName="circumflex.cap" x="76" y="0" flags="0x4"/>
    </TTGlyph>
    <TTGlyph name="T" xMin="-37" yMin="-21" xMax="1159" yMax="1549">
      <contour>
        <pt x="412" y="227" on="1"/>
        <pt x="408" y="271" on="0"/>
        <pt x="417" y="357" on="0"/>
        <pt x="434" y="444" on="0"/>
        <pt x="454" y="533" on="0"/>
        <pt x="462" y="580" on="1"/>
        <pt x="464" y="580" on="1"/>
        <pt x="404" y="1219" on="1"/>
        <pt x="293" y="1247" on="1"/>
        <pt x="252" y="966" on="1"/>
        <pt x="192" y="946" on="0"/>
        <pt x="79" y="941" on="0"/>
        <pt x="19" y="967" on="1"/>
        <pt x="6" y="1006" on="0"/>
        <pt x="-22" y="1119" on="0"/>
        <pt x="-37" y="1240" on="0"/>
        <pt x="-30" y="1354" on="0"/>
        <pt x="-8" y="1393" on="1"/>
        <pt x="19" y="1426" on="0"/>
        <pt x="87" y="1480" on="0"/>
        <pt x="163" y="1520" on="0"/>
        <pt x="240" y="1546" on="0"/>
        <pt x="276" y="1549" on="1"/>
        <pt x="715" y="1438" on="1"/>
        <pt x="1063" y="1549" on="1"/>
        <pt x="1096" y="1532" on="0"/>
        <pt x="1139" y="1462" on="0"/>
        <pt x="1159" y="1374" on="0"/>
        <pt x="1156" y="1275" on="0"/>
        <pt x="1132" y="1183" on="0"/>
        <pt x="1087" y="1106" on="0"/>
        <pt x="1054" y="1084" on="1"/>
        <pt x="1032" y="1084" on="0"/>
        <pt x="970" y="1093" on="0"/>
        <pt x="903" y="1110" on="0"/>
        <pt x="836" y="1132" on="0"/>
        <pt x="809" y="1145" on="1"/>
        <pt x="749" y="584" on="1"/>
        <pt x="758" y="314" on="1"/>
        <pt x="978" y="415" on="1"/>
        <pt x="1056" y="283" on="1"/>
        <pt x="1051" y="260" on="0"/>
        <pt x="1020" y="196" on="0"/>
        <pt x="974" y="129" on="0"/>
        <pt x="917" y="63" on="0"/>
        <pt x="853" y="11" on="0"/>
        <pt x="786" y="-21" on="0"/>
        <pt x="753" y="-21" on="1"/>
        <pt x="700" y="-21" on="0"/>
        <pt x="584" y="13" on="0"/>
        <pt x="485" y="77" on="0"/>
        <pt x="417" y="169" on="0"/>
      </contour>
    </TTGlyph>
    <TTGlyph name="Tbar" xMin="-30" yMin="-21" xMax="1166" yMax="1549">
      <contour>
        <pt x="427" y="227" on="1"/>
        <pt x="423" y="270" on="0"/>
        <pt x="435" y="356" on="0"/>
        <pt x="455" y="442" on="0"/>
        <pt x="478" y="530" on="0"/>
        <pt x="486" y="576" on="1"/>
        <pt x="252" y="585" on="1"/>
        <pt x="247" y="627" on="0"/>
        <pt x="251" y="695" on="0"/>
        <pt x="266" y="753" on="0"/>
        <pt x="291" y="808" on="0"/>
        <pt x="308" y="837" on="1"/>
        <pt x="464" y="848" on="1"/>
        <pt x="430" y="1214" on="1"/>
        <pt x="300" y="1247" on="1"/>
        <pt x="259" y="966" on="1"/>
        <pt x="199" y="946" on="0"/>
        <pt x="86" y="941" on="0"/>
        <pt x="26" y="967" on="1"/>
        <pt x="13" y="1006" on="0"/>
        <pt x="-15" y="1119" on="0"/>
        <pt x="-30" y="1240" on="0"/>
        <pt x="-23" y="1354" on="0"/>
        <pt x="-1" y="1393" on="1"/>
        <pt x="26" y="1426" on="0"/>
        <pt x="94" y="1480" on="0"/>
        <pt x="170" y="1520" on="0"/>
        <pt x="247" y="1546" on="0"/>
        <pt x="283" y="1549" on="1"/>
        <pt x="722" y="1438" on="1"/>
        <pt x="1070" y="1549" on="1"/>
        <pt x="1103" y="1532" on="0"/>
        <pt x="1146" y="1462" on="0"/>
        <pt x="1166" y="1374" on="0"/>
        <pt x="1163" y="1275" on="0"/>
        <pt x="1139" y="1183" on="0"/>
        <pt x="1094" y="1106" on="0"/>
        <pt x="1061" y="1084" on="1"/>
        <pt x="1040" y="1084" on="0"/>
        <pt x="978" y="1093" on="0"/>
        <pt x="910" y="1108" on="0"/>
        <pt x="841" y="1130" on="0"/>
        <pt x="813" y="1142" on="1"/>
        <pt x="784" y="870" on="1"/>
        <pt x="1002" y="886" on="1"/>
        <pt x="1011" y="850" on="0"/>
        <pt x="1007" y="772" on="0"/>
        <pt x="987" y="692" on="0"/>
        <pt x="954" y="611" on="0"/>
        <pt x="934" y="571" on="1"/>
        <pt x="908" y="569" on="0"/>
        <pt x="818" y="567" on="0"/>
        <pt x="755" y="569" on="1"/>
        <pt x="773" y="314" on="1"/>
        <pt x="993" y="415" on="1"/>
        <pt x="1071" y="283" on="1"/>
        <pt x="1066" y="260" on="0"/>
        <pt x="1035" y="196" on="0"/>
        <pt x="989" y="129" on="0"/>
        <pt x="932" y="63" on="0"/>
        <pt x="868" y="11" on="0"/>
        <pt x="801" y="-21" on="0"/>
        <pt x="768" y="-21" on="1"/>
        <pt x="715" y="-21" on="0"/>
        <pt x="599" y="13" on="0"/>
        <pt x="500" y="77" on="0"/>
        <pt x="432" y="169" on="0"/>
      </contour>
    </TTGlyph>
    <TTGlyph name="Tcaron" xMin="-37" yMin="-21" xMax="1159" yMax="2020">
      <component glyphName="T" x="0" y="0" flags="0x204"/>
      <component glyphName="caron.cap" x="173" y="0" flags="0x4"/>
    </TTGlyph>
    <TTGlyph name="Thorn" xMin="86" yMin="-20" xMax="1223" yMax="1529">
      <contour>
        <pt x="153" y="62" on="1"/>
        <pt x="156" y="114" on="0"/>
        <pt x="166" y="228" on="0"/>
        <pt x="181" y="343" on="0"/>
        <pt x="200" y="457" on="0"/>
        <pt x="211" y="508" on="1"/>
        <pt x="200" y="538" on="0"/>
        <pt x="178" y="644" on="0"/>
        <pt x="156" y="775" on="0"/>
        <pt x="134" y="924" on="0"/>
        <pt x="116" y="1071" on="0"/>
        <pt x="101" y="1208" on="0"/>
        <pt x="90" y="1316" on="0"/>
        <pt x="86" y="1386" on="0"/>
        <pt x="88" y="1393" on="1"/>
        <pt x="110" y="1423" on="0"/>
        <pt x="171" y="1473" on="0"/>
        <pt x="242" y="1509" on="0"/>
        <pt x="320" y="1529" on="0"/>
        <pt x="360" y="1529" on="1"/>
        <pt x="403" y="1529" on="0"/>
        <pt x="487" y="1507" on="0"/>
        <pt x="530" y="1480" on="1"/>
        <pt x="469" y="1002" on="1"/>
        <pt x="500" y="993" on="1"/>
        <pt x="731" y="1380" on="1"/>
        <pt x="747" y="1385" on="0"/>
        <pt x="817" y="1396" on="0"/>
        <pt x="861" y="1397" on="1"/>
        <pt x="889" y="1397" on="0"/>
        <pt x="975" y="1381" on="0"/>
        <pt x="1072" y="1346" on="0"/>
        <pt x="1174" y="1291" on="0"/>
        <pt x="1219" y="1253" on="1"/>
        <pt x="1223" y="1198" on="0"/>
        <pt x="1223" y="1064" on="0"/>
        <pt x="1214" y="917" on="0"/>
        <pt x="1197" y="764" on="0"/>
        <pt x="1171" y="615" on="0"/>
        <pt x="1137" y="477" on="0"/>
        <pt x="1116" y="419" on="1"/>
        <pt x="1100" y="400" on="0"/>
        <pt x="1037" y="339" on="0"/>
        <pt x="962" y="282" on="0"/>
        <pt x="885" y="240" on="0"/>
        <pt x="855" y="240" on="1"/>
        <pt x="832" y="240" on="0"/>
        <pt x="754" y="268" on="0"/>
        <pt x="662" y="312" on="0"/>
        <pt x="563" y="363" on="0"/>
        <pt x="520" y="385" on="1"/>
        <pt x="540" y="291" on="0"/>
        <pt x="573" y="101" on="0"/>
        <pt x="578" y="19" on="1"/>
        <pt x="546" y="-2" on="0"/>
        <pt x="465" y="-20" on="0"/>
        <pt x="411" y="-20" on="1"/>
        <pt x="321" y="-20" on="0"/>
        <pt x="193" y="24" on="0"/>
      </contour>
      <contour>
        <pt x="504" y="714" on="1"/>
        <pt x="517" y="707" on="0"/>
        <pt x="568" y="655" on="0"/>
        <pt x="630" y="589" on="0"/>
        <pt x="696" y="521" on="0"/>
        <pt x="752" y="475" on="0"/>
        <pt x="791" y="464" on="0"/>
        <pt x="795" y="487" on="1"/>
        <pt x="805" y="546" on="0"/>
        <pt x="823" y="673" on="0"/>
        <pt x="833" y="802" on="0"/>
        <pt x="833" y="931" on="0"/>
        <pt x="827" y="992" on="1"/>
        <pt x="780" y="1000" on="1"/>
        <pt x="754" y="974" on="0"/>
        <pt x="681" y="907" on="0"/>
        <pt x="603" y="831" on="0"/>
        <pt x="530" y="751" on="0"/>
      </contour>
    </TTGlyph>
    <TTGlyph name="U" xMin="-5" yMin="-21" xMax="1199" yMax="1549">
      <contour>
        <pt x="210" y="147" on="1"/>
        <pt x="201" y="207" on="0"/>
        <pt x="182" y="364" on="0"/>
        <pt x="165" y="537" on="0"/>
        <pt x="150" y="718" on="0"/>
        <pt x="139" y="886" on="0"/>
        <pt x="133" y="1030" on="0"/>
        <pt x="133" y="1081" on="1"/>
        <pt x="133" y="1101" on="0"/>
        <pt x="133" y="1151" on="0"/>
        <pt x="134" y="1178" on="1"/>
        <pt x="-5" y="1226" on="1"/>
        <pt x="-2" y="1271" on="0"/>
        <pt x="18" y="1363" on="0"/>
        <pt x="60" y="1449" on="0"/>
        <pt x="129" y="1522" on="0"/>
        <pt x="182" y="1549" on="1"/>
        <pt x="217" y="1544" on="0"/>
        <pt x="302" y="1510" on="0"/>
        <pt x="396" y="1456" on="0"/>
        <pt x="497" y="1386" on="0"/>
        <pt x="549" y="1346" on="1"/>
        <pt x="546" y="1344" on="1"/>
        <pt x="548" y="1344" on="0"/>
        <pt x="549" y="1345" on="1"/>
        <pt x="524" y="1174" on="1"/>
        <pt x="523" y="786" on="1"/>
        <pt x="523" y="721" on="0"/>
        <pt x="525" y="588" on="0"/>
        <pt x="528" y="463" on="0"/>
        <pt x="534" y="353" on="0"/>
        <pt x="538" y="311" on="1"/>
        <pt x="580" y="287" on="0"/>
        <pt x="704" y="239" on="0"/>
        <pt x="788" y="228" on="1"/>
        <pt x="791" y="256" on="0"/>
        <pt x="795" y="341" on="0"/>
        <pt x="798" y="439" on="0"/>
        <pt x="800" y="541" on="0"/>
        <pt x="800" y="586" on="1"/>
        <pt x="800" y="659" on="0"/>
        <pt x="797" y="834" on="0"/>
        <pt x="791" y="1004" on="0"/>
        <pt x="783" y="1153" on="0"/>
        <pt x="779" y="1201" on="1"/>
        <pt x="615" y="1247" on="1"/>
        <pt x="619" y="1292" on="0"/>
        <pt x="649" y="1383" on="0"/>
        <pt x="703" y="1464" on="0"/>
        <pt x="779" y="1529" on="0"/>
        <pt x="830" y="1549" on="1"/>
        <pt x="855" y="1545" on="0"/>
        <pt x="933" y="1520" on="0"/>
        <pt x="1025" y="1482" on="0"/>
        <pt x="1123" y="1434" on="0"/>
        <pt x="1168" y="1409" on="1"/>
        <pt x="1179" y="1321" on="1"/>
        <pt x="1180" y="1321" on="1"/>
        <pt x="1180" y="1316" on="0"/>
        <pt x="1181" y="1306" on="0"/>
        <pt x="1182" y="1301" on="1"/>
        <pt x="1184" y="1283" on="1"/>
        <pt x="1186" y="1273" on="1"/>
        <pt x="1188" y="1257" on="1"/>
        <pt x="1187" y="1257" on="1"/>
        <pt x="1192" y="1216" on="0"/>
        <pt x="1199" y="1126" on="0"/>
        <pt x="1199" y="1060" on="1"/>
        <pt x="1199" y="1005" on="0"/>
        <pt x="1191" y="853" on="0"/>
        <pt x="1178" y="682" on="0"/>
        <pt x="1160" y="505" on="0"/>
        <pt x="1141" y="348" on="0"/>
        <pt x="1120" y="224" on="0"/>
        <pt x="1111" y="190" on="1"/>
        <pt x="1105" y="168" on="0"/>
        <pt x="1065" y="131" on="0"/>
        <pt x="1012" y="98" on="0"/>
        <pt x="954" y="70" on="0"/>
        <pt x="931" y="58" on="1"/>
        <pt x="861" y="23" on="0"/>
        <pt x="754" y="-16" on="0"/>
        <pt x="700" y="-21" on="1"/>
        <pt x="644" y="-18" on="0"/>
        <pt x="502" y="13" on="0"/>
        <pt x="363" y="60" on="0"/>
        <pt x="243" y="117" on="0"/>
      </contour>
    </TTGlyph>
    <TTGlyph name="Uacute" xMin="-5" yMin="-21" xMax="1199" yMax="2020">
      <component glyphName="U" x="0" y="0" flags="0x204"/>
      <component glyphName="acute.cap" x="340" y="0" flags="0x4"/>
    </TTGlyph>
    <TTGlyph name="Ubreve" xMin="-5" yMin="-21" xMax="1199" yMax="2019">
      <component glyphName="U" x="0" y="0" flags="0x204"/>
      <component glyphName="breve.cap" x="233" y="0" flags="0x4"/>
    </TTGlyph>
    <TTGlyph name="Ucircumflex" xMin="-5" yMin="-21" xMax="1199" yMax="2007">
      <component glyphName="U" x="0" y="0" flags="0x204"/>
      <component glyphName="circumflex.cap" x="195" y="0" flags="0x4"/>
    </TTGlyph>
    <TTGlyph name="Udieresis" xMin="-5" yMin="-21" xMax="1199" yMax="2020">
      <component glyphName="U" x="0" y="0" flags="0x204"/>
      <component glyphName="dieresis.cap" x="119" y="0" flags="0x4"/>
    </TTGlyph>
    <TTGlyph name="Ugrave" xMin="-5" yMin="-21" xMax="1199" yMax="2020">
      <component glyphName="U" x="0" y="0" flags="0x204"/>
      <component glyphName="grave.cap" x="234" y="0" flags="0x4"/>
    </TTGlyph>
    <TTGlyph name="Uhungarumlaut" xMin="-5" yMin="-21" xMax="1199" yMax="2020">
      <component glyphName="U" x="0" y="0" flags="0x204"/>
      <component glyphName="hungarumlaut.cap" x="267" y="0" flags="0x4"/>
    </TTGlyph>
    <TTGlyph name="Umacron" xMin="-5" yMin="-21" xMax="1199" yMax="1928">
      <component glyphName="U" x="0" y="0" flags="0x204"/>
      <component glyphName="macron.cap" x="277" y="0" flags="0x4"/>
    </TTGlyph>
    <TTGlyph name="Uogonek" xMin="-5" yMin="-438" xMax="1199" yMax="1549">
      <contour>
        <pt x="210" y="147" on="1"/>
        <pt x="201" y="207" on="0"/>
        <pt x="182" y="364" on="0"/>
        <pt x="165" y="537" on="0"/>
        <pt x="150" y="718" on="0"/>
        <pt x="139" y="886" on="0"/>
        <pt x="133" y="1030" on="0"/>
        <pt x="133" y="1081" on="1"/>
        <pt x="133" y="1101" on="0"/>
        <pt x="133" y="1151" on="0"/>
        <pt x="134" y="1178" on="1"/>
        <pt x="-5" y="1226" on="1"/>
        <pt x="-2" y="1271" on="0"/>
        <pt x="18" y="1363" on="0"/>
        <pt x="60" y="1449" on="0"/>
        <pt x="129" y="1522" on="0"/>
        <pt x="182" y="1549" on="1"/>
        <pt x="217" y="1544" on="0"/>
        <pt x="302" y="1510" on="0"/>
        <pt x="396" y="1456" on="0"/>
        <pt x="497" y="1386" on="0"/>
        <pt x="549" y="1346" on="1"/>
        <pt x="546" y="1344" on="1"/>
        <pt x="548" y="1344" on="0"/>
        <pt x="549" y="1345" on="1"/>
        <pt x="524" y="1174" on="1"/>
        <pt x="523" y="786" on="1"/>
        <pt x="523" y="721" on="0"/>
        <pt x="525" y="588" on="0"/>
        <pt x="528" y="463" on="0"/>
        <pt x="534" y="353" on="0"/>
        <pt x="538" y="311" on="1"/>
        <pt x="580" y="287" on="0"/>
        <pt x="704" y="239" on="0"/>
        <pt x="788" y="228" on="1"/>
        <pt x="791" y="256" on="0"/>
        <pt x="795" y="341" on="0"/>
        <pt x="798" y="439" on="0"/>
        <pt x="800" y="541" on="0"/>
        <pt x="800" y="586" on="1"/>
        <pt x="800" y="659" on="0"/>
        <pt x="797" y="834" on="0"/>
        <pt x="791" y="1004" on="0"/>
        <pt x="783" y="1153" on="0"/>
        <pt x="779" y="1201" on="1"/>
        <pt x="615" y="1247" on="1"/>
        <pt x="619" y="1292" on="0"/>
        <pt x="649" y="1383" on="0"/>
        <pt x="703" y="1464" on="0"/>
        <pt x="779" y="1529" on="0"/>
        <pt x="830" y="1549" on="1"/>
        <pt x="855" y="1545" on="0"/>
        <pt x="933" y="1520" on="0"/>
        <pt x="1025" y="1482" on="0"/>
        <pt x="1123" y="1434" on="0"/>
        <pt x="1168" y="1409" on="1"/>
        <pt x="1179" y="1321" on="1"/>
        <pt x="1180" y="1321" on="1"/>
        <pt x="1180" y="1316" on="0"/>
        <pt x="1181" y="1306" on="0"/>
        <pt x="1182" y="1301" on="1"/>
        <pt x="1184" y="1283" on="1"/>
        <pt x="1186" y="1273" on="1"/>
        <pt x="1188" y="1257" on="1"/>
        <pt x="1187" y="1257" on="1"/>
        <pt x="1192" y="1216" on="0"/>
        <pt x="1199" y="1126" on="0"/>
        <pt x="1199" y="1060" on="1"/>
        <pt x="1199" y="1005" on="0"/>
        <pt x="1191" y="853" on="0"/>
        <pt x="1178" y="682" on="0"/>
        <pt x="1160" y="505" on="0"/>
        <pt x="1141" y="348" on="0"/>
        <pt x="1120" y="224" on="0"/>
        <pt x="1111" y="190" on="1"/>
        <pt x="1105" y="168" on="0"/>
        <pt x="1065" y="131" on="0"/>
        <pt x="1012" y="98" on="0"/>
        <pt x="954" y="70" on="0"/>
        <pt x="931" y="58" on="1"/>
        <pt x="899" y="42" on="0"/>
        <pt x="844" y="17" on="0"/>
        <pt x="818" y="7" on="1"/>
        <pt x="789" y="-41" on="0"/>
        <pt x="734" y="-136" on="0"/>
        <pt x="717" y="-170" on="1"/>
        <pt x="731" y="-183" on="1"/>
        <pt x="927" y="-116" on="1"/>
        <pt x="974" y="-243" on="1"/>
        <pt x="923" y="-342" on="0"/>
        <pt x="800" y="-438" on="0"/>
        <pt x="712" y="-438" on="1"/>
        <pt x="676" y="-438" on="0"/>
        <pt x="589" y="-398" on="0"/>
        <pt x="515" y="-336" on="0"/>
        <pt x="465" y="-261" on="0"/>
        <pt x="465" y="-225" on="1"/>
        <pt x="465" y="-194" on="0"/>
        <pt x="491" y="-136" on="0"/>
        <pt x="533" y="-81" on="0"/>
        <pt x="587" y="-32" on="0"/>
        <pt x="616" y="-10" on="1"/>
        <pt x="561" y="-1" on="0"/>
        <pt x="441" y="32" on="0"/>
        <pt x="330" y="74" on="0"/>
        <pt x="238" y="122" on="0"/>
      </contour>
    </TTGlyph>
    <TTGlyph name="Uring" xMin="-5" yMin="-21" xMax="1199" yMax="2020">
      <component glyphName="U" x="0" y="0" flags="0x204"/>
      <component glyphName="ring.cap" x="321" y="0" flags="0x4"/>
    </TTGlyph>
    <TTGlyph name="Utilde" xMin="-5" yMin="-21" xMax="1199" yMax="2020">
      <component glyphName="U" x="0" y="0" flags="0x204"/>
      <component glyphName="tilde.cap" x="204" y="0" flags="0x4"/>
    </TTGlyph>
    <TTGlyph name="V" xMin="-51" yMin="-22" xMax="1196" yMax="1551">
      <contour>
        <pt x="340" y="46" on="1"/>
        <pt x="345" y="121" on="0"/>
        <pt x="374" y="235" on="0"/>
        <pt x="391" y="282" on="1"/>
        <pt x="124" y="1065" on="1"/>
        <pt x="-51" y="1287" on="1"/>
        <pt x="-45" y="1346" on="0"/>
        <pt x="6" y="1436" on="0"/>
        <pt x="81" y="1498" on="0"/>
        <pt x="175" y="1529" on="0"/>
        <pt x="225" y="1529" on="1"/>
        <pt x="272" y="1529" on="0"/>
        <pt x="363" y="1502" on="0"/>
        <pt x="403" y="1472" on="1"/>
        <pt x="408" y="1461" on="0"/>
        <pt x="433" y="1380" on="0"/>
        <pt x="466" y="1256" on="0"/>
        <pt x="505" y="1097" on="0"/>
        <pt x="545" y="922" on="0"/>
        <pt x="584" y="738" on="0"/>
        <pt x="617" y="563" on="0"/>
        <pt x="640" y="405" on="0"/>
        <pt x="645" y="343" on="1"/>
        <pt x="814" y="1082" on="1"/>
        <pt x="788" y="1104" on="0"/>
        <pt x="737" y="1147" on="0"/>
        <pt x="689" y="1198" on="0"/>
        <pt x="643" y="1261" on="0"/>
        <pt x="623" y="1302" on="1"/>
        <pt x="645" y="1360" on="0"/>
        <pt x="729" y="1447" on="0"/>
        <pt x="834" y="1508" on="0"/>
        <pt x="949" y="1544" on="0"/>
        <pt x="1003" y="1551" on="1"/>
        <pt x="1045" y="1517" on="0"/>
        <pt x="1113" y="1419" on="0"/>
        <pt x="1162" y="1305" on="0"/>
        <pt x="1192" y="1184" on="0"/>
        <pt x="1196" y="1127" on="1"/>
        <pt x="827" y="259" on="1"/>
        <pt x="844" y="218" on="0"/>
        <pt x="875" y="114" on="0"/>
        <pt x="888" y="41" on="1"/>
        <pt x="847" y="9" on="0"/>
        <pt x="709" y="-22" on="0"/>
        <pt x="631" y="-22" on="1"/>
        <pt x="587" y="-22" on="0"/>
        <pt x="500" y="-13" on="0"/>
        <pt x="423" y="5" on="0"/>
        <pt x="360" y="30" on="0"/>
      </contour>
    </TTGlyph>
    <TTGlyph name="W" xMin="-69" yMin="2" xMax="1795" yMax="1552">
      <contour>
        <pt x="253" y="80" on="1"/>
        <pt x="261" y="147" on="0"/>
        <pt x="294" y="249" on="0"/>
        <pt x="314" y="291" on="1"/>
        <pt x="107" y="1086" on="1"/>
        <pt x="104" y="1097" on="1"/>
        <pt x="-69" y="1327" on="1"/>
        <pt x="-51" y="1366" on="0"/>
        <pt x="20" y="1444" on="0"/>
        <pt x="108" y="1508" on="0"/>
        <pt x="207" y="1549" on="0"/>
        <pt x="254" y="1550" on="1"/>
        <pt x="300" y="1552" on="0"/>
        <pt x="386" y="1518" on="0"/>
        <pt x="418" y="1480" on="1"/>
        <pt x="419" y="1480" on="1"/>
        <pt x="424" y="1469" on="0"/>
        <pt x="442" y="1387" on="0"/>
        <pt x="465" y="1261" on="0"/>
        <pt x="491" y="1102" on="0"/>
        <pt x="517" y="927" on="0"/>
        <pt x="543" y="745" on="0"/>
        <pt x="564" y="576" on="0"/>
        <pt x="579" y="428" on="0"/>
        <pt x="582" y="373" on="1"/>
        <pt x="589" y="373" on="1"/>
        <pt x="748" y="1060" on="1"/>
        <pt x="723" y="1082" on="0"/>
        <pt x="677" y="1127" on="0"/>
        <pt x="634" y="1180" on="0"/>
        <pt x="595" y="1245" on="0"/>
        <pt x="576" y="1286" on="1"/>
        <pt x="611" y="1344" on="0"/>
        <pt x="706" y="1435" on="0"/>
        <pt x="813" y="1501" on="0"/>
        <pt x="927" y="1540" on="0"/>
        <pt x="981" y="1547" on="1"/>
        <pt x="1013" y="1518" on="0"/>
        <pt x="1066" y="1426" on="0"/>
        <pt x="1105" y="1316" on="0"/>
        <pt x="1128" y="1195" on="0"/>
        <pt x="1130" y="1137" on="1"/>
        <pt x="1129" y="1136" on="0"/>
        <pt x="1129" y="1135" on="1"/>
        <pt x="1132" y="1119" on="0"/>
        <pt x="1158" y="1033" on="0"/>
        <pt x="1194" y="911" on="0"/>
        <pt x="1236" y="762" on="0"/>
        <pt x="1273" y="604" on="0"/>
        <pt x="1301" y="444" on="0"/>
        <pt x="1305" y="373" on="1"/>
        <pt x="1322" y="373" on="1"/>
        <pt x="1421" y="1056" on="1"/>
        <pt x="1396" y="1078" on="0"/>
        <pt x="1340" y="1123" on="0"/>
        <pt x="1286" y="1175" on="0"/>
        <pt x="1237" y="1239" on="0"/>
        <pt x="1218" y="1280" on="1"/>
        <pt x="1242" y="1338" on="0"/>
        <pt x="1334" y="1432" on="0"/>
        <pt x="1446" y="1501" on="0"/>
        <pt x="1567" y="1543" on="0"/>
        <pt x="1621" y="1550" on="1"/>
        <pt x="1703" y="1482" on="0"/>
        <pt x="1790" y="1280" on="0"/>
        <pt x="1795" y="1165" on="1"/>
        <pt x="1492" y="269" on="1"/>
        <pt x="1509" y="233" on="0"/>
        <pt x="1538" y="141" on="0"/>
        <pt x="1549" y="76" on="1"/>
        <pt x="1518" y="51" on="0"/>
        <pt x="1423" y="18" on="0"/>
        <pt x="1313" y="2" on="0"/>
        <pt x="1196" y="4" on="0"/>
        <pt x="1089" y="22" on="0"/>
        <pt x="1001" y="55" on="0"/>
        <pt x="976" y="80" on="1"/>
        <pt x="984" y="150" on="0"/>
        <pt x="1020" y="255" on="0"/>
        <pt x="1040" y="298" on="1"/>
        <pt x="898" y="790" on="1"/>
        <pt x="768" y="272" on="1"/>
        <pt x="785" y="235" on="0"/>
        <pt x="815" y="142" on="0"/>
        <pt x="826" y="76" on="1"/>
        <pt x="795" y="51" on="0"/>
        <pt x="700" y="18" on="0"/>
        <pt x="590" y="2" on="0"/>
        <pt x="473" y="4" on="0"/>
        <pt x="366" y="22" on="0"/>
        <pt x="278" y="55" on="0"/>
      </contour>
    </TTGlyph>
    <TTGlyph name="Wacute" xMin="-69" yMin="2" xMax="1795" yMax="2020">
      <component glyphName="W" x="0" y="0" flags="0x204"/>
      <component glyphName="acute.cap" x="607" y="0" flags="0x4"/>
    </TTGlyph>
    <TTGlyph name="Wcircumflex" xMin="-69" yMin="2" xMax="1795" yMax="2007">
      <component glyphName="W" x="0" y="0" flags="0x204"/>
      <component glyphName="circumflex.cap" x="462" y="0" flags="0x4"/>
    </TTGlyph>
    <TTGlyph name="Wdieresis" xMin="-69" yMin="2" xMax="1795" yMax="2020">
      <component glyphName="W" x="0" y="0" flags="0x204"/>
      <component glyphName="dieresis.cap" x="386" y="0" flags="0x4"/>
    </TTGlyph>
    <TTGlyph name="Wgrave" xMin="-69" yMin="2" xMax="1795" yMax="2020">
      <component glyphName="W" x="0" y="0" flags="0x204"/>
      <component glyphName="grave.cap" x="501" y="0" flags="0x4"/>
    </TTGlyph>
    <TTGlyph name="X" xMin="26" yMin="-20" xMax="1302" yMax="1529">
      <contour>
        <pt x="293" y="-19" on="1"/>
        <pt x="264" y="-19" on="0"/>
        <pt x="205" y="23" on="0"/>
        <pt x="151" y="93" on="0"/>
        <pt x="103" y="184" on="0"/>
        <pt x="65" y="282" on="0"/>
        <pt x="38" y="379" on="0"/>
        <pt x="32" y="421" on="1"/>
        <pt x="73" y="480" on="0"/>
        <pt x="173" y="551" on="0"/>
        <pt x="240" y="575" on="1"/>
        <pt x="381" y="433" on="1"/>
        <pt x="505" y="746" on="1"/>
        <pt x="318" y="1120" on="1"/>
        <pt x="163" y="1023" on="1"/>
        <pt x="26" y="1157" on="1"/>
        <pt x="32" y="1199" on="0"/>
        <pt x="63" y="1302" on="0"/>
        <pt x="109" y="1402" on="0"/>
        <pt x="171" y="1484" on="0"/>
        <pt x="209" y="1505" on="1"/>
        <pt x="290" y="1527" on="0"/>
        <pt x="356" y="1527" on="1"/>
        <pt x="443" y="1527" on="0"/>
        <pt x="560" y="1447" on="0"/>
        <pt x="599" y="1362" on="1"/>
        <pt x="628" y="1299" on="0"/>
        <pt x="666" y="1178" on="0"/>
        <pt x="688" y="1068" on="0"/>
        <pt x="699" y="973" on="0"/>
        <pt x="702" y="936" on="1"/>
        <pt x="714" y="1028" on="0"/>
        <pt x="742" y="1191" on="0"/>
        <pt x="770" y="1317" on="0"/>
        <pt x="795" y="1398" on="0"/>
        <pt x="804" y="1408" on="1"/>
        <pt x="822" y="1428" on="0"/>
        <pt x="882" y="1470" on="0"/>
        <pt x="957" y="1504" on="0"/>
        <pt x="1044" y="1527" on="0"/>
        <pt x="1088" y="1529" on="1"/>
        <pt x="1129" y="1492" on="0"/>
        <pt x="1206" y="1393" on="0"/>
        <pt x="1265" y="1280" on="0"/>
        <pt x="1301" y="1157" on="0"/>
        <pt x="1302" y="1097" on="1"/>
        <pt x="1257" y="1034" on="0"/>
        <pt x="1132" y="958" on="0"/>
        <pt x="1050" y="940" on="1"/>
        <pt x="937" y="1126" on="1"/>
        <pt x="778" y="786" on="1"/>
        <pt x="1013" y="379" on="1"/>
        <pt x="1155" y="505" on="1"/>
        <pt x="1290" y="405" on="1"/>
        <pt x="1260" y="227" on="0"/>
        <pt x="1184" y="89" on="1"/>
        <pt x="1154" y="34" on="0"/>
        <pt x="1039" y="-20" on="0"/>
        <pt x="959" y="-20" on="1"/>
        <pt x="929" y="-20" on="0"/>
        <pt x="868" y="-7" on="0"/>
        <pt x="814" y="18" on="0"/>
        <pt x="770" y="57" on="0"/>
        <pt x="755" y="84" on="1"/>
        <pt x="723" y="141" on="0"/>
        <pt x="677" y="270" on="0"/>
        <pt x="644" y="398" on="0"/>
        <pt x="625" y="515" on="0"/>
        <pt x="621" y="560" on="1"/>
        <pt x="615" y="562" on="1"/>
        <pt x="608" y="536" on="0"/>
        <pt x="591" y="469" on="0"/>
        <pt x="570" y="393" on="0"/>
        <pt x="546" y="311" on="0"/>
        <pt x="531" y="271" on="1"/>
        <pt x="511" y="215" on="0"/>
        <pt x="462" y="110" on="0"/>
        <pt x="403" y="29" on="0"/>
        <pt x="333" y="-19" on="0"/>
      </contour>
    </TTGlyph>
    <TTGlyph name="Y" xMin="0" yMin="-20" xMax="1165" yMax="1549">
      <contour>
        <pt x="374" y="228" on="1"/>
        <pt x="373" y="271" on="0"/>
        <pt x="382" y="345" on="0"/>
        <pt x="394" y="412" on="0"/>
        <pt x="407" y="474" on="0"/>
        <pt x="411" y="505" on="1"/>
        <pt x="262" y="621" on="1"/>
        <pt x="120" y="1131" on="1"/>
        <pt x="0" y="1269" on="1"/>
        <pt x="2" y="1325" on="0"/>
        <pt x="34" y="1407" on="0"/>
        <pt x="83" y="1465" on="0"/>
        <pt x="141" y="1501" on="0"/>
        <pt x="199" y="1521" on="0"/>
        <pt x="249" y="1529" on="0"/>
        <pt x="265" y="1529" on="1"/>
        <pt x="319" y="1530" on="0"/>
        <pt x="412" y="1508" on="0"/>
        <pt x="452" y="1480" on="1"/>
        <pt x="585" y="640" on="1"/>
        <pt x="630" y="640" on="1"/>
        <pt x="783" y="1078" on="1"/>
        <pt x="758" y="1100" on="0"/>
        <pt x="712" y="1147" on="0"/>
        <pt x="669" y="1201" on="0"/>
        <pt x="630" y="1267" on="0"/>
        <pt x="611" y="1308" on="1"/>
        <pt x="635" y="1366" on="0"/>
        <pt x="723" y="1451" on="0"/>
        <pt x="829" y="1509" on="0"/>
        <pt x="946" y="1542" on="0"/>
        <pt x="1000" y="1549" on="1"/>
        <pt x="1082" y="1481" on="0"/>
        <pt x="1160" y="1280" on="0"/>
        <pt x="1165" y="1165" on="1"/>
        <pt x="1145" y="1113" on="0"/>
        <pt x="1075" y="962" on="0"/>
        <pt x="987" y="797" on="0"/>
        <pt x="883" y="636" on="0"/>
        <pt x="828" y="574" on="1"/>
        <pt x="692" y="498" on="1"/>
        <pt x="723" y="307" on="1"/>
        <pt x="744" y="310" on="0"/>
        <pt x="807" y="327" on="0"/>
        <pt x="877" y="348" on="0"/>
        <pt x="945" y="372" on="0"/>
        <pt x="969" y="382" on="1"/>
        <pt x="1044" y="236" on="1"/>
        <pt x="1025" y="192" on="0"/>
        <pt x="941" y="101" on="0"/>
        <pt x="836" y="27" on="0"/>
        <pt x="722" y="-20" on="0"/>
        <pt x="673" y="-20" on="1"/>
        <pt x="620" y="-20" on="0"/>
        <pt x="514" y="14" on="0"/>
        <pt x="429" y="78" on="0"/>
        <pt x="375" y="170" on="0"/>
      </contour>
    </TTGlyph>
    <TTGlyph name="Yacute" xMin="0" yMin="-20" xMax="1165" yMax="2020">
      <component glyphName="Y" x="0" y="0" flags="0x204"/>
      <component glyphName="acute.cap" x="304" y="0" flags="0x4"/>
    </TTGlyph>
    <TTGlyph name="Ycircumflex" xMin="0" yMin="-20" xMax="1165" yMax="2007">
      <component glyphName="Y" x="0" y="0" flags="0x204"/>
      <component glyphName="circumflex.cap" x="159" y="0" flags="0x4"/>
    </TTGlyph>
    <TTGlyph name="Ydieresis" xMin="0" yMin="-20" xMax="1165" yMax="2020">
      <component glyphName="Y" x="0" y="0" flags="0x204"/>
      <component glyphName="dieresis.cap" x="83" y="0" flags="0x4"/>
    </TTGlyph>
    <TTGlyph name="Ygrave" xMin="0" yMin="-20" xMax="1165" yMax="2020">
      <component glyphName="Y" x="0" y="0" flags="0x204"/>
      <component glyphName="grave.cap" x="198" y="0" flags="0x4"/>
    </TTGlyph>
    <TTGlyph name="Z" xMin="26" yMin="-20" xMax="1179" yMax="1549">
      <contour>
        <pt x="206" y="-20" on="1"/>
        <pt x="170" y="2" on="0"/>
        <pt x="103" y="97" on="0"/>
        <pt x="53" y="212" on="0"/>
        <pt x="26" y="332" on="0"/>
        <pt x="30" y="381" on="1"/>
        <pt x="62" y="425" on="0"/>
        <pt x="138" y="494" on="0"/>
        <pt x="168" y="511" on="1"/>
        <pt x="196" y="505" on="0"/>
        <pt x="257" y="486" on="0"/>
        <pt x="288" y="469" on="1"/>
        <pt x="653" y="1154" on="1"/>
        <pt x="416" y="1190" on="1"/>
        <pt x="371" y="887" on="1"/>
        <pt x="186" y="847" on="1"/>
        <pt x="158" y="877" on="0"/>
        <pt x="105" y="996" on="0"/>
        <pt x="67" y="1139" on="0"/>
        <pt x="53" y="1289" on="0"/>
        <pt x="65" y="1351" on="1"/>
        <pt x="71" y="1379" on="0"/>
        <pt x="112" y="1431" on="0"/>
        <pt x="170" y="1476" on="0"/>
        <pt x="237" y="1511" on="0"/>
        <pt x="297" y="1536" on="0"/>
        <pt x="345" y="1549" on="0"/>
        <pt x="356" y="1549" on="1"/>
        <pt x="411" y="1541" on="0"/>
        <pt x="531" y="1515" on="0"/>
        <pt x="653" y="1482" on="0"/>
        <pt x="772" y="1443" on="0"/>
        <pt x="826" y="1423" on="1"/>
        <pt x="845" y="1443" on="0"/>
        <pt x="889" y="1482" on="0"/>
        <pt x="939" y="1515" on="0"/>
        <pt x="996" y="1541" on="0"/>
        <pt x="1030" y="1549" on="1"/>
        <pt x="1087" y="1535" on="0"/>
        <pt x="1155" y="1441" on="0"/>
        <pt x="1179" y="1315" on="0"/>
        <pt x="1162" y="1175" on="0"/>
        <pt x="1134" y="1116" on="1"/>
        <pt x="1011" y="1120" on="1"/>
        <pt x="994" y="1093" on="0"/>
        <pt x="931" y="993" on="0"/>
        <pt x="849" y="868" on="0"/>
        <pt x="756" y="727" on="0"/>
        <pt x="663" y="589" on="0"/>
        <pt x="575" y="465" on="0"/>
        <pt x="541" y="419" on="1"/>
        <pt x="541" y="418" on="1"/>
        <pt x="850" y="360" on="1"/>
        <pt x="945" y="649" on="1"/>
        <pt x="1129" y="625" on="1"/>
        <pt x="1135" y="608" on="0"/>
        <pt x="1147" y="554" on="0"/>
        <pt x="1156" y="486" on="0"/>
        <pt x="1161" y="409" on="0"/>
        <pt x="1161" y="369" on="1"/>
        <pt x="1161" y="298" on="0"/>
        <pt x="1140" y="159" on="0"/>
        <pt x="1084" y="49" on="0"/>
        <pt x="988" y="-20" on="0"/>
        <pt x="912" y="-20" on="1"/>
        <pt x="858" y="-20" on="0"/>
        <pt x="736" y="23" on="0"/>
        <pt x="614" y="92" on="0"/>
        <pt x="497" y="176" on="0"/>
        <pt x="448" y="218" on="1"/>
        <pt x="434" y="173" on="0"/>
        <pt x="388" y="87" on="0"/>
        <pt x="326" y="21" on="0"/>
        <pt x="250" y="-20" on="0"/>
      </contour>
    </TTGlyph>
    <TTGlyph name="Zacute" xMin="26" yMin="-20" xMax="1179" yMax="2020">
      <component glyphName="Z" x="0" y="0" flags="0x204"/>
      <component glyphName="acute.cap" x="352" y="0" flags="0x4"/>
    </TTGlyph>
    <TTGlyph name="Zcaron" xMin="26" yMin="-20" xMax="1179" yMax="2020">
      <component glyphName="Z" x="0" y="0" flags="0x204"/>
      <component glyphName="caron.cap" x="187" y="0" flags="0x4"/>
    </TTGlyph>
    <TTGlyph name="Zdotaccent" xMin="26" yMin="-20" xMax="1179" yMax="2000">
      <component glyphName="Z" x="0" y="0" flags="0x204"/>
      <component glyphName="dotaccent.cap" x="413" y="0" flags="0x4"/>
    </TTGlyph>
    <TTGlyph name="a" xMin="45" yMin="-22" xMax="1201" yMax="1203">
      <contour>
        <pt x="130" y="146" on="1"/>
        <pt x="130" y="156" on="0"/>
        <pt x="131" y="198" on="0"/>
        <pt x="133" y="247" on="0"/>
        <pt x="133" y="299" on="0"/>
        <pt x="133" y="319" on="1"/>
        <pt x="132" y="378" on="0"/>
        <pt x="122" y="529" on="0"/>
        <pt x="103" y="685" on="0"/>
        <pt x="75" y="835" on="0"/>
        <pt x="57" y="894" on="1"/>
        <pt x="51" y="914" on="0"/>
        <pt x="45" y="939" on="0"/>
        <pt x="45" y="949" on="1"/>
        <pt x="45" y="961" on="0"/>
        <pt x="56" y="985" on="0"/>
        <pt x="70" y="1004" on="1"/>
        <pt x="116" y="1063" on="0"/>
        <pt x="229" y="1138" on="0"/>
        <pt x="335" y="1183" on="0"/>
        <pt x="417" y="1201" on="0"/>
        <pt x="432" y="1203" on="1"/>
        <pt x="472" y="1175" on="0"/>
        <pt x="542" y="1105" on="0"/>
        <pt x="603" y="1027" on="0"/>
        <pt x="655" y="946" on="0"/>
        <pt x="678" y="907" on="1"/>
        <pt x="677" y="951" on="0"/>
        <pt x="675" y="1030" on="0"/>
        <pt x="672" y="1094" on="0"/>
        <pt x="670" y="1141" on="0"/>
        <pt x="670" y="1153" on="1"/>
        <pt x="686" y="1164" on="0"/>
        <pt x="780" y="1181" on="0"/>
        <pt x="838" y="1181" on="1"/>
        <pt x="930" y="1181" on="0"/>
        <pt x="1061" y="1123" on="0"/>
        <pt x="1115" y="1060" on="1"/>
        <pt x="1117" y="1044" on="0"/>
        <pt x="1107" y="953" on="0"/>
        <pt x="1085" y="824" on="0"/>
        <pt x="1053" y="670" on="0"/>
        <pt x="1014" y="514" on="0"/>
        <pt x="968" y="365" on="0"/>
        <pt x="943" y="307" on="1"/>
        <pt x="1116" y="399" on="1"/>
        <pt x="1201" y="278" on="1"/>
        <pt x="1175" y="218" on="0"/>
        <pt x="1112" y="110" on="0"/>
        <pt x="1040" y="28" on="0"/>
        <pt x="959" y="-20" on="0"/>
        <pt x="916" y="-21" on="1"/>
        <pt x="893" y="-21" on="0"/>
        <pt x="841" y="-7" on="0"/>
        <pt x="790" y="20" on="0"/>
        <pt x="742" y="57" on="0"/>
        <pt x="721" y="79" on="1"/>
        <pt x="712" y="89" on="0"/>
        <pt x="691" y="111" on="0"/>
        <pt x="675" y="142" on="0"/>
        <pt x="668" y="187" on="0"/>
        <pt x="671" y="220" on="1"/>
        <pt x="675" y="258" on="0"/>
        <pt x="682" y="326" on="0"/>
        <pt x="691" y="391" on="0"/>
        <pt x="700" y="455" on="0"/>
        <pt x="705" y="489" on="1"/>
        <pt x="690" y="496" on="1"/>
        <pt x="676" y="461" on="0"/>
        <pt x="640" y="372" on="0"/>
        <pt x="598" y="276" on="0"/>
        <pt x="551" y="180" on="0"/>
        <pt x="503" y="94" on="0"/>
        <pt x="453" y="24" on="0"/>
        <pt x="430" y="4" on="1"/>
        <pt x="402" y="-18" on="0"/>
        <pt x="374" y="-20" on="1"/>
        <pt x="347" y="-22" on="0"/>
        <pt x="293" y="9" on="0"/>
        <pt x="263" y="30" on="1"/>
        <pt x="245" y="43" on="0"/>
        <pt x="199" y="68" on="0"/>
        <pt x="158" y="95" on="0"/>
        <pt x="130" y="126" on="0"/>
      </contour>
      <contour>
        <pt x="461" y="338" on="1"/>
        <pt x="480" y="356" on="0"/>
        <pt x="521" y="413" on="0"/>
        <pt x="564" y="481" on="0"/>
        <pt x="605" y="553" on="0"/>
        <pt x="641" y="619" on="0"/>
        <pt x="669" y="675" on="0"/>
        <pt x="677" y="693" on="1"/>
        <pt x="678" y="708" on="0"/>
        <pt x="679" y="713" on="0"/>
        <pt x="679" y="720" on="0"/>
        <pt x="679" y="741" on="0"/>
        <pt x="679" y="773" on="1"/>
        <pt x="619" y="788" on="0"/>
        <pt x="513" y="808" on="0"/>
        <pt x="465" y="819" on="1"/>
        <pt x="466" y="712" on="1"/>
        <pt x="468" y="620" on="0"/>
        <pt x="449" y="443" on="0"/>
        <pt x="431" y="352" on="1"/>
      </contour>
    </TTGlyph>
    <TTGlyph name="aacute" xMin="45" yMin="-22" xMax="1201" yMax="1732">
      <component glyphName="a" x="0" y="0" flags="0x204"/>
      <component glyphName="acute" x="365" y="0" flags="0x4"/>
    </TTGlyph>
    <TTGlyph name="abreve" xMin="45" yMin="-22" xMax="1201" yMax="1705">
      <component glyphName="a" x="0" y="0" flags="0x204"/>
      <component glyphName="breve" x="199" y="0" flags="0x4"/>
    </TTGlyph>
    <TTGlyph name="acircumflex" xMin="45" yMin="-22" xMax="1201" yMax="1709">
      <component glyphName="a" x="0" y="0" flags="0x204"/>
      <component glyphName="circumflex" x="160" y="0" flags="0x4"/>
    </TTGlyph>
    <TTGlyph name="acute" xMin="75" yMin="1247" xMax="598" yMax="1732">
      <contour>
        <pt x="174" y="1247" on="1"/>
        <pt x="162" y="1257" on="0"/>
        <pt x="135" y="1290" on="0"/>
        <pt x="108" y="1330" on="0"/>
        <pt x="84" y="1377" on="0"/>
        <pt x="75" y="1402" on="1"/>
        <pt x="122" y="1442" on="0"/>
        <pt x="199" y="1518" on="0"/>
        <pt x="270" y="1598" on="0"/>
        <pt x="341" y="1683" on="0"/>
        <pt x="383" y="1732" on="1"/>
        <pt x="427" y="1717" on="0"/>
        <pt x="505" y="1655" on="0"/>
        <pt x="564" y="1577" on="0"/>
        <pt x="598" y="1488" on="0"/>
        <pt x="598" y="1446" on="1"/>
        <pt x="565" y="1417" on="0"/>
        <pt x="462" y="1355" on="0"/>
        <pt x="345" y="1300" on="0"/>
        <pt x="225" y="1257" on="0"/>
      </contour>
    </TTGlyph>
    <TTGlyph name="acute.cap" xMin="55" yMin="1621" xMax="623" yMax="2020">
      <contour>
        <pt x="119" y="1629" on="1"/>
        <pt x="93" y="1657" on="0"/>
        <pt x="62" y="1738" on="0"/>
        <pt x="55" y="1786" on="1"/>
        <pt x="119" y="1818" on="0"/>
        <pt x="220" y="1874" on="0"/>
        <pt x="309" y="1929" on="0"/>
        <pt x="395" y="1986" on="0"/>
        <pt x="443" y="2020" on="1"/>
        <pt x="483" y="1996" on="0"/>
        <pt x="547" y="1930" on="0"/>
        <pt x="592" y="1855" on="0"/>
        <pt x="619" y="1776" on="0"/>
        <pt x="623" y="1738" on="1"/>
        <pt x="567" y="1708" on="0"/>
        <pt x="430" y="1661" on="0"/>
        <pt x="292" y="1631" on="0"/>
        <pt x="165" y="1621" on="0"/>
      </contour>
    </TTGlyph>
    <TTGlyph name="adieresis" xMin="45" yMin="-22" xMax="1201" yMax="1681">
      <component glyphName="a" x="0" y="0" flags="0x204"/>
      <component glyphName="dieresis" x="95" y="0" flags="0x4"/>
    </TTGlyph>
    <TTGlyph name="ae" xMin="45" yMin="-20" xMax="1493" yMax="1224">
      <contour>
        <pt x="116" y="146" on="1"/>
        <pt x="116" y="156" on="0"/>
        <pt x="118" y="198" on="0"/>
        <pt x="120" y="247" on="0"/>
        <pt x="122" y="299" on="0"/>
        <pt x="122" y="319" on="1"/>
        <pt x="122" y="378" on="0"/>
        <pt x="114" y="529" on="0"/>
        <pt x="98" y="685" on="0"/>
        <pt x="73" y="835" on="0"/>
        <pt x="56" y="894" on="1"/>
        <pt x="50" y="914" on="0"/>
        <pt x="45" y="939" on="0"/>
        <pt x="45" y="949" on="1"/>
        <pt x="45" y="961" on="0"/>
        <pt x="56" y="985" on="0"/>
        <pt x="71" y="1004" on="1"/>
        <pt x="117" y="1063" on="0"/>
        <pt x="232" y="1138" on="0"/>
        <pt x="338" y="1183" on="0"/>
        <pt x="421" y="1201" on="0"/>
        <pt x="436" y="1203" on="1"/>
        <pt x="468" y="1180" on="0"/>
        <pt x="535" y="1107" on="0"/>
        <pt x="597" y="1023" on="0"/>
        <pt x="651" y="939" on="0"/>
        <pt x="671" y="907" on="1"/>
        <pt x="677" y="929" on="0"/>
        <pt x="690" y="987" on="0"/>
        <pt x="716" y="1047" on="0"/>
        <pt x="763" y="1105" on="0"/>
        <pt x="804" y="1129" on="1"/>
        <pt x="827" y="1142" on="0"/>
        <pt x="892" y="1175" on="0"/>
        <pt x="964" y="1204" on="0"/>
        <pt x="1034" y="1224" on="0"/>
        <pt x="1061" y="1224" on="1"/>
        <pt x="1081" y="1224" on="0"/>
        <pt x="1132" y="1200" on="0"/>
        <pt x="1188" y="1165" on="0"/>
        <pt x="1247" y="1125" on="0"/>
        <pt x="1276" y="1110" on="1"/>
        <pt x="1325" y="1084" on="0"/>
        <pt x="1404" y="1055" on="0"/>
        <pt x="1451" y="1038" on="1"/>
        <pt x="1458" y="1035" on="0"/>
        <pt x="1473" y="1024" on="0"/>
        <pt x="1485" y="993" on="0"/>
        <pt x="1493" y="937" on="0"/>
        <pt x="1493" y="889" on="1"/>
        <pt x="1493" y="854" on="0"/>
        <pt x="1483" y="791" on="0"/>
        <pt x="1472" y="770" on="1"/>
        <pt x="1468" y="763" on="0"/>
        <pt x="1424" y="707" on="0"/>
        <pt x="1354" y="626" on="0"/>
        <pt x="1266" y="526" on="0"/>
        <pt x="1170" y="423" on="0"/>
        <pt x="1071" y="324" on="0"/>
        <pt x="1027" y="284" on="1"/>
        <pt x="1056" y="284" on="1"/>
        <pt x="1081" y="289" on="0"/>
        <pt x="1153" y="321" on="0"/>
        <pt x="1239" y="364" on="0"/>
        <pt x="1334" y="415" on="0"/>
        <pt x="1382" y="438" on="1"/>
        <pt x="1467" y="299" on="1"/>
        <pt x="1447" y="272" on="0"/>
        <pt x="1380" y="204" on="0"/>
        <pt x="1297" y="133" on="0"/>
        <pt x="1200" y="65" on="0"/>
        <pt x="1100" y="12" on="0"/>
        <pt x="1000" y="-20" on="0"/>
        <pt x="956" y="-20" on="1"/>
        <pt x="939" y="-20" on="0"/>
        <pt x="906" y="-5" on="0"/>
        <pt x="869" y="22" on="0"/>
        <pt x="827" y="60" on="0"/>
        <pt x="801" y="82" on="1"/>
        <pt x="765" y="113" on="0"/>
        <pt x="722" y="156" on="0"/>
        <pt x="699" y="188" on="0"/>
        <pt x="693" y="213" on="0"/>
        <pt x="694" y="227" on="1"/>
        <pt x="696" y="258" on="0"/>
        <pt x="701" y="327" on="0"/>
        <pt x="704" y="396" on="0"/>
        <pt x="702" y="463" on="0"/>
        <pt x="698" y="492" on="1"/>
        <pt x="683" y="496" on="1"/>
        <pt x="666" y="453" on="0"/>
        <pt x="620" y="343" on="0"/>
        <pt x="566" y="228" on="0"/>
        <pt x="506" y="119" on="0"/>
        <pt x="444" y="33" on="0"/>
        <pt x="384" y="-20" on="0"/>
        <pt x="357" y="-20" on="1"/>
        <pt x="329" y="-20" on="0"/>
        <pt x="277" y="8" on="0"/>
        <pt x="247" y="30" on="1"/>
        <pt x="229" y="43" on="0"/>
        <pt x="183" y="68" on="0"/>
        <pt x="143" y="95" on="0"/>
        <pt x="116" y="126" on="0"/>
      </contour>
      <contour>
        <pt x="1009" y="417" on="1"/>
        <pt x="1026" y="442" on="0"/>
        <pt x="1082" y="528" on="0"/>
        <pt x="1145" y="632" on="0"/>
        <pt x="1205" y="743" on="0"/>
        <pt x="1227" y="794" on="1"/>
        <pt x="1201" y="800" on="0"/>
        <pt x="1102" y="829" on="0"/>
        <pt x="1033" y="851" on="1"/>
        <pt x="1033" y="837" on="0"/>
        <pt x="1031" y="776" on="0"/>
        <pt x="1028" y="697" on="0"/>
        <pt x="1024" y="607" on="0"/>
        <pt x="1019" y="521" on="0"/>
        <pt x="1013" y="445" on="0"/>
        <pt x="1010" y="420" on="1"/>
        <pt x="1010" y="419" on="0"/>
        <pt x="1009" y="418" on="0"/>
      </contour>
      <contour>
        <pt x="450" y="338" on="1"/>
        <pt x="469" y="356" on="0"/>
        <pt x="511" y="413" on="0"/>
        <pt x="555" y="481" on="0"/>
        <pt x="597" y="553" on="0"/>
        <pt x="633" y="619" on="0"/>
        <pt x="662" y="675" on="0"/>
        <pt x="670" y="693" on="1"/>
        <pt x="671" y="702" on="0"/>
        <pt x="672" y="710" on="0"/>
        <pt x="672" y="714" on="0"/>
        <pt x="672" y="717" on="0"/>
        <pt x="672" y="720" on="1"/>
        <pt x="672" y="773" on="1"/>
        <pt x="612" y="788" on="0"/>
        <pt x="514" y="814" on="0"/>
        <pt x="462" y="819" on="1"/>
        <pt x="462" y="712" on="1"/>
        <pt x="462" y="620" on="0"/>
        <pt x="440" y="443" on="0"/>
        <pt x="420" y="352" on="1"/>
      </contour>
    </TTGlyph>
    <TTGlyph name="aeacute" xMin="45" yMin="-20" xMax="1493" yMax="1732">
      <component glyphName="ae" x="0" y="0" flags="0x204"/>
      <component glyphName="acute" x="485" y="0" flags="0x4"/>
    </TTGlyph>
    <TTGlyph name="agrave" xMin="45" yMin="-22" xMax="1201" yMax="1732">
      <component glyphName="a" x="0" y="0" flags="0x204"/>
      <component glyphName="grave" x="179" y="0" flags="0x4"/>
    </TTGlyph>
    <TTGlyph name="amacron" xMin="45" yMin="-22" xMax="1201" yMax="1608">
      <component glyphName="a" x="0" y="0" flags="0x204"/>
      <component glyphName="macron" x="243" y="0" flags="0x4"/>
    </TTGlyph>
    <TTGlyph name="ampersand" xMin="101" yMin="-20" xMax="1410" yMax="1549">
      <contour>
        <pt x="148" y="147" on="1"/>
        <pt x="132" y="198" on="0"/>
        <pt x="115" y="316" on="0"/>
        <pt x="115" y="430" on="0"/>
        <pt x="132" y="529" on="0"/>
        <pt x="150" y="561" on="1"/>
        <pt x="169" y="583" on="0"/>
        <pt x="221" y="630" on="0"/>
        <pt x="279" y="674" on="0"/>
        <pt x="341" y="711" on="0"/>
        <pt x="372" y="725" on="1"/>
        <pt x="318" y="798" on="0"/>
        <pt x="241" y="917" on="0"/>
        <pt x="181" y="1032" on="0"/>
        <pt x="130" y="1155" on="0"/>
        <pt x="101" y="1232" on="1"/>
        <pt x="106" y="1259" on="0"/>
        <pt x="144" y="1324" on="0"/>
        <pt x="200" y="1390" on="0"/>
        <pt x="270" y="1453" on="0"/>
        <pt x="344" y="1505" on="0"/>
        <pt x="417" y="1542" on="0"/>
        <pt x="448" y="1549" on="1"/>
        <pt x="463" y="1547" on="0"/>
        <pt x="521" y="1535" on="0"/>
        <pt x="591" y="1518" on="0"/>
        <pt x="669" y="1498" on="0"/>
        <pt x="740" y="1478" on="0"/>
        <pt x="797" y="1458" on="0"/>
        <pt x="813" y="1450" on="1"/>
        <pt x="1156" y="1481" on="1"/>
        <pt x="1169" y="1417" on="0"/>
        <pt x="1169" y="1302" on="0"/>
        <pt x="1149" y="1202" on="0"/>
        <pt x="1116" y="1119" on="0"/>
        <pt x="1078" y="1057" on="0"/>
        <pt x="1041" y="1017" on="0"/>
        <pt x="1027" y="1010" on="1"/>
        <pt x="1005" y="1011" on="0"/>
        <pt x="934" y="1030" on="0"/>
        <pt x="849" y="1061" on="0"/>
        <pt x="755" y="1104" on="0"/>
        <pt x="667" y="1153" on="0"/>
        <pt x="589" y="1207" on="0"/>
        <pt x="563" y="1235" on="1"/>
        <pt x="501" y="1187" on="1"/>
        <pt x="582" y="851" on="1"/>
        <pt x="607" y="862" on="0"/>
        <pt x="667" y="874" on="0"/>
        <pt x="693" y="876" on="1"/>
        <pt x="712" y="845" on="0"/>
        <pt x="727" y="773" on="0"/>
        <pt x="724" y="699" on="0"/>
        <pt x="705" y="628" on="0"/>
        <pt x="676" y="569" on="0"/>
        <pt x="638" y="526" on="0"/>
        <pt x="618" y="517" on="1"/>
        <pt x="596" y="520" on="0"/>
        <pt x="528" y="549" on="0"/>
        <pt x="497" y="566" on="1"/>
        <pt x="465" y="532" on="1"/>
        <pt x="463" y="507" on="0"/>
        <pt x="461" y="452" on="0"/>
        <pt x="461" y="399" on="0"/>
        <pt x="464" y="350" on="0"/>
        <pt x="466" y="331" on="1"/>
        <pt x="496" y="315" on="0"/>
        <pt x="596" y="283" on="0"/>
        <pt x="709" y="259" on="0"/>
        <pt x="821" y="246" on="0"/>
        <pt x="864" y="250" on="1"/>
        <pt x="835" y="365" on="0"/>
        <pt x="781" y="589" on="0"/>
        <pt x="767" y="702" on="1"/>
        <pt x="773" y="733" on="0"/>
        <pt x="797" y="805" on="0"/>
        <pt x="833" y="874" on="0"/>
        <pt x="882" y="930" on="0"/>
        <pt x="912" y="945" on="1"/>
        <pt x="1100" y="875" on="1"/>
        <pt x="1363" y="945" on="1"/>
        <pt x="1389" y="899" on="0"/>
        <pt x="1410" y="809" on="0"/>
        <pt x="1410" y="766" on="1"/>
        <pt x="1410" y="715" on="0"/>
        <pt x="1389" y="625" on="0"/>
        <pt x="1358" y="555" on="0"/>
        <pt x="1324" y="510" on="0"/>
        <pt x="1311" y="503" on="1"/>
        <pt x="1217" y="541" on="0"/>
        <pt x="1123" y="605" on="1"/>
        <pt x="1110" y="593" on="1"/>
        <pt x="1126" y="494" on="0"/>
        <pt x="1138" y="300" on="0"/>
        <pt x="1138" y="201" on="1"/>
        <pt x="1108" y="163" on="0"/>
        <pt x="1016" y="90" on="0"/>
        <pt x="906" y="30" on="0"/>
        <pt x="785" y="-13" on="0"/>
        <pt x="727" y="-20" on="1"/>
        <pt x="682" y="-18" on="0"/>
        <pt x="574" y="-1" on="0"/>
        <pt x="461" y="24" on="0"/>
        <pt x="350" y="55" on="0"/>
        <pt x="251" y="91" on="0"/>
        <pt x="172" y="128" on="0"/>
      </contour>
    </TTGlyph>
    <TTGlyph name="aogonek" xMin="45" yMin="-438" xMax="1194" yMax="1203">
      <contour>
        <pt x="116" y="146" on="1"/>
        <pt x="116" y="156" on="0"/>
        <pt x="118" y="198" on="0"/>
        <pt x="120" y="247" on="0"/>
        <pt x="122" y="299" on="0"/>
        <pt x="122" y="319" on="1"/>
        <pt x="122" y="378" on="0"/>
        <pt x="114" y="529" on="0"/>
        <pt x="98" y="685" on="0"/>
        <pt x="73" y="835" on="0"/>
        <pt x="56" y="894" on="1"/>
        <pt x="50" y="914" on="0"/>
        <pt x="45" y="939" on="0"/>
        <pt x="45" y="949" on="1"/>
        <pt x="45" y="961" on="0"/>
        <pt x="57" y="985" on="0"/>
        <pt x="71" y="1004" on="1"/>
        <pt x="117" y="1063" on="0"/>
        <pt x="232" y="1138" on="0"/>
        <pt x="339" y="1183" on="0"/>
        <pt x="421" y="1201" on="0"/>
        <pt x="436" y="1203" on="1"/>
        <pt x="476" y="1175" on="0"/>
        <pt x="542" y="1105" on="0"/>
        <pt x="599" y="1027" on="0"/>
        <pt x="648" y="946" on="0"/>
        <pt x="671" y="907" on="1"/>
        <pt x="670" y="951" on="0"/>
        <pt x="668" y="1030" on="0"/>
        <pt x="665" y="1094" on="0"/>
        <pt x="663" y="1141" on="0"/>
        <pt x="663" y="1153" on="1"/>
        <pt x="679" y="1164" on="0"/>
        <pt x="773" y="1181" on="0"/>
        <pt x="831" y="1181" on="1"/>
        <pt x="923" y="1181" on="0"/>
        <pt x="1054" y="1123" on="0"/>
        <pt x="1108" y="1060" on="1"/>
        <pt x="1110" y="1044" on="0"/>
        <pt x="1100" y="953" on="0"/>
        <pt x="1078" y="824" on="0"/>
        <pt x="1046" y="670" on="0"/>
        <pt x="1007" y="514" on="0"/>
        <pt x="961" y="365" on="0"/>
        <pt x="936" y="307" on="1"/>
        <pt x="1109" y="399" on="1"/>
        <pt x="1194" y="278" on="1"/>
        <pt x="1173" y="229" on="0"/>
        <pt x="1124" y="140" on="0"/>
        <pt x="1096" y="103" on="1"/>
        <pt x="1078" y="75" on="0"/>
        <pt x="1035" y="2" on="0"/>
        <pt x="991" y="-73" on="0"/>
        <pt x="951" y="-144" on="0"/>
        <pt x="937" y="-170" on="1"/>
        <pt x="951" y="-183" on="1"/>
        <pt x="1147" y="-116" on="1"/>
        <pt x="1194" y="-243" on="1"/>
        <pt x="1143" y="-342" on="0"/>
        <pt x="1020" y="-438" on="0"/>
        <pt x="932" y="-438" on="1"/>
        <pt x="896" y="-438" on="0"/>
        <pt x="809" y="-398" on="0"/>
        <pt x="735" y="-336" on="0"/>
        <pt x="685" y="-261" on="0"/>
        <pt x="685" y="-225" on="1"/>
        <pt x="685" y="-194" on="0"/>
        <pt x="712" y="-135" on="0"/>
        <pt x="755" y="-79" on="0"/>
        <pt x="811" y="-29" on="0"/>
        <pt x="840" y="-7" on="1"/>
        <pt x="806" y="5" on="0"/>
        <pt x="741" y="50" on="0"/>
        <pt x="714" y="79" on="1"/>
        <pt x="705" y="89" on="0"/>
        <pt x="684" y="111" on="0"/>
        <pt x="668" y="142" on="0"/>
        <pt x="661" y="187" on="0"/>
        <pt x="664" y="220" on="1"/>
        <pt x="668" y="258" on="0"/>
        <pt x="675" y="326" on="0"/>
        <pt x="684" y="391" on="0"/>
        <pt x="693" y="455" on="0"/>
        <pt x="698" y="489" on="1"/>
        <pt x="683" y="496" on="1"/>
        <pt x="669" y="461" on="0"/>
        <pt x="632" y="372" on="0"/>
        <pt x="588" y="276" on="0"/>
        <pt x="539" y="180" on="0"/>
        <pt x="488" y="94" on="0"/>
        <pt x="437" y="24" on="0"/>
        <pt x="413" y="4" on="1"/>
        <pt x="385" y="-18" on="0"/>
        <pt x="357" y="-20" on="1"/>
        <pt x="330" y="-22" on="0"/>
        <pt x="276" y="9" on="0"/>
        <pt x="247" y="30" on="1"/>
        <pt x="229" y="43" on="0"/>
        <pt x="183" y="68" on="0"/>
        <pt x="143" y="95" on="0"/>
        <pt x="116" y="126" on="0"/>
      </contour>
      <contour>
        <pt x="450" y="338" on="1"/>
        <pt x="469" y="356" on="0"/>
        <pt x="511" y="413" on="0"/>
        <pt x="555" y="481" on="0"/>
        <pt x="597" y="553" on="0"/>
        <pt x="633" y="619" on="0"/>
        <pt x="662" y="675" on="0"/>
        <pt x="670" y="693" on="1"/>
        <pt x="671" y="708" on="0"/>
        <pt x="672" y="713" on="0"/>
        <pt x="672" y="720" on="0"/>
        <pt x="672" y="741" on="0"/>
        <pt x="672" y="773" on="1"/>
        <pt x="612" y="788" on="0"/>
        <pt x="510" y="808" on="0"/>
        <pt x="462" y="819" on="1"/>
        <pt x="462" y="712" on="1"/>
        <pt x="462" y="620" on="0"/>
        <pt x="440" y="443" on="0"/>
        <pt x="420" y="352" on="1"/>
      </contour>
    </TTGlyph>
    <TTGlyph name="approxequal" xMin="32" yMin="89" xMax="1123" yMax="1046">
      <contour>
        <pt x="32" y="705" on="1"/>
        <pt x="38" y="734" on="0"/>
        <pt x="75" y="808" on="0"/>
        <pt x="128" y="884" on="0"/>
        <pt x="195" y="956" on="0"/>
        <pt x="269" y="1012" on="0"/>
        <pt x="347" y="1046" on="0"/>
        <pt x="385" y="1046" on="1"/>
        <pt x="407" y="1046" on="0"/>
        <pt x="475" y="1028" on="0"/>
        <pt x="557" y="999" on="0"/>
        <pt x="646" y="964" on="0"/>
        <pt x="729" y="929" on="0"/>
        <pt x="799" y="898" on="0"/>
        <pt x="822" y="889" on="1"/>
        <pt x="997" y="1038" on="1"/>
        <pt x="1118" y="926" on="1"/>
        <pt x="1112" y="896" on="0"/>
        <pt x="1077" y="823" on="0"/>
        <pt x="1025" y="749" on="0"/>
        <pt x="961" y="679" on="0"/>
        <pt x="889" y="624" on="0"/>
        <pt x="812" y="591" on="0"/>
        <pt x="774" y="591" on="1"/>
        <pt x="755" y="591" on="0"/>
        <pt x="688" y="606" on="0"/>
        <pt x="606" y="632" on="0"/>
        <pt x="516" y="664" on="0"/>
        <pt x="431" y="699" on="0"/>
        <pt x="358" y="732" on="0"/>
        <pt x="335" y="746" on="1"/>
        <pt x="153" y="594" on="1"/>
      </contour>
      <contour>
        <pt x="37" y="203" on="1"/>
        <pt x="43" y="232" on="0"/>
        <pt x="80" y="306" on="0"/>
        <pt x="133" y="382" on="0"/>
        <pt x="200" y="454" on="0"/>
        <pt x="274" y="510" on="0"/>
        <pt x="352" y="544" on="0"/>
        <pt x="390" y="544" on="1"/>
        <pt x="411" y="544" on="0"/>
        <pt x="480" y="526" on="0"/>
        <pt x="562" y="497" on="0"/>
        <pt x="651" y="462" on="0"/>
        <pt x="734" y="427" on="0"/>
        <pt x="804" y="396" on="0"/>
        <pt x="827" y="387" on="1"/>
        <pt x="1002" y="536" on="1"/>
        <pt x="1123" y="424" on="1"/>
        <pt x="1116" y="394" on="0"/>
        <pt x="1082" y="321" on="0"/>
        <pt x="1030" y="247" on="0"/>
        <pt x="966" y="177" on="0"/>
        <pt x="894" y="122" on="0"/>
        <pt x="817" y="89" on="0"/>
        <pt x="779" y="89" on="1"/>
        <pt x="760" y="89" on="0"/>
        <pt x="693" y="104" on="0"/>
        <pt x="611" y="130" on="0"/>
        <pt x="521" y="162" on="0"/>
        <pt x="436" y="197" on="0"/>
        <pt x="363" y="230" on="0"/>
        <pt x="340" y="244" on="1"/>
        <pt x="158" y="92" on="1"/>
      </contour>
    </TTGlyph>
    <TTGlyph name="aring" xMin="45" yMin="-22" xMax="1201" yMax="1721">
      <component glyphName="a" x="0" y="0" flags="0x204"/>
      <component glyphName="ring" x="284" y="0" flags="0x4"/>
    </TTGlyph>
    <TTGlyph name="asciicircum" xMin="62" yMin="332" xMax="1144" yMax="1451">
      <contour>
        <pt x="268" y="332" on="1"/>
        <pt x="239" y="335" on="0"/>
        <pt x="176" y="360" on="0"/>
        <pt x="119" y="397" on="0"/>
        <pt x="74" y="440" on="0"/>
        <pt x="62" y="460" on="1"/>
        <pt x="69" y="483" on="0"/>
        <pt x="105" y="580" on="0"/>
        <pt x="155" y="708" on="0"/>
        <pt x="215" y="859" on="0"/>
        <pt x="277" y="1013" on="0"/>
        <pt x="338" y="1161" on="0"/>
        <pt x="391" y="1284" on="0"/>
        <pt x="432" y="1372" on="0"/>
        <pt x="443" y="1389" on="1"/>
        <pt x="461" y="1404" on="0"/>
        <pt x="547" y="1430" on="0"/>
        <pt x="649" y="1446" on="0"/>
        <pt x="750" y="1451" on="0"/>
        <pt x="782" y="1445" on="1"/>
        <pt x="1144" y="470" on="1"/>
        <pt x="1135" y="449" on="0"/>
        <pt x="1091" y="404" on="0"/>
        <pt x="1033" y="364" on="0"/>
        <pt x="970" y="335" on="0"/>
        <pt x="942" y="332" on="1"/>
        <pt x="575" y="1017" on="1"/>
        <pt x="268" y="332" on="1"/>
      </contour>
    </TTGlyph>
    <TTGlyph name="asciitilde" xMin="37" yMin="374" xMax="1123" yMax="829">
      <contour>
        <pt x="37" y="488" on="1"/>
        <pt x="43" y="518" on="0"/>
        <pt x="80" y="591" on="0"/>
        <pt x="133" y="667" on="0"/>
        <pt x="200" y="739" on="0"/>
        <pt x="274" y="795" on="0"/>
        <pt x="352" y="829" on="0"/>
        <pt x="390" y="829" on="1"/>
        <pt x="411" y="829" on="0"/>
        <pt x="480" y="814" on="0"/>
        <pt x="562" y="790" on="0"/>
        <pt x="651" y="760" on="0"/>
        <pt x="734" y="729" on="0"/>
        <pt x="804" y="701" on="0"/>
        <pt x="827" y="692" on="1"/>
        <pt x="1002" y="821" on="1"/>
        <pt x="1123" y="709" on="1"/>
        <pt x="1116" y="679" on="0"/>
        <pt x="1082" y="606" on="0"/>
        <pt x="1030" y="532" on="0"/>
        <pt x="966" y="462" on="0"/>
        <pt x="894" y="407" on="0"/>
        <pt x="817" y="374" on="0"/>
        <pt x="779" y="374" on="1"/>
        <pt x="760" y="374" on="0"/>
        <pt x="693" y="386" on="0"/>
        <pt x="611" y="407" on="0"/>
        <pt x="521" y="435" on="0"/>
        <pt x="436" y="465" on="0"/>
        <pt x="363" y="495" on="0"/>
        <pt x="340" y="509" on="1"/>
        <pt x="158" y="377" on="1"/>
      </contour>
    </TTGlyph>
    <TTGlyph name="asterisk" xMin="37" yMin="596" xMax="1044" yMax="1649">
      <contour>
        <pt x="385" y="596" on="1"/>
        <pt x="341" y="596" on="0"/>
        <pt x="261" y="628" on="0"/>
        <pt x="192" y="678" on="0"/>
        <pt x="137" y="740" on="0"/>
        <pt x="119" y="770" on="1"/>
        <pt x="186" y="851" on="0"/>
        <pt x="341" y="978" on="0"/>
        <pt x="427" y="1027" on="1"/>
        <pt x="425" y="1038" on="1"/>
        <pt x="417" y="1038" on="0"/>
        <pt x="384" y="1037" on="0"/>
        <pt x="376" y="1037" on="1"/>
        <pt x="292" y="1037" on="0"/>
        <pt x="111" y="1057" on="0"/>
        <pt x="37" y="1080" on="1"/>
        <pt x="40" y="1125" on="0"/>
        <pt x="65" y="1219" on="0"/>
        <pt x="106" y="1305" on="0"/>
        <pt x="163" y="1379" on="0"/>
        <pt x="199" y="1403" on="1"/>
        <pt x="474" y="1162" on="1"/>
        <pt x="487" y="1170" on="1"/>
        <pt x="472" y="1205" on="0"/>
        <pt x="448" y="1315" on="0"/>
        <pt x="429" y="1431" on="0"/>
        <pt x="416" y="1537" on="0"/>
        <pt x="414" y="1570" on="1"/>
        <pt x="454" y="1607" on="0"/>
        <pt x="560" y="1649" on="0"/>
        <pt x="619" y="1649" on="1"/>
        <pt x="635" y="1649" on="0"/>
        <pt x="676" y="1645" on="0"/>
        <pt x="719" y="1638" on="0"/>
        <pt x="759" y="1626" on="0"/>
        <pt x="776" y="1618" on="1"/>
        <pt x="638" y="1162" on="1"/>
        <pt x="643" y="1159" on="0"/>
        <pt x="646" y="1154" on="0"/>
        <pt x="650" y="1151" on="1"/>
        <pt x="967" y="1376" on="1"/>
        <pt x="1005" y="1340" on="0"/>
        <pt x="1044" y="1224" on="0"/>
        <pt x="1044" y="1159" on="1"/>
        <pt x="1044" y="1127" on="0"/>
        <pt x="1035" y="1066" on="0"/>
        <pt x="1025" y="1037" on="1"/>
        <pt x="988" y="1029" on="0"/>
        <pt x="908" y="1022" on="0"/>
        <pt x="874" y="1022" on="1"/>
        <pt x="819" y="1022" on="0"/>
        <pt x="704" y="1035" on="0"/>
        <pt x="661" y="1041" on="1"/>
        <pt x="656" y="1031" on="1"/>
        <pt x="964" y="787" on="1"/>
        <pt x="918" y="711" on="0"/>
        <pt x="769" y="623" on="0"/>
        <pt x="678" y="612" on="1"/>
        <pt x="658" y="645" on="0"/>
        <pt x="618" y="728" on="0"/>
        <pt x="579" y="819" on="0"/>
        <pt x="543" y="915" on="0"/>
        <pt x="528" y="963" on="1"/>
        <pt x="520" y="965" on="1"/>
        <pt x="385" y="596" on="1"/>
      </contour>
    </TTGlyph>
    <TTGlyph name="at" xMin="128" yMin="-237" xMax="1637" yMax="1382">
      <contour>
        <pt x="330" y="-76" on="1"/>
        <pt x="286" y="-25" on="0"/>
        <pt x="211" y="129" on="0"/>
        <pt x="157" y="304" on="0"/>
        <pt x="128" y="484" on="0"/>
        <pt x="129" y="562" on="1"/>
        <pt x="130" y="640" on="0"/>
        <pt x="152" y="819" on="0"/>
        <pt x="187" y="989" on="0"/>
        <pt x="231" y="1133" on="0"/>
        <pt x="255" y="1175" on="1"/>
        <pt x="299" y="1221" on="0"/>
        <pt x="440" y="1297" on="0"/>
        <pt x="611" y="1352" on="0"/>
        <pt x="801" y="1382" on="0"/>
        <pt x="893" y="1382" on="1"/>
        <pt x="979" y="1382" on="0"/>
        <pt x="1149" y="1337" on="0"/>
        <pt x="1303" y="1251" on="0"/>
        <pt x="1433" y="1128" on="0"/>
        <pt x="1527" y="971" on="0"/>
        <pt x="1577" y="784" on="0"/>
        <pt x="1574" y="678" on="1"/>
        <pt x="1560" y="618" on="0"/>
        <pt x="1527" y="521" on="0"/>
        <pt x="1487" y="437" on="0"/>
        <pt x="1440" y="359" on="0"/>
        <pt x="1412" y="317" on="1"/>
        <pt x="1144" y="321" on="1"/>
        <pt x="1164" y="368" on="0"/>
        <pt x="1201" y="488" on="0"/>
        <pt x="1233" y="615" on="0"/>
        <pt x="1259" y="740" on="0"/>
        <pt x="1277" y="844" on="0"/>
        <pt x="1285" y="918" on="0"/>
        <pt x="1284" y="931" on="1"/>
        <pt x="1240" y="982" on="0"/>
        <pt x="1134" y="1029" on="0"/>
        <pt x="1059" y="1029" on="1"/>
        <pt x="1012" y="1029" on="0"/>
        <pt x="936" y="1014" on="0"/>
        <pt x="923" y="1006" on="1"/>
        <pt x="923" y="986" on="0"/>
        <pt x="928" y="879" on="0"/>
        <pt x="929" y="807" on="1"/>
        <pt x="911" y="838" on="0"/>
        <pt x="868" y="904" on="0"/>
        <pt x="819" y="967" on="0"/>
        <pt x="763" y="1024" on="0"/>
        <pt x="730" y="1047" on="1"/>
        <pt x="718" y="1045" on="0"/>
        <pt x="651" y="1031" on="0"/>
        <pt x="565" y="995" on="0"/>
        <pt x="473" y="934" on="0"/>
        <pt x="437" y="886" on="1"/>
        <pt x="426" y="870" on="0"/>
        <pt x="417" y="851" on="0"/>
        <pt x="417" y="841" on="1"/>
        <pt x="417" y="827" on="0"/>
        <pt x="427" y="797" on="1"/>
        <pt x="442" y="749" on="0"/>
        <pt x="463" y="627" on="0"/>
        <pt x="478" y="500" on="0"/>
        <pt x="487" y="378" on="0"/>
        <pt x="488" y="330" on="1"/>
        <pt x="488" y="314" on="0"/>
        <pt x="488" y="273" on="0"/>
        <pt x="486" y="232" on="0"/>
        <pt x="485" y="199" on="0"/>
        <pt x="485" y="190" on="1"/>
        <pt x="485" y="174" on="0"/>
        <pt x="508" y="149" on="0"/>
        <pt x="541" y="127" on="0"/>
        <pt x="578" y="106" on="0"/>
        <pt x="593" y="96" on="1"/>
        <pt x="617" y="79" on="0"/>
        <pt x="661" y="54" on="0"/>
        <pt x="683" y="56" on="1"/>
        <pt x="694" y="57" on="0"/>
        <pt x="716" y="65" on="0"/>
        <pt x="728" y="76" on="1"/>
        <pt x="747" y="92" on="0"/>
        <pt x="786" y="149" on="0"/>
        <pt x="824" y="219" on="0"/>
        <pt x="860" y="299" on="0"/>
        <pt x="893" y="378" on="0"/>
        <pt x="921" y="450" on="0"/>
        <pt x="932" y="479" on="1"/>
        <pt x="953" y="474" on="1"/>
        <pt x="944" y="419" on="0"/>
        <pt x="930" y="312" on="0"/>
        <pt x="924" y="250" on="1"/>
        <pt x="921" y="223" on="0"/>
        <pt x="927" y="187" on="0"/>
        <pt x="940" y="162" on="0"/>
        <pt x="956" y="144" on="0"/>
        <pt x="964" y="136" on="1"/>
        <pt x="981" y="118" on="0"/>
        <pt x="1020" y="88" on="0"/>
        <pt x="1062" y="66" on="0"/>
        <pt x="1104" y="55" on="0"/>
        <pt x="1123" y="55" on="1"/>
        <pt x="1149" y="55" on="0"/>
        <pt x="1228" y="67" on="0"/>
        <pt x="1335" y="105" on="0"/>
        <pt x="1470" y="174" on="0"/>
        <pt x="1551" y="233" on="1"/>
        <pt x="1569" y="198" on="0"/>
        <pt x="1605" y="111" on="0"/>
        <pt x="1629" y="21" on="0"/>
        <pt x="1637" y="-68" on="0"/>
        <pt x="1628" y="-105" on="1"/>
        <pt x="1569" y="-143" on="0"/>
        <pt x="1377" y="-201" on="0"/>
        <pt x="1144" y="-233" on="0"/>
        <pt x="887" y="-237" on="0"/>
        <pt x="638" y="-205" on="0"/>
        <pt x="413" y="-135" on="0"/>
      </contour>
      <contour>
        <pt x="712" y="348" on="1"/>
        <pt x="728" y="427" on="0"/>
        <pt x="745" y="575" on="0"/>
        <pt x="743" y="649" on="1"/>
        <pt x="742" y="754" on="1"/>
        <pt x="945" y="711" on="1"/>
        <pt x="944" y="650" on="1"/>
        <pt x="933" y="626" on="0"/>
        <pt x="888" y="538" on="0"/>
        <pt x="832" y="442" on="0"/>
        <pt x="773" y="353" on="0"/>
        <pt x="748" y="328" on="1"/>
      </contour>
    </TTGlyph>
    <TTGlyph name="atilde" xMin="45" yMin="-22" xMax="1201" yMax="1671">
      <component glyphName="a" x="0" y="0" flags="0x204"/>
      <component glyphName="tilde" x="190" y="0" flags="0x4"/>
    </TTGlyph>
    <TTGlyph name="b" xMin="46" yMin="-21" xMax="1104" yMax="1613">
      <contour>
        <pt x="167" y="77" on="1"/>
        <pt x="153" y="84" on="0"/>
        <pt x="136" y="96" on="0"/>
        <pt x="127" y="114" on="0"/>
        <pt x="128" y="141" on="0"/>
        <pt x="133" y="163" on="1"/>
        <pt x="139" y="190" on="0"/>
        <pt x="150" y="236" on="0"/>
        <pt x="162" y="282" on="0"/>
        <pt x="175" y="334" on="0"/>
        <pt x="184" y="368" on="1"/>
        <pt x="182" y="368" on="1"/>
        <pt x="182" y="369" on="0"/>
        <pt x="183" y="369" on="0"/>
        <pt x="183" y="370" on="1"/>
        <pt x="173" y="392" on="0"/>
        <pt x="149" y="507" on="0"/>
        <pt x="125" y="665" on="0"/>
        <pt x="102" y="853" on="0"/>
        <pt x="81" y="1044" on="0"/>
        <pt x="63" y="1224" on="0"/>
        <pt x="51" y="1367" on="0"/>
        <pt x="46" y="1459" on="0"/>
        <pt x="48" y="1466" on="1"/>
        <pt x="73" y="1497" on="0"/>
        <pt x="146" y="1550" on="0"/>
        <pt x="232" y="1590" on="0"/>
        <pt x="326" y="1613" on="0"/>
        <pt x="371" y="1613" on="1"/>
        <pt x="414" y="1613" on="0"/>
        <pt x="491" y="1592" on="0"/>
        <pt x="523" y="1566" on="1"/>
        <pt x="516" y="1440" on="0"/>
        <pt x="490" y="1182" on="0"/>
        <pt x="457" y="920" on="0"/>
        <pt x="420" y="654" on="0"/>
        <pt x="404" y="521" on="1"/>
        <pt x="414" y="517" on="1"/>
        <pt x="636" y="1165" on="1"/>
        <pt x="652" y="1170" on="0"/>
        <pt x="702" y="1181" on="0"/>
        <pt x="746" y="1182" on="1"/>
        <pt x="774" y="1182" on="0"/>
        <pt x="860" y="1166" on="0"/>
        <pt x="957" y="1131" on="0"/>
        <pt x="1059" y="1076" on="0"/>
        <pt x="1104" y="1038" on="1"/>
        <pt x="1102" y="960" on="0"/>
        <pt x="1085" y="782" on="0"/>
        <pt x="1057" y="595" on="0"/>
        <pt x="1020" y="408" on="0"/>
        <pt x="979" y="234" on="0"/>
        <pt x="936" y="82" on="0"/>
        <pt x="915" y="23" on="1"/>
        <pt x="898" y="11" on="0"/>
        <pt x="842" y="-5" on="0"/>
        <pt x="776" y="-15" on="0"/>
        <pt x="706" y="-20" on="0"/>
        <pt x="676" y="-20" on="1"/>
        <pt x="623" y="-21" on="0"/>
        <pt x="489" y="-11" on="0"/>
        <pt x="349" y="12" on="0"/>
        <pt x="217" y="50" on="0"/>
      </contour>
      <contour>
        <pt x="457" y="300" on="1"/>
        <pt x="477" y="282" on="0"/>
        <pt x="536" y="252" on="0"/>
        <pt x="598" y="230" on="0"/>
        <pt x="654" y="216" on="0"/>
        <pt x="671" y="215" on="1"/>
        <pt x="677" y="272" on="0"/>
        <pt x="691" y="426" on="0"/>
        <pt x="703" y="585" on="0"/>
        <pt x="711" y="730" on="0"/>
        <pt x="712" y="777" on="1"/>
        <pt x="685" y="785" on="1"/>
        <pt x="671" y="756" on="0"/>
        <pt x="630" y="671" on="0"/>
        <pt x="585" y="576" on="0"/>
        <pt x="538" y="477" on="0"/>
        <pt x="497" y="389" on="0"/>
        <pt x="465" y="319" on="0"/>
      </contour>
    </TTGlyph>
    <TTGlyph name="backslash" xMin="47" yMin="-241" xMax="665" yMax="1670">
      <component glyphName="slash" x="768" y="0" scalex="-0.99994" scaley="1.0" flags="0x4"/>
    </TTGlyph>
    <TTGlyph name="bar" xMin="142" yMin="-316" xMax="480" yMax="1850">
      <contour>
        <pt x="142" y="1796" on="1"/>
        <pt x="166" y="1813" on="0"/>
        <pt x="253" y="1838" on="0"/>
        <pt x="351" y="1850" on="0"/>
        <pt x="447" y="1848" on="0"/>
        <pt x="480" y="1838" on="1"/>
        <pt x="470" y="-289" on="1"/>
        <pt x="396" y="-312" on="0"/>
        <pt x="266" y="-316" on="0"/>
        <pt x="200" y="-293" on="1"/>
      </contour>
    </TTGlyph>
    <TTGlyph name="braceleft" xMin="89" yMin="-291" xMax="855" yMax="1849">
      <contour>
        <pt x="372" y="547" on="1"/>
        <pt x="325" y="591" on="1"/>
        <pt x="283" y="571" on="0"/>
        <pt x="191" y="562" on="0"/>
        <pt x="140" y="579" on="1"/>
        <pt x="110" y="622" on="0"/>
        <pt x="89" y="738" on="0"/>
        <pt x="108" y="851" on="0"/>
        <pt x="170" y="945" on="0"/>
        <pt x="224" y="965" on="1"/>
        <pt x="238" y="955" on="0"/>
        <pt x="300" y="907" on="0"/>
        <pt x="333" y="880" on="1"/>
        <pt x="381" y="939" on="1"/>
        <pt x="298" y="1697" on="1"/>
        <pt x="311" y="1724" on="0"/>
        <pt x="359" y="1775" on="0"/>
        <pt x="414" y="1817" on="0"/>
        <pt x="468" y="1845" on="0"/>
        <pt x="488" y="1849" on="1"/>
        <pt x="537" y="1837" on="0"/>
        <pt x="626" y="1820" on="0"/>
        <pt x="713" y="1808" on="0"/>
        <pt x="802" y="1803" on="0"/>
        <pt x="852" y="1803" on="1"/>
        <pt x="855" y="1737" on="0"/>
        <pt x="844" y="1610" on="0"/>
        <pt x="827" y="1544" on="1"/>
        <pt x="778" y="1534" on="0"/>
        <pt x="684" y="1549" on="0"/>
        <pt x="641" y="1578" on="1"/>
        <pt x="641" y="960" on="1"/>
        <pt x="640" y="960" on="1"/>
        <pt x="640" y="959" on="1"/>
        <pt x="618" y="928" on="0"/>
        <pt x="576" y="878" on="0"/>
        <pt x="534" y="836" on="0"/>
        <pt x="492" y="798" on="0"/>
        <pt x="471" y="780" on="1"/>
        <pt x="471" y="765" on="1"/>
        <pt x="537" y="714" on="0"/>
        <pt x="636" y="618" on="0"/>
        <pt x="652" y="573" on="1"/>
        <pt x="597" y="-29" on="1"/>
        <pt x="776" y="-96" on="1"/>
        <pt x="738" y="-282" on="1"/>
        <pt x="674" y="-290" on="0"/>
        <pt x="566" y="-291" on="0"/>
        <pt x="467" y="-278" on="0"/>
        <pt x="370" y="-252" on="0"/>
        <pt x="317" y="-232" on="1"/>
      </contour>
    </TTGlyph>
    <TTGlyph name="braceright" xMin="27" yMin="-292" xMax="770" yMax="1848">
      <contour>
        <pt x="83" y="-13" on="1"/>
        <pt x="132" y="-8" on="0"/>
        <pt x="220" y="-25" on="0"/>
        <pt x="263" y="-48" on="1"/>
        <pt x="218" y="597" on="1"/>
        <pt x="219" y="597" on="1"/>
        <pt x="219" y="598" on="1"/>
        <pt x="252" y="650" on="0"/>
        <pt x="345" y="740" on="0"/>
        <pt x="388" y="777" on="1"/>
        <pt x="388" y="792" on="1"/>
        <pt x="254" y="895" on="0"/>
        <pt x="219" y="972" on="1"/>
        <pt x="229" y="1586" on="1"/>
        <pt x="27" y="1653" on="1"/>
        <pt x="65" y="1839" on="1"/>
        <pt x="129" y="1847" on="0"/>
        <pt x="261" y="1848" on="0"/>
        <pt x="390" y="1835" on="0"/>
        <pt x="511" y="1808" on="0"/>
        <pt x="564" y="1789" on="1"/>
        <pt x="487" y="1010" on="1"/>
        <pt x="533" y="965" on="1"/>
        <pt x="575" y="986" on="0"/>
        <pt x="667" y="995" on="0"/>
        <pt x="719" y="978" on="1"/>
        <pt x="749" y="935" on="0"/>
        <pt x="770" y="819" on="0"/>
        <pt x="751" y="706" on="0"/>
        <pt x="689" y="612" on="0"/>
        <pt x="635" y="592" on="1"/>
        <pt x="526" y="676" on="1"/>
        <pt x="478" y="617" on="1"/>
        <pt x="539" y="-140" on="1"/>
        <pt x="526" y="-167" on="0"/>
        <pt x="478" y="-218" on="0"/>
        <pt x="423" y="-260" on="0"/>
        <pt x="368" y="-288" on="0"/>
        <pt x="349" y="-292" on="1"/>
        <pt x="58" y="-245" on="1"/>
        <pt x="56" y="-211" on="0"/>
        <pt x="57" y="-155" on="0"/>
        <pt x="63" y="-101" on="0"/>
        <pt x="74" y="-46" on="0"/>
      </contour>
    </TTGlyph>
    <TTGlyph name="bracketleft" xMin="149" yMin="-291" xMax="686" yMax="1849">
      <contour>
        <pt x="149" y="1724" on="1"/>
        <pt x="300" y="1849" on="1"/>
        <pt x="683" y="1803" on="1"/>
        <pt x="686" y="1737" on="0"/>
        <pt x="675" y="1610" on="0"/>
        <pt x="658" y="1544" on="1"/>
        <pt x="611" y="1539" on="0"/>
        <pt x="531" y="1556" on="0"/>
        <pt x="484" y="1578" on="1"/>
        <pt x="462" y="-28" on="1"/>
        <pt x="639" y="-95" on="1"/>
        <pt x="601" y="-291" on="1"/>
        <pt x="207" y="-245" on="1"/>
      </contour>
    </TTGlyph>
</ttFont>
